<svg width="154" height="153" viewBox="0 0 154 153" fill="none" xmlns="http://www.w3.org/2000/svg">
<g filter="url(#filter0_d_8_122)">
<mask id="path-1-outside-1_8_122" maskUnits="userSpaceOnUse" x="-1" y="-6" width="156" height="155" fill="black">
<rect fill="white" x="-1" y="-6" width="156" height="155"/>
<path d="M17.6381 140C15.0714 140 12.9131 139.125 11.1631 137.375C9.41309 135.625 8.53809 133.467 8.53809 130.9V12.425C8.53809 9.74166 9.41309 7.58333 11.1631 5.94999C12.9131 4.2 15.0714 3.325 17.6381 3.325C21.1381 3.325 23.8214 4.95833 25.6881 8.225L80.4631 117.95H74.8631L128.238 8.225C130.105 4.95833 132.788 3.325 136.288 3.325C138.855 3.325 141.013 4.2 142.763 5.94999C144.513 7.58333 145.388 9.74166 145.388 12.425V130.9C145.388 133.467 144.455 135.625 142.588 137.375C140.838 139.125 138.738 140 136.288 140C133.721 140 131.563 139.125 129.813 137.375C128.063 135.625 127.188 133.467 127.188 130.9V37.625L130.688 36.75L84.8381 130.2C82.8548 133.233 80.2298 134.75 76.9631 134.75C73.1131 134.75 70.3131 132.942 68.5631 129.325L23.2381 38.5L26.7381 37.625V130.9C26.7381 133.467 25.8631 135.625 24.1131 137.375C22.3631 139.125 20.2048 140 17.6381 140Z"/>
</mask>
<path d="M17.6381 140C15.0714 140 12.9131 139.125 11.1631 137.375C9.41309 135.625 8.53809 133.467 8.53809 130.9V12.425C8.53809 9.74166 9.41309 7.58333 11.1631 5.94999C12.9131 4.2 15.0714 3.325 17.6381 3.325C21.1381 3.325 23.8214 4.95833 25.6881 8.225L80.4631 117.95H74.8631L128.238 8.225C130.105 4.95833 132.788 3.325 136.288 3.325C138.855 3.325 141.013 4.2 142.763 5.94999C144.513 7.58333 145.388 9.74166 145.388 12.425V130.9C145.388 133.467 144.455 135.625 142.588 137.375C140.838 139.125 138.738 140 136.288 140C133.721 140 131.563 139.125 129.813 137.375C128.063 135.625 127.188 133.467 127.188 130.9V37.625L130.688 36.75L84.8381 130.2C82.8548 133.233 80.2298 134.75 76.9631 134.75C73.1131 134.75 70.3131 132.942 68.5631 129.325L23.2381 38.5L26.7381 37.625V130.9C26.7381 133.467 25.8631 135.625 24.1131 137.375C22.3631 139.125 20.2048 140 17.6381 140Z" fill="#FF5500"/>
<path d="M11.1631 137.375L4.79913 143.739L4.79913 143.739L11.1631 137.375ZM11.1631 5.94999L17.304 12.5295L17.4174 12.4236L17.527 12.314L11.1631 5.94999ZM25.6881 8.225L33.7405 4.20521L33.6276 3.97913L33.5023 3.75974L25.6881 8.225ZM80.4631 117.95V126.95H95.015L88.5155 113.93L80.4631 117.95ZM74.8631 117.95L66.7698 114.013L60.4768 126.95H74.8631V117.95ZM128.238 8.225L120.424 3.75975L120.276 4.01928L120.145 4.28809L128.238 8.225ZM142.763 5.94999L136.399 12.314L136.509 12.4236L136.622 12.5295L142.763 5.94999ZM142.588 137.375L136.433 130.809L136.327 130.908L136.224 131.011L142.588 137.375ZM127.188 37.625L125.005 28.8937L118.188 30.598V37.625H127.188ZM130.688 36.75L138.768 40.7143L147.303 23.3194L128.505 28.0187L130.688 36.75ZM84.8381 130.2L92.3708 135.125L92.674 134.662L92.918 134.164L84.8381 130.2ZM68.5631 129.325L76.6645 125.405L76.6406 125.355L76.616 125.306L68.5631 129.325ZM23.2381 38.5L21.0553 29.7687L10.1793 32.4877L15.1851 42.5187L23.2381 38.5ZM26.7381 37.625H35.7381V26.098L24.5553 28.8937L26.7381 37.625ZM17.6381 131C17.509 131 17.4432 130.989 17.4285 130.986C17.4155 130.984 17.4355 130.987 17.4757 131.003C17.4943 131.011 17.513 131.019 17.5306 131.029C17.5483 131.038 17.5616 131.046 17.5702 131.052C17.5891 131.065 17.5738 131.058 17.527 131.011L4.79913 143.739C8.30559 147.245 12.7833 149 17.6381 149V131ZM17.527 131.011C17.4803 130.964 17.4732 130.949 17.4859 130.968C17.4916 130.976 17.4999 130.99 17.5093 131.007C17.5187 131.025 17.5275 131.044 17.535 131.062C17.5513 131.103 17.5541 131.123 17.5517 131.11C17.5489 131.095 17.5381 131.029 17.5381 130.9H-0.461914C-0.461914 135.755 1.29266 140.232 4.79913 143.739L17.527 131.011ZM17.5381 130.9V12.425H-0.461914V130.9H17.5381ZM17.5381 12.425C17.5381 12.243 17.5529 12.1434 17.5587 12.1115C17.564 12.082 17.5617 12.1092 17.535 12.1751C17.5076 12.2427 17.4668 12.3207 17.4144 12.3963C17.3625 12.4713 17.319 12.5154 17.304 12.5295L5.02222 -0.629504C1.2183 2.92083 -0.461914 7.58041 -0.461914 12.425H17.5381ZM17.527 12.314C17.5738 12.2672 17.5891 12.2601 17.5702 12.2728C17.5616 12.2785 17.5483 12.2869 17.5306 12.2962C17.5129 12.3056 17.4943 12.3144 17.4757 12.3219C17.4355 12.3382 17.4155 12.341 17.4285 12.3386C17.4432 12.3359 17.509 12.325 17.6381 12.325V-5.675C12.7833 -5.675 8.30559 -3.92043 4.79913 -0.413971L17.527 12.314ZM17.6381 12.325C17.8098 12.325 17.8556 12.3445 17.8114 12.3328C17.7612 12.3195 17.6792 12.2884 17.5961 12.2378C17.5154 12.1887 17.4984 12.1607 17.5398 12.2053C17.586 12.255 17.7069 12.398 17.8739 12.6902L33.5023 3.75974C30.1801 -2.05402 24.6534 -5.675 17.6381 -5.675V12.325ZM17.6357 12.2448L72.4107 121.97L88.5155 113.93L33.7405 4.20521L17.6357 12.2448ZM80.4631 108.95H74.8631V126.95H80.4631V108.95ZM82.9563 121.887L136.331 12.1619L120.145 4.28809L66.7698 114.013L82.9563 121.887ZM136.052 12.6902C136.219 12.398 136.34 12.255 136.386 12.2053C136.428 12.1607 136.411 12.1887 136.33 12.2378C136.247 12.2884 136.165 12.3195 136.115 12.3328C136.071 12.3445 136.116 12.325 136.288 12.325V-5.675C129.273 -5.675 123.746 -2.05402 120.424 3.75975L136.052 12.6902ZM136.288 12.325C136.417 12.325 136.483 12.3359 136.498 12.3386C136.511 12.341 136.491 12.3382 136.451 12.3219C136.432 12.3144 136.413 12.3056 136.396 12.2962C136.378 12.2869 136.365 12.2785 136.356 12.2728C136.337 12.2601 136.352 12.2672 136.399 12.314L149.127 -0.413967C145.621 -3.92043 141.143 -5.675 136.288 -5.675V12.325ZM136.622 12.5295C136.607 12.5154 136.564 12.4713 136.512 12.3963C136.459 12.3207 136.419 12.2427 136.391 12.1751C136.364 12.1092 136.362 12.082 136.367 12.1115C136.373 12.1434 136.388 12.243 136.388 12.425H154.388C154.388 7.58041 152.708 2.92083 148.904 -0.6295L136.622 12.5295ZM136.388 12.425V130.9H154.388V12.425H136.388ZM136.388 130.9C136.388 130.994 136.38 131.024 136.384 131.004C136.386 130.995 136.39 130.977 136.397 130.953C136.405 130.928 136.415 130.901 136.427 130.872C136.44 130.842 136.453 130.816 136.467 130.793C136.48 130.77 136.49 130.753 136.497 130.744C136.511 130.725 136.497 130.748 136.433 130.809L148.744 143.941C152.432 140.483 154.388 135.946 154.388 130.9H136.388ZM136.224 131.011C136.159 131.076 136.13 131.094 136.14 131.087C136.144 131.084 136.156 131.077 136.174 131.067C136.192 131.057 136.214 131.046 136.239 131.036C136.264 131.026 136.288 131.017 136.311 131.01C136.333 131.004 136.35 131 136.36 130.998C136.383 130.994 136.363 131 136.288 131V149C141.152 149 145.533 147.158 148.952 143.739L136.224 131.011ZM136.288 131C136.159 131 136.093 130.989 136.078 130.986C136.065 130.984 136.086 130.987 136.126 131.003C136.144 131.011 136.163 131.019 136.181 131.029C136.198 131.038 136.212 131.046 136.22 131.052C136.239 131.065 136.224 131.058 136.177 131.011L123.449 143.739C126.956 147.245 131.433 149 136.288 149V131ZM136.177 131.011C136.13 130.964 136.123 130.949 136.136 130.968C136.142 130.976 136.15 130.99 136.159 131.007C136.169 131.025 136.177 131.044 136.185 131.062C136.201 131.103 136.204 131.123 136.202 131.11C136.199 131.095 136.188 131.029 136.188 130.9H118.188C118.188 135.755 119.943 140.232 123.449 143.739L136.177 131.011ZM136.188 130.9V37.625H118.188V130.9H136.188ZM129.371 46.3563L132.871 45.4813L128.505 28.0187L125.005 28.8937L129.371 46.3563ZM122.608 32.7857L76.7582 126.236L92.918 134.164L138.768 40.7143L122.608 32.7857ZM77.3054 125.275C77.1183 125.561 76.9784 125.716 76.907 125.786C76.8393 125.853 76.8285 125.849 76.8793 125.82C76.9331 125.789 76.9969 125.763 77.0491 125.75C77.0975 125.737 77.0785 125.75 76.9631 125.75V143.75C83.6403 143.75 88.94 140.372 92.3708 135.125L77.3054 125.275ZM76.9631 125.75C76.7062 125.75 76.6115 125.72 76.6341 125.726C76.6656 125.735 76.7547 125.766 76.8583 125.833C76.96 125.899 76.9945 125.946 76.9682 125.915C76.9358 125.876 76.8212 125.729 76.6645 125.405L60.4617 133.245C61.9072 136.233 64.0459 138.986 67.0929 140.954C70.1629 142.937 73.5808 143.75 76.9631 143.75V125.75ZM76.616 125.306L31.291 34.4813L15.1851 42.5187L60.5101 133.344L76.616 125.306ZM25.4209 47.2313L28.9209 46.3563L24.5553 28.8937L21.0553 29.7687L25.4209 47.2313ZM17.7381 37.625V130.9H35.7381V37.625H17.7381ZM17.7381 130.9C17.7381 131.029 17.7272 131.095 17.7245 131.11C17.7221 131.123 17.7249 131.103 17.7412 131.062C17.7487 131.044 17.7574 131.025 17.7668 131.007C17.7762 130.99 17.7845 130.976 17.7903 130.968C17.803 130.949 17.7959 130.964 17.7491 131.011L30.477 143.739C33.9835 140.232 35.7381 135.755 35.7381 130.9H17.7381ZM17.7491 131.011C17.7024 131.058 17.6871 131.065 17.706 131.052C17.7145 131.046 17.7279 131.038 17.7456 131.029C17.7632 131.019 17.7819 131.011 17.8005 131.003C17.8406 130.987 17.8607 130.984 17.8477 130.986C17.8329 130.989 17.7672 131 17.6381 131V149C22.4929 149 26.9706 147.245 30.477 143.739L17.7491 131.011Z" fill="white" mask="url(#path-1-outside-1_8_122)"/>
</g>
<defs>
<filter id="filter0_d_8_122" x="0.539062" y="0.325195" width="152.85" height="152.675" filterUnits="userSpaceOnUse" color-interpolation-filters="sRGB">
<feFlood flood-opacity="0" result="BackgroundImageFix"/>
<feColorMatrix in="SourceAlpha" type="matrix" values="0 0 0 0 0 0 0 0 0 0 0 0 0 0 0 0 0 0 127 0" result="hardAlpha"/>
<feOffset dy="5"/>
<feGaussianBlur stdDeviation="4"/>
<feComposite in2="hardAlpha" operator="out"/>
<feColorMatrix type="matrix" values="0 0 0 0 0 0 0 0 0 0 0 0 0 0 0 0 0 0 0.25 0"/>
<feBlend mode="normal" in2="BackgroundImageFix" result="effect1_dropShadow_8_122"/>
<feBlend mode="normal" in="SourceGraphic" in2="effect1_dropShadow_8_122" result="shape"/>
</filter>
</defs>
</svg>
