<svg width="305" height="251" viewBox="0 0 305 251" fill="none" xmlns="http://www.w3.org/2000/svg">
<g clip-path="url(#clip0_253_21576)">
<path d="M334.42 212.325H-27.1875V212.506H334.42V212.325Z" fill="#EBEBEB"/>
<path d="M298.193 223.96H274.24V224.141H298.193V223.96Z" fill="#EBEBEB"/>
<path d="M212.345 225.927H206.061V226.108H212.345V225.927Z" fill="#EBEBEB"/>
<path d="M273.515 217.246H259.637V217.427H273.515V217.246Z" fill="#EBEBEB"/>
<path d="M41.9778 218.461H10.7422V218.642H41.9778V218.461Z" fill="#EBEBEB"/>
<path d="M53.0164 218.462H48.4385V218.643H53.0164V218.462Z" fill="#EBEBEB"/>
<path d="M135.633 221.509H67.8818V221.69H135.633V221.509Z" fill="#EBEBEB"/>
<path d="M144.209 180.066H4.56372C3.46975 180.064 2.42124 179.628 1.64837 178.854C0.875489 178.08 0.441405 177.03 0.441406 175.936V-20.3656C0.450929 -21.4533 0.889215 -22.4933 1.66106 -23.2597C2.43291 -24.0262 3.47599 -24.4571 4.56372 -24.459H144.209C145.304 -24.459 146.355 -24.0239 147.129 -23.2495C147.904 -22.475 148.339 -21.4247 148.339 -20.3294V175.936C148.339 177.032 147.904 178.082 147.129 178.857C146.355 179.631 145.304 180.066 144.209 180.066ZM4.56372 -24.3143C3.5177 -24.3124 2.51518 -23.8956 1.77621 -23.1552C1.03724 -22.4149 0.622208 -21.4116 0.62221 -20.3656V175.936C0.622208 176.982 1.03724 177.986 1.77621 178.726C2.51518 179.466 3.5177 179.883 4.56372 179.885H144.209C145.256 179.883 146.259 179.467 146.999 178.727C147.739 177.986 148.156 176.983 148.158 175.936V-20.3656C148.156 -21.4123 147.739 -22.4155 146.999 -23.1557C146.259 -23.8958 145.256 -24.3124 144.209 -24.3143H4.56372Z" fill="#EBEBEB"/>
<path d="M300.655 180.066H161.003C159.908 180.064 158.859 179.628 158.085 178.854C157.311 178.08 156.875 177.031 156.873 175.936V-20.3656C156.884 -21.4539 157.324 -22.494 158.097 -23.2602C158.87 -24.0264 159.914 -24.4571 161.003 -24.459H300.655C301.742 -24.4552 302.783 -24.0234 303.553 -23.2572C304.323 -22.491 304.761 -21.452 304.77 -20.3656V175.936C304.77 177.029 304.337 178.077 303.566 178.851C302.795 179.625 301.748 180.062 300.655 180.066ZM161.003 -24.3143C159.956 -24.3124 158.953 -23.8958 158.213 -23.1557C157.472 -22.4155 157.056 -21.4123 157.054 -20.3656V175.936C157.056 176.983 157.472 177.986 158.213 178.727C158.953 179.467 159.956 179.883 161.003 179.885H300.655C301.702 179.883 302.705 179.467 303.445 178.727C304.185 177.986 304.602 176.983 304.604 175.936V-20.3656C304.602 -21.4123 304.185 -22.4155 303.445 -23.1557C302.705 -23.8958 301.702 -24.3124 300.655 -24.3143H161.003Z" fill="#EBEBEB"/>
<path d="M246.374 166.94V177.21L250.713 180.363H230.463L236.928 177.962V167.656L246.374 166.94Z" fill="#E0E0E0"/>
<path d="M191.764 180.072V212.422H282.166V180.072H191.764ZM193.391 182.17H264.15V192.743H193.398L193.391 182.17Z" fill="#E0E0E0"/>
<path d="M191.764 180.072V212.422H266.327V180.072H191.764ZM193.391 182.17H264.15V192.743H193.398L193.391 182.17Z" fill="#EBEBEB"/>
<path d="M193.381 192.743H207.961V182.17H193.381V192.743Z" fill="#E0E0E0"/>
<path d="M246.095 192.742H264.139V187.455H246.095V192.742Z" fill="#E0E0E0"/>
<path d="M231.19 192.743H244.771V189.604H231.19V192.743Z" fill="#E0E0E0"/>
<path d="M215.1 192.742H228.038V186.32H215.1V192.742Z" fill="#E0E0E0"/>
<path d="M251.321 195.035L251.704 196.301H256.897L257.287 195.035H264.143V209.073H241.384V195.035H251.321Z" fill="#E0E0E0"/>
<path d="M224.276 195.035L224.667 196.301H229.859L230.25 195.035H240.179V209.073H217.42V195.035H224.276Z" fill="#E0E0E0"/>
<path d="M203.394 195.035L203.777 196.301H208.97L209.361 195.035H216.217V209.073H193.457V195.035H203.394Z" fill="#E0E0E0"/>
<path d="M204.982 173.077H272.234C273.644 173.077 274.787 171.934 274.787 170.524V131.912C274.787 130.502 273.644 129.359 272.234 129.359H204.982C203.573 129.359 202.43 130.502 202.43 131.912V170.524C202.43 171.934 203.573 173.077 204.982 173.077Z" fill="#E0E0E0"/>
<path d="M203.281 173.077H270.533C271.943 173.077 273.086 171.934 273.086 170.524V131.912C273.086 130.502 271.943 129.359 270.533 129.359H203.281C201.871 129.359 200.728 130.502 200.728 131.912V170.524C200.728 171.934 201.871 173.077 203.281 173.077Z" fill="#E6E6E6"/>
<path d="M270.952 170.96V131.487H202.847V170.96H270.952Z" fill="#F0F0F0"/>
<path d="M111.053 13.6123H25.2578V102.264H111.053V13.6123Z" fill="#EBEBEB"/>
<path d="M114.047 13.6123H28.252V102.264H114.047V13.6123Z" fill="#F0F0F0"/>
<path d="M111.78 15.7236H30.418V100.217H111.78V15.7236Z" fill="#E0E0E0"/>
<path d="M109.747 15.7236H30.418V100.217H109.747V15.7236Z" fill="#F5F5F5"/>
<path d="M70.8979 15.7236H69.2852V100.217H70.8979V15.7236Z" fill="#EBEBEB"/>
<path d="M80.1514 15.7236L102.759 100.21H104.929L82.321 15.7236H80.1514Z" fill="white"/>
<path d="M71.5903 14.4082H70.209V101.823H71.5903V14.4082Z" fill="#F0F0F0"/>
<path d="M88.3398 15.7236L109.74 95.6821V51.7324L100.107 15.7236H88.3398Z" fill="white"/>
<path d="M30.418 23.3828V31.4901L48.8093 100.203H50.979L30.418 23.3828Z" fill="white"/>
<path d="M30.418 39.7549V83.7046L34.8296 100.201H46.589L30.418 39.7549Z" fill="white"/>
<path d="M261.778 18.6719H209.829V81.8808H261.778V18.6719Z" fill="#E6E6E6"/>
<path d="M249.881 66.2262L222.587 39.395L252.116 34.5205L249.881 66.2262Z" fill="#E0E0E0"/>
<path d="M223.241 59.8577L221.889 39.2822L242.442 44.3303L243.932 60.0674L223.241 59.8577Z" fill="#F0F0F0"/>
<path d="M256.003 36.7768C259.243 33.5373 259.243 28.285 256.003 25.0455C252.764 21.806 247.511 21.806 244.272 25.0455C241.032 28.285 241.032 33.5373 244.272 36.7768C247.511 40.0163 252.764 40.0163 256.003 36.7768Z" fill="#FAFAFA"/>
<path d="M225.942 67.1967C225.944 66.3993 225.709 65.6195 225.266 64.9559C224.824 64.2924 224.195 63.7749 223.459 63.4692C222.723 63.1634 221.912 63.083 221.13 63.2382C220.348 63.3934 219.629 63.7772 219.066 64.341C218.502 64.9048 218.118 65.6232 217.963 66.4053C217.808 67.1874 217.888 67.998 218.194 68.7343C218.5 69.4707 219.017 70.0998 219.681 70.5419C220.344 70.9839 221.124 71.2192 221.921 71.2177C222.987 71.2158 224.009 70.7916 224.762 70.0379C225.516 69.2842 225.94 68.2625 225.942 67.1967Z" fill="#E0E0E0"/>
<path d="M222.858 74.2581L234.473 67.1851L224.71 59.1357L222.858 74.2581Z" fill="#F5F5F5"/>
<path d="M236.595 77.1729H238.881V26.6997H236.595V77.1729Z" fill="#E0E0E0"/>
<path d="M214.701 74.9424H217.659V26.7039H214.701V74.9424Z" fill="#EBEBEB"/>
<path d="M241.445 75.1748H256.546V60.0741H241.445V75.1748Z" fill="#EBEBEB"/>
<path d="M68.924 180.63L59.3632 153.075C59.3632 153.075 72.6124 162.904 72.5401 152.012C72.4678 141.121 66.494 149.582 64.4329 145.554C62.3717 141.526 70.3126 141.569 67.521 135.465C64.7294 129.361 56.8102 138.741 55.4072 133.332C54.0041 127.922 51.7911 125.174 46.0054 125.658C46.0054 125.658 42.8883 132.775 46.7286 137.917C50.5689 143.059 37.2473 138.929 38.6214 144.1C39.9955 149.271 44.4071 153.784 46.367 150.146C48.3269 146.509 50.7931 153.48 47.4591 155.281C44.125 157.082 51.7983 164.864 53.5123 160.778C54.69 158.063 56.1441 155.477 57.8516 153.061L66.6676 182.546L68.924 180.63Z" fill="#EBEBEB"/>
<path d="M78.7832 180.875L89.5591 163.25C89.5591 163.25 78.8989 168.052 80.6057 160.523C82.3125 152.995 85.1547 159.749 87.1942 157.276C89.2337 154.803 83.7228 153.66 86.5795 149.827C89.4361 145.994 93.5006 153.711 95.258 150.181C97.0154 146.652 98.997 145.083 102.924 146.29C102.924 146.29 104.009 151.686 100.581 154.665C97.1528 157.645 106.974 156.835 105.26 160.176C103.546 163.517 99.7926 166.005 98.9898 163.192C98.187 160.379 95.4171 164.834 97.4566 166.577C99.4961 168.32 92.9871 172.55 92.4375 169.469C92.032 167.413 91.4165 165.404 90.6005 163.474L80.0488 182.545L78.7832 180.875Z" fill="#E6E6E6"/>
<path d="M71.5192 181.03L76.4515 152.644C76.4515 152.644 65.0898 164.338 63.4336 153.7C61.7775 143.061 68.9373 150.366 70.3114 146.106C71.6855 141.846 63.9399 143.162 65.6901 136.762C67.4403 130.362 76.6612 138.252 77.1675 132.755C77.6737 127.259 79.4095 124.221 85.1228 123.78C85.1228 123.78 89.2958 130.217 86.3812 135.843C83.4667 141.47 95.783 135.33 95.2768 140.588C94.7705 145.846 91.1762 150.951 88.6955 147.711C86.2149 144.471 84.9059 151.675 88.4424 152.89C91.9789 154.105 85.7159 162.928 83.4161 159.218C81.837 156.759 80.0071 154.471 77.9558 152.391L74.0577 182.534L71.5192 181.03Z" fill="#F5F5F5"/>
<path d="M65.3903 212.959H82.328C82.8996 212.96 83.4499 212.743 83.8667 212.352C84.2834 211.96 84.535 211.425 84.57 210.854L86.3636 181.666C86.3823 181.36 86.3384 181.055 86.2346 180.767C86.1308 180.479 85.9693 180.216 85.76 179.993C85.5507 179.77 85.298 179.593 85.0175 179.471C84.737 179.349 84.4346 179.287 84.1288 179.286H63.5895C63.2838 179.287 62.9814 179.349 62.7009 179.471C62.4203 179.593 62.1677 179.77 61.9583 179.993C61.749 180.216 61.5875 180.479 61.4837 180.767C61.3799 181.055 61.3361 181.36 61.3548 181.666L63.1484 210.891C63.1922 211.455 63.4476 211.981 63.8634 212.365C64.2792 212.748 64.8246 212.961 65.3903 212.959Z" fill="#EBEBEB"/>
<path d="M61.5758 182.531H86.3459C86.8967 182.531 87.4281 182.328 87.839 181.961C88.2498 181.594 88.5112 181.089 88.5734 180.542C88.6113 180.227 88.5819 179.908 88.4872 179.605C88.3925 179.302 88.2347 179.023 88.0242 178.786C87.8137 178.549 87.5552 178.359 87.2659 178.229C86.9766 178.099 86.663 178.032 86.3459 178.032H61.5758C61.2601 178.032 60.9478 178.099 60.6597 178.228C60.3715 178.357 60.1138 178.546 59.9035 178.781C59.6932 179.017 59.535 179.294 59.4394 179.595C59.3437 179.896 59.3127 180.214 59.3483 180.527C59.4072 181.077 59.6672 181.586 60.0783 181.956C60.4895 182.325 61.0228 182.53 61.5758 182.531Z" fill="#F5F5F5"/>
<path d="M153.612 244.986C231.055 244.986 293.836 241.321 293.836 236.799C293.836 232.278 231.055 228.612 153.612 228.612C76.1681 228.612 13.3877 232.278 13.3877 236.799C13.3877 241.321 76.1681 244.986 153.612 244.986Z" fill="#F5F5F5"/>
<path d="M233.455 17.9156V230.212C233.455 230.651 233.368 231.086 233.198 231.491C233.028 231.896 232.78 232.264 232.467 232.572C232.154 232.88 231.782 233.123 231.374 233.286C230.967 233.449 230.53 233.53 230.091 233.523H116.019C115.621 233.529 115.226 233.455 114.857 233.306C114.489 233.156 114.154 232.934 113.872 232.653C113.591 232.371 113.369 232.036 113.219 231.668C113.07 231.299 112.996 230.904 113.002 230.506V17.6441C112.988 17.2918 113.044 16.9402 113.166 16.6094C113.288 16.2787 113.474 15.9753 113.714 15.7167C113.953 15.4581 114.242 15.2494 114.562 15.1025C114.883 14.9557 115.229 14.8736 115.582 14.861H142.697C143.115 14.8692 143.522 15.002 143.864 15.2425C144.207 15.483 144.47 15.8202 144.62 16.211L145.865 19.228C146.017 19.6172 146.283 19.952 146.627 20.1898C146.97 20.4275 147.377 20.5575 147.795 20.563H198.79C199.205 20.5598 199.609 20.4333 199.951 20.1996C200.294 19.9659 200.559 19.6356 200.713 19.2506L201.958 16.1809C202.107 15.7892 202.37 15.451 202.713 15.2092C203.055 14.9674 203.462 14.8331 203.881 14.8232H230.536C231.332 14.8489 232.086 15.1884 232.633 15.7678C233.18 16.3471 233.475 17.1192 233.455 17.9156Z" fill="#263238"/>
<path d="M233.46 29.0352H113.015V218.478H233.46V29.0352Z" fill="#FF5500"/>
<path opacity="0.7" d="M233.46 29.0352H113.015V218.478H233.46V29.0352Z" fill="white"/>
<path opacity="0.6" d="M127.241 23.9951H128.803V21.921H127.241V23.9951Z" fill="white"/>
<path opacity="0.6" d="M124.697 23.9951H126.259V21.2271H124.697V23.9951Z" fill="white"/>
<path opacity="0.6" d="M122.155 23.9951H123.716V20.5332H122.155V23.9951Z" fill="white"/>
<path opacity="0.6" d="M119.611 23.9951H121.172V19.8393H119.611V23.9951Z" fill="white"/>
<path opacity="0.6" d="M219.505 21.165H218.584V23.2392H219.505V21.165Z" fill="white"/>
<path opacity="0.6" d="M220.14 23.9951H227.501V20.3974H220.14V23.9951Z" fill="white"/>
<path d="M167.271 47.8395H206.906C207.024 47.8506 207.144 47.837 207.256 47.7994C207.369 47.7619 207.472 47.7012 207.56 47.6213C207.648 47.5414 207.718 47.4441 207.766 47.3355C207.814 47.227 207.839 47.1096 207.839 46.991C207.839 46.8723 207.814 46.7549 207.766 46.6464C207.718 46.5378 207.648 46.4405 207.56 46.3606C207.472 46.2807 207.369 46.2201 207.256 46.1825C207.144 46.1449 207.024 46.1313 206.906 46.1424H167.271C167.059 46.1624 166.863 46.2604 166.72 46.4173C166.578 46.5742 166.499 46.7788 166.499 46.991C166.499 47.2031 166.578 47.4077 166.72 47.5646C166.863 47.7215 167.059 47.8195 167.271 47.8395Z" fill="#263238"/>
<path d="M215.944 50.9794H167.069C166.981 50.9697 166.893 50.9786 166.809 51.0055C166.725 51.0324 166.648 51.0766 166.582 51.1353C166.517 51.194 166.464 51.2659 166.428 51.3462C166.393 51.4266 166.374 51.5136 166.374 51.6016C166.374 51.6896 166.393 51.7766 166.428 51.857C166.464 51.9373 166.517 52.0092 166.582 52.0679C166.648 52.1266 166.725 52.1708 166.809 52.1977C166.893 52.2246 166.981 52.2335 167.069 52.2238H215.944C216.097 52.207 216.239 52.1341 216.341 52.0193C216.444 51.9045 216.501 51.7558 216.501 51.6016C216.501 51.4475 216.444 51.2987 216.341 51.1839C216.239 51.0691 216.097 50.9963 215.944 50.9794Z" fill="#263238"/>
<path d="M201.606 54.5487H167.069C166.981 54.539 166.893 54.548 166.809 54.5748C166.725 54.6017 166.648 54.6459 166.582 54.7046C166.517 54.7634 166.464 54.8352 166.428 54.9156C166.393 54.9959 166.374 55.0829 166.374 55.1709C166.374 55.2589 166.393 55.3459 166.428 55.4263C166.464 55.5066 166.517 55.5785 166.582 55.6372C166.648 55.6959 166.725 55.7402 166.809 55.7671C166.893 55.7939 166.981 55.8028 167.069 55.7932H201.606C201.759 55.7763 201.9 55.7035 202.003 55.5886C202.106 55.4738 202.163 55.3251 202.163 55.1709C202.163 55.0168 202.106 54.8681 202.003 54.7532C201.9 54.6384 201.759 54.5656 201.606 54.5487Z" fill="#263238"/>
<path d="M231.572 78H114V195.571H231.572V78Z" fill="#FF5500" fill-opacity="0.51"/>
<g opacity="0.3">
<path opacity="0.7" d="M208.025 87.5205H212.475L210.25 93.2905L208.025 87.5205Z" fill="white"/>
<path opacity="0.7" d="M222.352 116.248L223.702 120.487L217.532 120.11L222.352 116.248Z" fill="white"/>
<path d="M220.625 97.6514L218.513 102.833L224.932 105.073V100.88L220.625 97.6514Z" fill="white"/>
<path d="M137.39 86.125H140.656L137.39 90.4015V86.125Z" fill="white"/>
<path d="M125.111 107.219L128.807 106.374L129.84 109.549L125.578 111.035L125.111 107.219Z" fill="white"/>
<path d="M162.508 90.4085C163.303 90.4085 163.948 89.7636 163.948 88.9679C163.948 88.1723 163.303 87.5273 162.508 87.5273C161.712 87.5273 161.067 88.1723 161.067 88.9679C161.067 89.7636 161.712 90.4085 162.508 90.4085Z" fill="white"/>
<path d="M141.516 185.57C141.516 186.136 141.349 186.689 141.034 187.159C140.72 187.63 140.273 187.996 139.75 188.212C139.227 188.428 138.652 188.484 138.097 188.374C137.543 188.263 137.033 187.99 136.634 187.589C136.234 187.189 135.963 186.679 135.853 186.124C135.744 185.569 135.802 184.994 136.019 184.471C136.237 183.949 136.604 183.503 137.075 183.19C137.546 182.877 138.1 182.71 138.665 182.712C139.04 182.712 139.412 182.786 139.758 182.93C140.105 183.073 140.419 183.284 140.684 183.55C140.949 183.815 141.159 184.13 141.302 184.477C141.444 184.824 141.517 185.195 141.516 185.57Z" fill="white"/>
<path d="M127.754 160.717L128.81 162.504L123.704 164.692L122.542 163.5L127.754 160.717Z" fill="white"/>
<path d="M161.062 189.979L160.066 187.452H163.951L161.062 189.979Z" fill="white"/>
<path d="M202.328 187.456L202.63 184.643L207.955 186.045V190.156L202.328 187.456Z" fill="white"/>
<path d="M213.768 172.947H218.527L216.151 175.761L213.768 172.947Z" fill="white"/>
<path d="M221.601 144.02L220.613 149.993L221.706 150.989L222.732 144.02H221.601Z" fill="white"/>
<path d="M119.49 126.515L123.706 129.577L120.689 131.794L119.49 126.515Z" fill="white"/>
<path d="M138.199 102.272C138.462 102.272 138.674 102.059 138.674 101.796C138.674 101.534 138.462 101.321 138.199 101.321C137.937 101.321 137.724 101.534 137.724 101.796C137.724 102.059 137.937 102.272 138.199 102.272Z" fill="white"/>
<path d="M199.263 96.6028C199.629 96.6028 199.927 96.3057 199.927 95.9391C199.927 95.5725 199.629 95.2754 199.263 95.2754C198.896 95.2754 198.599 95.5725 198.599 95.9391C198.599 96.3057 198.896 96.6028 199.263 96.6028Z" fill="white"/>
<path d="M181.44 186.915C181.44 187.057 181.384 187.194 181.283 187.294C181.183 187.394 181.047 187.451 180.905 187.451C180.763 187.451 180.626 187.394 180.526 187.294C180.426 187.194 180.369 187.057 180.369 186.915C180.369 186.773 180.426 186.637 180.526 186.537C180.626 186.436 180.763 186.38 180.905 186.38C181.047 186.38 181.183 186.436 181.283 186.537C181.384 186.637 181.44 186.773 181.44 186.915Z" fill="white"/>
<path d="M187.724 83.5427L193.034 82.7432V85.3302L187.724 86.1297V83.5427Z" fill="white"/>
<path d="M222.724 86.125H224.466L223.591 88.2595L222.724 86.125Z" fill="white"/>
<path d="M122.542 88.9541H125.113L123.824 90.3947L122.542 88.9541Z" fill="white"/>
<path d="M220.051 189.994L219.802 185.046L223.611 186.388L220.051 189.994Z" fill="white"/>
<path d="M223.695 161.509L221.704 159.918V161.509L223.695 162.709V161.509Z" fill="white"/>
<path d="M121.591 145.602L123.824 147.495L122.708 149.184L119.751 146.816L121.591 145.602Z" fill="white"/>
<path d="M119.754 101.321H122.545L119.49 102.272L119.754 101.321Z" fill="white"/>
</g>
<path d="M156.351 57.3732C156.366 60.3378 155.619 63.2565 154.182 65.8493L153.864 66.3917C152.83 68.1066 151.506 69.6288 149.951 70.8901L149.864 70.9624C148.392 72.1491 146.736 73.0871 144.961 73.7396C143.043 74.4425 141.015 74.8 138.973 74.7955C138.323 74.7994 137.673 74.7632 137.027 74.687C135.943 74.5717 134.872 74.3513 133.831 74.0289C131.294 73.2489 128.972 71.8924 127.047 70.0656C124.942 68.0852 123.362 65.6125 122.449 62.87C121.537 60.1274 121.32 57.2011 121.82 54.3542C122.319 51.5073 123.518 48.8291 125.309 46.5606C127.1 44.292 129.427 42.5043 132.08 41.3582C134.733 40.2121 137.63 39.7435 140.509 39.9947C143.389 40.2458 146.161 41.2088 148.576 42.797C150.99 44.3852 152.973 46.5488 154.344 49.0932C155.715 51.6376 156.432 54.4829 156.431 57.3732H156.351Z" fill="#FF5500"/>
<path d="M154.16 65.8428L153.842 66.3852C149.854 66.3229 145.876 66.7726 142.003 67.7232L140.708 68.0414L139.826 68.2728C138.719 68.5693 137.656 68.8803 136.752 69.1768L136.34 69.3142L136.043 69.4082C134.966 69.7698 134.047 70.0953 133.346 70.3629C132.297 70.7606 131.697 71.021 131.697 71.021C131.354 70.5788 131.04 70.115 130.757 69.6324L130.713 69.5529C129.144 66.9204 126.374 60.8743 127.676 52.1957C129.122 42.5408 137.128 43.1556 139.97 43.6907C140.31 43.747 140.646 43.8242 140.976 43.9222C140.976 43.9222 149.936 46.0339 150.269 51.6172C150.316 52.3645 150.408 53.1083 150.544 53.8447C151.386 57.9445 152.597 61.9601 154.16 65.8428Z" fill="#263238"/>
<path d="M144.938 73.736C143.02 74.4389 140.993 74.7964 138.95 74.7919C138.3 74.7958 137.65 74.7596 137.004 74.6834C135.92 74.5681 134.85 74.3477 133.808 74.0253L133.251 69.4763L132.983 67.3066L144.909 68.999V70.0187L144.945 73.0128V73.736H144.938Z" fill="#FF5500"/>
<path d="M149.827 70.9615C148.355 72.1481 146.699 73.0862 144.924 73.7386C143.006 74.4415 140.978 74.799 138.936 74.7945C138.285 74.7985 137.636 74.7622 136.99 74.6861C135.906 74.5708 134.835 74.3503 133.794 74.0279C131.257 73.248 128.935 71.8915 127.01 70.0647C127.559 69.9779 128.116 69.9128 128.673 69.8405H128.811C129.469 69.7682 130.127 69.7031 130.785 69.6525C131.566 69.5874 132.34 69.5368 133.121 69.5078H133.258L134.213 69.4717H135.348H136.679C138.126 69.4717 139.591 69.5247 141.076 69.6308L142.573 69.7537L143.362 69.8333L144.504 70.0069L144.757 70.043H144.931L146.276 70.2744C146.486 70.3106 146.696 70.3612 146.905 70.3902L147.303 70.4697L147.73 70.5493L148.453 70.6939L148.959 70.7952L149.827 70.9615Z" fill="#263238"/>
<path d="M141.878 73.8924C136.91 73.0463 135.492 70.8477 135.492 70.8477C137.618 69.0107 137.365 66.154 136.939 64.3388C136.802 63.7724 136.618 63.2184 136.389 62.6826L142.355 64.0567C142.182 64.8865 142.069 65.7276 142.016 66.5735C141.97 67.1994 142.002 67.8285 142.11 68.4466C142.442 70.2547 143.469 70.327 143.469 70.327C144.417 72.3881 141.878 73.8924 141.878 73.8924Z" fill="#E4897B"/>
<path opacity="0.2" d="M142.003 66.6165C141.957 67.2424 141.989 67.8714 142.097 68.4896C139.724 68.0701 137.989 66.0885 136.926 64.3818C136.789 63.8153 136.605 63.2614 136.376 62.7256L142.342 64.0997C142.169 64.9295 142.056 65.7705 142.003 66.6165Z" fill="black"/>
<path d="M141.186 47.0098C146.834 47.2557 148.527 50.3583 148.686 56.1946C148.895 63.4846 147.058 68.5833 140.065 66.7319C130.562 64.2078 131.806 46.6048 141.186 47.0098Z" fill="#E4897B"/>
<path d="M145.043 55.7256C145.461 56.5897 145.98 57.4007 146.591 58.1411C146.414 58.3664 146.179 58.5392 145.912 58.6412C145.644 58.7431 145.354 58.7703 145.072 58.7197L145.043 55.7256Z" fill="#DE5753"/>
<path d="M139.233 52.2047C139.169 52.2051 139.107 52.1819 139.059 52.1396C139.034 52.116 139.014 52.0874 139 52.0557C138.987 52.024 138.979 51.9898 138.979 51.9552C138.979 51.9207 138.987 51.8865 139 51.8548C139.014 51.823 139.034 51.7945 139.059 51.7708C139.417 51.4283 139.85 51.1746 140.323 51.0301C140.797 50.8856 141.298 50.8545 141.786 50.9391C141.82 50.9452 141.852 50.9579 141.881 50.9765C141.909 50.9951 141.934 51.0191 141.954 51.0474C141.973 51.0756 141.987 51.1074 141.994 51.1409C142.001 51.1745 142.002 51.2091 141.995 51.2428C141.989 51.2766 141.977 51.3088 141.958 51.3376C141.94 51.3665 141.915 51.3914 141.887 51.4108C141.859 51.4303 141.827 51.4441 141.794 51.4512C141.76 51.4584 141.725 51.4588 141.692 51.4526C141.292 51.3892 140.883 51.4161 140.495 51.5312C140.107 51.6463 139.75 51.8468 139.45 52.1179C139.423 52.1483 139.389 52.172 139.352 52.187C139.314 52.2021 139.273 52.2082 139.233 52.2047Z" fill="#263238"/>
<path d="M148.062 51.9804C148.008 51.9789 147.955 51.9613 147.91 51.9297C147.638 51.6988 147.317 51.5316 146.972 51.4403C146.627 51.3489 146.265 51.3358 145.914 51.4018C145.882 51.4131 145.847 51.4177 145.812 51.4155C145.778 51.4132 145.744 51.404 145.713 51.3885C145.682 51.373 145.654 51.3515 145.632 51.3252C145.609 51.299 145.592 51.2684 145.582 51.2355C145.561 51.1693 145.567 51.0976 145.598 51.0355C145.629 50.9734 145.683 50.9258 145.748 50.9028C146.178 50.8088 146.623 50.814 147.05 50.918C147.478 51.022 147.876 51.2221 148.214 51.5031C148.27 51.5449 148.307 51.6068 148.318 51.6757C148.329 51.7446 148.312 51.815 148.272 51.8719C148.247 51.9044 148.216 51.931 148.179 51.9498C148.143 51.9686 148.103 51.979 148.062 51.9804Z" fill="#263238"/>
<path d="M134.602 56.2754C134.602 56.2754 137.444 51.7481 137.198 48.1464C137.198 48.1464 148.589 44.0531 148.654 55.4364C148.654 55.4364 150.18 45.3982 140.481 44.7546C130.783 44.1109 130.212 58.3221 135.043 62.7698C135.043 62.7698 132.844 59.1031 134.602 56.2754Z" fill="#263238"/>
<path d="M135.471 57.4911C135.443 56.8363 135.158 56.219 134.677 55.7735C134.196 55.328 133.559 55.0901 132.904 55.1117C131.139 55.2274 130.156 58.7856 134.473 59.8343C135.088 59.9862 135.464 59.4293 135.471 57.4911Z" fill="#E4897B"/>
<path d="M145.175 60.3656C144.791 60.9384 144.448 61.5377 144.148 62.1592L143.794 62.0579C142.217 61.5662 141.624 60.8212 141.487 60.1414C141.417 59.8059 141.43 59.4586 141.523 59.1289C141.569 58.941 141.642 58.7607 141.74 58.5938C142.579 59.327 143.565 59.8719 144.633 60.192C144.966 60.3078 145.175 60.3656 145.175 60.3656Z" fill="#263238"/>
<path d="M144.655 60.192L144.337 60.7128C142.89 60.2499 141.864 59.7292 141.538 59.1289C141.584 58.941 141.657 58.7607 141.755 58.5938C142.596 59.3279 143.585 59.8729 144.655 60.192Z" fill="white"/>
<path d="M143.811 62.0708C142.234 61.579 141.641 60.8341 141.504 60.1543C142.102 60.3497 142.661 60.651 143.153 61.0438C143.478 61.3057 143.709 61.6662 143.811 62.0708Z" fill="#DE5753"/>
<path d="M141.05 47.4334C141.05 47.4334 138.374 56.6327 132.53 56.2639C126.687 55.895 136.219 44.5116 136.219 44.5116C136.219 44.5116 145.917 41.3223 150.415 46.5945C154.914 51.8667 148.651 55.4322 148.651 55.4322C148.651 55.4322 149.316 48.2507 141.05 47.4334Z" fill="#263238"/>
<path d="M136.708 55.3495C136.672 55.3491 136.637 55.3378 136.607 55.3172C136.578 55.2965 136.555 55.2675 136.542 55.2338C136.525 55.1905 136.525 55.1424 136.543 55.0993C136.56 55.0561 136.594 55.0215 136.636 55.0024C141.192 53.0497 140.838 46.8373 140.838 46.7722C140.836 46.7254 140.852 46.6797 140.883 46.6446C140.914 46.6095 140.958 46.5879 141.004 46.5842C141.052 46.582 141.098 46.598 141.135 46.6289C141.171 46.6598 141.194 46.7032 141.199 46.7505C141.199 46.8156 141.568 53.2594 136.781 55.3351L136.708 55.3495Z" fill="#263238"/>
<path d="M141.715 55.393C141.766 55.8269 141.571 56.2102 141.281 56.2464C140.992 56.2826 140.71 55.9499 140.659 55.5232C140.609 55.0965 140.804 54.706 141.093 54.6698C141.383 54.6336 141.665 54.9518 141.715 55.393Z" fill="#263238"/>
<path d="M140.985 54.715L141.897 54.2305C141.897 54.2305 141.513 55.1056 140.985 54.715Z" fill="#263238"/>
<path d="M147.129 54.6556C147.18 55.0896 146.985 55.4729 146.695 55.509C146.406 55.5452 146.124 55.2198 146.073 54.7858C146.023 54.3519 146.218 53.9686 146.507 53.9324C146.797 53.8963 147.093 54.2217 147.129 54.6556Z" fill="#263238"/>
<path d="M146.385 53.9777L147.289 53.4932C147.289 53.4932 146.934 54.3827 146.385 53.9777Z" fill="#263238"/>
<path d="M149.926 70.8894L149.839 70.9617C148.367 72.1483 146.711 73.0864 144.936 73.7388V73.2253V73.0011L143.988 71.0846L144.473 69.9419L144.885 68.9873L145.305 69.8986L149.926 70.8894Z" fill="#FF5500"/>
<path opacity="0.6" d="M149.926 70.8894L149.839 70.9617C148.367 72.1483 146.711 73.0864 144.936 73.7388V73.2253V73.0011L143.988 71.0846L144.473 69.9419L144.885 68.9873L145.305 69.8986L149.926 70.8894Z" fill="white"/>
<path d="M139.045 70.9358L137.071 73.4164L136.97 74.6893C135.885 74.574 134.815 74.3536 133.773 74.0312C131.236 73.2512 128.914 71.8948 126.989 70.068L128.631 69.8365H128.768L132.247 69.3447L132.97 67.3125L136.514 69.4243L139.067 70.9503L139.045 70.9358Z" fill="#FF5500"/>
<path opacity="0.6" d="M139.038 70.9372L137.071 73.4178L136.97 74.6907C135.885 74.5754 134.815 74.355 133.773 74.0325C131.236 73.2526 128.914 71.8961 126.989 70.0693L128.768 69.8234L132.247 69.3389L132.97 67.3066L136.514 69.4184L139.038 70.9372Z" fill="white"/>
<path d="M157.553 72.1052C157.553 73.0421 157.275 73.958 156.755 74.737C156.234 75.516 155.495 76.1231 154.629 76.4817C153.763 76.8402 152.811 76.934 151.892 76.7512C150.973 76.5685 150.129 76.1173 149.467 75.4548C148.804 74.7923 148.353 73.9483 148.17 73.0294C147.987 72.1105 148.081 71.158 148.44 70.2924C148.798 69.4268 149.405 68.687 150.184 68.1665C150.963 67.646 151.879 67.3682 152.816 67.3682C154.072 67.3682 155.277 67.8672 156.166 68.7556C157.054 69.644 157.553 70.8489 157.553 72.1052Z" fill="white"/>
<path d="M156.841 72.1062C156.841 72.9058 156.604 73.6874 156.16 74.3523C155.716 75.0171 155.084 75.5353 154.346 75.8413C153.607 76.1473 152.794 76.2273 152.01 76.0713C151.226 75.9153 150.505 75.5303 149.94 74.9649C149.375 74.3995 148.99 73.6792 148.834 72.8949C148.678 72.1107 148.758 71.2979 149.064 70.5591C149.37 69.8204 149.888 69.189 150.553 68.7448C151.217 68.3006 151.999 68.0635 152.799 68.0635C153.871 68.0635 154.899 68.4894 155.657 69.2476C156.415 70.0057 156.841 71.034 156.841 72.1062Z" fill="#263238"/>
<path d="M152.659 74.2288L150.504 72.3267L150.981 71.7843L152.543 73.1584L154.597 70.3379L155.183 70.7646L152.659 74.2288Z" fill="white"/>
<path d="M253.475 216.764C253.475 216.764 249.259 207.572 254.075 198.51C258.892 189.448 260.281 187.314 257.214 185.456C254.148 183.597 252.737 192.688 252.737 192.688C252.737 192.688 250.148 186.418 252.289 179.865C254.43 173.313 255.76 162.631 252.846 161.481C249.931 160.331 252.289 174.803 249.758 179.735C248.468 176.273 247.637 172.658 247.284 168.981C246.93 163.716 247.48 155.305 245.173 153.15C242.866 150.995 241.397 152.484 243.661 164.106C245.022 171.05 245.772 178.099 245.903 185.174C245.903 185.174 240.906 169.928 237.55 169.487C234.194 169.046 234.201 173.978 237.073 178.26C239.944 182.541 245.484 190.214 246.395 194.17C246.395 194.17 240.906 182.7 235.966 186.215C231.026 189.73 240.262 196.658 244.377 199.168C248.492 201.677 251.356 217.364 251.356 217.364L253.475 216.764Z" fill="#FF5500"/>
<path opacity="0.2" d="M253.475 216.764C253.475 216.764 249.259 207.572 254.075 198.51C258.892 189.448 260.281 187.314 257.214 185.456C254.148 183.597 252.737 192.688 252.737 192.688C252.737 192.688 250.148 186.418 252.289 179.865C254.43 173.313 255.76 162.631 252.846 161.481C249.931 160.331 252.289 174.803 249.758 179.735C248.468 176.273 247.637 172.658 247.284 168.981C246.93 163.716 247.48 155.305 245.173 153.15C242.866 150.995 241.397 152.484 243.661 164.106C245.022 171.05 245.772 178.099 245.903 185.174C245.903 185.174 240.906 169.928 237.55 169.487C234.194 169.046 234.201 173.978 237.073 178.26C239.944 182.541 245.484 190.214 246.395 194.17C246.395 194.17 240.906 182.7 235.966 186.215C231.026 189.73 240.262 196.658 244.377 199.168C248.492 201.677 251.356 217.364 251.356 217.364L253.475 216.764Z" fill="black"/>
<path d="M250.136 220.541C250.136 220.541 254.236 211.284 249.311 202.295C244.386 193.305 242.969 191.193 246.021 189.277C249.073 187.36 250.584 196.458 250.584 196.458C250.584 196.458 253.094 190.152 250.881 183.628C248.668 177.105 247.199 166.445 250.099 165.259C253 164.073 250.823 178.573 253.405 183.462C254.653 179.983 255.443 176.355 255.755 172.672C256.037 167.4 255.393 159.003 257.672 156.812C259.95 154.62 261.44 156.088 259.313 167.747C258.037 174.722 257.371 181.795 257.324 188.886C257.324 188.886 262.141 173.569 265.49 173.077C268.838 172.585 268.896 177.517 266.075 181.842C263.255 186.167 257.802 193.92 256.941 197.876C256.941 197.876 262.293 186.304 267.269 189.769C272.244 193.233 263.103 200.277 259.017 202.837C254.931 205.397 252.262 221.142 252.262 221.142L250.136 220.541Z" fill="#FF5500"/>
<path d="M269.075 213.928H235.186L237.927 238.184H266.334L269.075 213.928Z" fill="#263238"/>
<path d="M44.5247 221.75L65.3894 219.703V194.029H73.6485V219.689L94.5711 221.75C95.5737 221.847 96.5041 222.315 97.1808 223.061C97.8574 223.807 98.2317 224.778 98.2306 225.786V228.917H40.8652V225.771C40.8677 224.766 41.2436 223.798 41.9199 223.055C42.5962 222.312 43.5246 221.847 44.5247 221.75Z" fill="#263238"/>
<path opacity="0.1" d="M44.5247 221.75L65.3894 219.703V194.029H73.6485V219.689L94.5711 221.75C95.5737 221.847 96.5041 222.315 97.1808 223.061C97.8574 223.807 98.2317 224.778 98.2306 225.786V228.917H40.8652V225.771C40.8677 224.766 41.2436 223.798 41.9199 223.055C42.5962 222.312 43.5246 221.847 44.5247 221.75Z" fill="white"/>
<path d="M96.8675 238.133C99.8127 237.655 101.813 234.88 101.335 231.934C100.856 228.989 98.0815 226.989 95.1363 227.467C92.1912 227.945 90.1913 230.721 90.6693 233.666C91.1474 236.611 93.9224 238.611 96.8675 238.133Z" fill="#263238"/>
<path d="M48.3863 233.682C48.8644 230.737 46.8644 227.962 43.9193 227.484C40.9742 227.006 38.1991 229.005 37.7211 231.951C37.243 234.896 39.243 237.671 42.1881 238.149C45.1332 238.627 47.9083 236.627 48.3863 233.682Z" fill="#263238"/>
<path d="M72.0571 200.332H66.9295C66.1373 200.332 65.3776 200.017 64.8175 199.457C64.2573 198.897 63.9426 198.137 63.9426 197.345V174.253H75.0439V197.345C75.0439 198.137 74.7293 198.897 74.1691 199.457C73.609 200.017 72.8492 200.332 72.0571 200.332Z" fill="#263238"/>
<path opacity="0.2" d="M72.0571 200.332H66.9295C66.1373 200.332 65.3776 200.017 64.8175 199.457C64.2573 198.897 63.9426 198.137 63.9426 197.345V174.253H75.0439V197.345C75.0439 198.137 74.7293 198.897 74.1691 199.457C73.609 200.017 72.8492 200.332 72.0571 200.332Z" fill="white"/>
<path d="M40.6483 128.974C40.6483 128.974 46.8318 167.6 59.0397 174.254H46.6293C46.6293 174.254 34.3708 161.092 30.668 128.974H40.6483Z" fill="#263238"/>
<path opacity="0.1" d="M40.6483 128.974C40.6483 128.974 46.8318 167.6 59.0397 174.254H46.6293C46.6293 174.254 34.3708 161.092 30.668 128.974H40.6483Z" fill="white"/>
<path d="M46.0204 168.791H94.4179C95.3769 168.791 96.2967 169.172 96.9748 169.85C97.653 170.528 98.0339 171.448 98.0339 172.407V177.245H42.4043V172.407C42.4043 171.448 42.7853 170.528 43.4634 169.85C44.1416 169.172 45.0613 168.791 46.0204 168.791Z" fill="#FF5500"/>
<path d="M98.9075 173.007H41.5494C40.7465 173.007 40.0957 173.658 40.0957 174.46V175.777C40.0957 176.58 40.7465 177.23 41.5494 177.23H98.9075C99.7103 177.23 100.361 176.58 100.361 175.777V174.46C100.361 173.658 99.7103 173.007 98.9075 173.007Z" fill="#263238"/>
<path opacity="0.6" d="M98.9075 173.007H41.5494C40.7465 173.007 40.0957 173.658 40.0957 174.46V175.777C40.0957 176.58 40.7465 177.23 41.5494 177.23H98.9075C99.7103 177.23 100.361 176.58 100.361 175.777V174.46C100.361 173.658 99.7103 173.007 98.9075 173.007Z" fill="white"/>
<path d="M29.1661 136.823H49.0545C54.8402 136.823 58.666 132.151 57.5017 126.387L55.9829 118.692C54.8258 112.907 49.163 108.264 43.3411 108.264H23.4382C17.6525 108.264 13.8267 112.936 14.9911 118.692L16.5315 126.387C17.6525 132.151 23.3442 136.823 29.1661 136.823Z" fill="#FF5500"/>
<path d="M47.8984 98.7393H60.5692L61.7335 106.297L50.4659 108.264L47.8984 98.7393Z" fill="#FF5500"/>
<path d="M132.029 203.735L127.48 205.514L124.211 199.345L121.238 193.74L126.279 190.717L129.324 197.602L132.029 203.735Z" fill="#E4897B"/>
<path opacity="0.2" d="M129.324 197.602L124.211 199.345L121.238 193.74L126.279 190.717L129.324 197.602Z" fill="black"/>
<path d="M128.378 194.237L122.187 197.578C122.187 197.578 98.8059 156.471 95.2115 156.811C91.6171 157.151 57.5103 178.869 47.1105 170.819C36.7107 162.77 46.8284 138.629 46.8284 138.629C46.8284 138.629 67.1507 130.905 69.4867 135.628C70.5114 137.54 71.4242 139.511 72.2205 141.529C72.6761 142.976 73.0233 144.256 73.0233 144.256C73.6814 143.988 94.9294 135.273 104.418 139.916C114.066 144.711 128.378 194.237 128.378 194.237Z" fill="#FF5500"/>
<path opacity="0.3" d="M128.378 194.237L122.187 197.578C122.187 197.578 98.8059 156.471 95.2115 156.811C91.6171 157.151 57.5103 178.869 47.1105 170.819C36.7107 162.77 46.8284 138.629 46.8284 138.629C46.8284 138.629 67.1507 130.905 69.4867 135.628C70.5114 137.54 71.4242 139.511 72.2205 141.529C72.6761 142.976 73.0233 144.256 73.0233 144.256C73.6814 143.988 94.9294 135.273 104.418 139.916C114.066 144.711 128.378 194.237 128.378 194.237Z" fill="white"/>
<path d="M94.7772 227.746L89.9244 227.189L89.9027 220.348L89.8955 214.063L95.7608 213.788L95.2401 221.179L94.7772 227.746Z" fill="#E4897B"/>
<path opacity="0.2" d="M95.227 221.329L89.8896 220.476V214.133L95.7549 213.822L95.227 221.329Z" fill="black"/>
<path d="M119.18 195.517L128.234 190.982L129.175 194.815L122.318 198.352L119.18 195.517Z" fill="#263238"/>
<path d="M63.2051 170.891C63.2051 170.891 64.6949 170.725 87.5629 166.487C87.5629 166.487 88.0836 195.741 89.1685 217.538L96.2126 217.77C96.2126 217.77 106.338 169.372 105.13 162.082C103.922 154.792 95.2435 153.787 95.2435 153.787C95.2435 153.787 80.1211 165.503 63.2051 170.891Z" fill="#FF5500"/>
<path opacity="0.4" d="M63.2051 170.891C63.2051 170.891 64.6949 170.725 87.5629 166.487C87.5629 166.487 88.0836 195.741 89.1685 217.538L96.2126 217.77C96.2126 217.77 106.338 169.372 105.13 162.082C103.922 154.792 95.2435 153.787 95.2435 153.787C95.2435 153.787 80.1211 165.503 63.2051 170.891Z" fill="white"/>
<path opacity="0.3" d="M63.2051 170.891C63.2051 170.891 64.6949 170.725 87.5629 166.487C87.5629 166.487 88.0836 195.741 89.1685 217.538L96.2126 217.77C96.2126 217.77 106.338 169.372 105.13 162.082C103.922 154.792 95.2435 153.787 95.2435 153.787C95.2435 153.787 80.1211 165.503 63.2051 170.891Z" fill="black"/>
<path d="M87.8477 215.606L97.4519 215.382L96.1429 219.338L88.3467 219.41L87.8477 215.606Z" fill="#263238"/>
<path opacity="0.3" d="M73.0385 144.264L60.5703 148.704C60.5703 148.704 67.1299 143.808 72.2358 141.537C72.6914 143.012 73.0385 144.264 73.0385 144.264Z" fill="black"/>
<path d="M46.0246 136.901L45.8438 140.604L69.2108 135.65L68.6684 131.563L46.0246 136.901Z" fill="#263238"/>
<path opacity="0.2" d="M46.0246 136.901L45.8438 140.604L69.2108 135.65L68.6684 131.563L46.0246 136.901Z" fill="black"/>
<path d="M53.1242 134.646L51.958 134.862L53.0569 140.786L54.2231 140.569L53.1242 134.646Z" fill="#FF5500"/>
<path d="M63.3294 133.148L58.2285 134.298L59.0998 138.164L64.2007 137.015L63.3294 133.148Z" fill="white"/>
<path d="M67.3137 131.157L66.1475 131.373L67.2453 137.297L68.4115 137.08L67.3137 131.157Z" fill="#FF5500"/>
<path opacity="0.3" d="M53.1242 134.646L51.958 134.862L53.0569 140.786L54.2231 140.569L53.1242 134.646Z" fill="white"/>
<path opacity="0.3" d="M67.3137 131.157L66.1475 131.373L67.2453 137.297L68.4115 137.08L67.3137 131.157Z" fill="white"/>
<path d="M141.071 211.791C140.311 211.558 139.514 211.467 138.721 211.524C138.721 211.524 135.792 210.302 132.212 204.458L129.181 204.856C128.671 204.933 128.197 205.165 127.823 205.521C127.449 205.877 127.194 206.339 127.091 206.845C127.066 206.986 127.066 207.13 127.091 207.271C127.218 208.006 127.395 208.73 127.619 209.441C128.396 211.789 129.314 214.088 130.367 216.326L130.866 216.123L129.312 211.734C128.791 210.244 130.606 211.502 131.568 212.949C132.53 214.395 133.889 215.791 137.129 214.569C140.897 213.1 142.387 212.319 141.071 211.791Z" fill="#FF5500"/>
<path d="M131.475 202.917C131.475 202.917 136.342 210.301 138.707 211.53C138.707 211.53 136.031 213.7 132.459 210.214C127.845 205.752 127.078 207.278 127.078 207.278C127.037 206.403 127.078 205.527 127.201 204.66C127.584 202.968 131.475 202.917 131.475 202.917Z" fill="#E4897B"/>
<path d="M102.032 236.363C101.347 235.959 100.595 235.683 99.8114 235.546C99.8114 235.546 97.2512 233.658 95.1901 227.149L92.1526 226.816C91.6361 226.769 91.1175 226.882 90.6681 227.141C90.2186 227.4 89.8605 227.792 89.643 228.263C89.5781 228.392 89.5342 228.532 89.5128 228.675C89.4658 229.412 89.4658 230.151 89.5128 230.888C89.713 233.351 90.0608 235.8 90.5543 238.221L91.0822 238.142L90.6121 233.513C90.4603 231.937 91.9284 233.593 92.5214 235.227C93.1145 236.862 94.098 238.54 97.5333 238.12C101.547 237.592 103.182 237.187 102.032 236.363Z" fill="#FF5500"/>
<path d="M94.8062 225.453C94.8062 225.453 97.7859 233.785 99.8109 235.542C99.8109 235.542 96.7011 236.989 94.0252 232.787C90.5971 227.348 89.4834 228.657 89.4834 228.657C89.6465 227.798 89.8886 226.955 90.2066 226.14C91.0166 224.578 94.8062 225.453 94.8062 225.453Z" fill="#E4897B"/>
<path d="M59.0624 73.1795C59.0624 73.1795 47.6429 67.6324 43.8749 79.58C40.107 91.5275 44.938 99.7721 44.938 99.7721C44.938 99.7721 58.1512 96.3875 69.2742 98.7524C69.2742 98.7524 66.8731 88.5695 67.4517 82.7259C68.0303 76.8824 59.0624 73.1795 59.0624 73.1795Z" fill="#263238"/>
<path d="M67.9834 100.22C70.493 100.328 81.0013 114.453 81.0013 114.453L84.9066 109.39C84.9066 109.39 90.9238 121.084 87.9441 126.653C84.9645 132.222 69.2707 117.006 69.2707 117.006L67.9834 100.22Z" fill="#FF5500"/>
<path opacity="0.6" d="M67.9766 100.22L69.0035 111.509L69.2639 117.013C69.2639 117.013 71.8458 119.515 75.1075 122.119C79.9024 125.944 86.1654 129.98 87.9373 126.668C90.9169 121.106 84.8925 109.405 84.8925 109.405L80.9944 114.467V114.424C80.3869 113.556 70.4066 100.328 67.9766 100.22Z" fill="white"/>
<path opacity="0.2" d="M68.998 111.505L69.2584 117.008C69.2584 117.008 71.8403 119.511 75.102 122.114C75.413 115.504 69.2584 105.878 69.2584 105.878L68.998 111.505Z" fill="black"/>
<path opacity="0.2" d="M81.0054 114.463L80.4413 115.541L82.0757 121.905C82.0757 121.905 77.5629 117.797 80.4413 113.776L81.0054 114.463Z" fill="black"/>
<path d="M69.2935 112.82C69.2935 112.994 69.2935 113.175 69.2935 113.356C69.2935 114.137 69.2935 114.961 69.2429 115.836C69.2429 115.909 69.2429 115.981 69.2429 116.06C69.2429 116.531 69.2429 117.015 69.2429 117.507C69.2429 117.594 69.2429 117.673 69.2429 117.76C69.2429 118.483 69.1923 119.206 69.1634 119.93C69.1634 120.031 69.1634 120.132 69.1634 120.233C69.1634 121.217 69.0838 122.251 69.0332 123.343C68.9175 125.795 68.7801 128.514 68.6065 131.53L68.281 131.61L46.1869 136.846H46.1001C46.1001 136.846 46.9896 125.028 45.4636 118.339C45.4526 118.28 45.4381 118.222 45.4202 118.165C45.4202 118.064 45.3769 117.962 45.3479 117.861C45.319 117.76 45.2467 117.485 45.2033 117.29C45.1599 117.095 45.102 116.899 45.0442 116.697C44.8489 115.974 44.6392 115.25 44.415 114.455C44.2703 113.934 44.1112 113.399 43.9449 112.849L43.8581 112.575C43.6628 111.924 43.4531 111.251 43.2361 110.557C43.1711 110.354 43.1132 110.159 43.0481 109.949C42.7299 108.958 42.39 107.91 42.0211 106.811C41.6161 105.571 41.1726 104.258 40.6904 102.869C43.2242 102.061 45.8064 101.414 48.4216 100.931L49.5426 100.728L50.7286 100.533C52.7102 100.215 54.7135 99.9906 56.7169 99.846C57.522 99.7881 58.3248 99.7447 59.1252 99.7158C59.6097 99.7158 60.1087 99.7158 60.5716 99.7158H60.7741L62.2205 99.7592H62.8931H63.3198H63.7827L64.5059 99.8026H65.0555L66.0463 99.8677L66.4369 99.9039H66.784H67.1022H67.3626L67.9918 99.9617C67.9918 99.9617 67.9918 99.9617 68.0496 99.9617L68.1002 100.012C68.1486 100.07 68.1899 100.133 68.2232 100.2C68.4454 100.671 68.6035 101.17 68.6933 101.683C68.6933 101.828 68.7511 101.987 68.7873 102.16C68.8235 102.334 68.8741 102.703 68.9247 103.021C68.9753 103.339 68.9898 103.484 69.0187 103.744C69.0477 104.004 69.0694 104.214 69.091 104.467C69.305 107.246 69.3726 110.034 69.2935 112.82Z" fill="#263238"/>
<path d="M57.2957 104.494C52.0307 103.821 50.4541 101.565 50.4541 101.565C52.6237 99.5398 52.2115 96.553 51.6619 94.6871C51.4964 94.0951 51.2786 93.5191 51.011 92.9658L57.3463 94.1519C57.199 95.0318 57.1168 95.9213 57.1004 96.8133C57.0766 97.4717 57.1374 98.1303 57.2812 98.7732C57.7079 100.668 58.7855 100.697 58.7855 100.697C59.8993 102.773 57.2957 104.494 57.2957 104.494Z" fill="#E4897B"/>
<path opacity="0.2" d="M57.0934 96.8133C57.0696 97.4717 57.1303 98.1303 57.2742 98.7732C54.7574 98.4478 52.8553 96.43 51.6548 94.6871C51.4894 94.0951 51.2716 93.5191 51.0039 92.9658L57.3393 94.1519C57.1919 95.0318 57.1098 95.9213 57.0934 96.8133Z" fill="black"/>
<path d="M58.7809 76.3952C64.61 77.5813 65.8467 81.0889 65.0511 87.1784C64.0531 94.7938 61.3049 99.784 54.3403 96.6959C44.8952 92.5012 49.1043 74.4208 58.7809 76.3952Z" fill="#E4897B"/>
<path d="M61.3593 86.0791C61.6497 87.0451 62.0552 87.9727 62.5671 88.8418C62.3465 89.046 62.074 89.1857 61.7794 89.2456C61.4848 89.3055 61.1794 89.2834 60.8965 89.1817L61.3593 86.0791Z" fill="#DE5753"/>
<path d="M55.9912 81.4698C55.9527 81.4696 55.9147 81.4611 55.8797 81.4449C55.8448 81.4287 55.8137 81.4051 55.7887 81.3758C55.7636 81.3521 55.7435 81.3235 55.7298 81.2918C55.7161 81.2601 55.709 81.2259 55.709 81.1913C55.709 81.1568 55.7161 81.1226 55.7298 81.0909C55.7435 81.0592 55.7636 81.0306 55.7887 81.0069C56.2148 80.7109 56.7046 80.5193 57.2185 80.4477C57.7324 80.376 58.2559 80.4264 58.7467 80.5947C58.779 80.6061 58.8087 80.6237 58.8342 80.6466C58.8596 80.6695 58.8804 80.6972 58.8951 80.7281C58.9099 80.759 58.9184 80.7925 58.9203 80.8267C58.9221 80.8609 58.9172 80.8951 58.9058 80.9274C58.8944 80.9597 58.8767 80.9894 58.8539 81.0149C58.831 81.0403 58.8033 81.061 58.7724 81.0758C58.7415 81.0906 58.708 81.0991 58.6738 81.101C58.6396 81.1028 58.6054 81.0979 58.5731 81.0865C58.1658 80.9561 57.7347 80.9177 57.3107 80.974C56.8868 81.0303 56.4806 81.1798 56.1214 81.4119C56.0835 81.4418 56.0388 81.4617 55.9912 81.4698Z" fill="#263238"/>
<path d="M65.1556 82.6731C65.0873 82.6714 65.0223 82.6428 64.9748 82.5936C64.7263 82.3083 64.4179 82.0814 64.0716 81.9289C63.7254 81.7764 63.3498 81.7021 62.9715 81.7112C62.9377 81.7174 62.903 81.7166 62.8695 81.7089C62.836 81.7012 62.8044 81.6868 62.7766 81.6665C62.7489 81.6462 62.7256 81.6205 62.7081 81.5908C62.6906 81.5612 62.6794 81.5284 62.675 81.4943C62.6688 81.4605 62.6696 81.4257 62.6773 81.3922C62.685 81.3587 62.6994 81.3271 62.7197 81.2994C62.74 81.2716 62.7658 81.2483 62.7954 81.2308C62.825 81.2134 62.8579 81.2021 62.892 81.1978C63.3519 81.1703 63.8121 81.2485 64.2371 81.4266C64.6621 81.6046 65.0406 81.8776 65.3437 82.2247C65.3679 82.2489 65.3872 82.2776 65.4003 82.3093C65.4135 82.3409 65.4202 82.3749 65.4202 82.4091C65.4202 82.4434 65.4135 82.4773 65.4003 82.509C65.3872 82.5406 65.3679 82.5694 65.3437 82.5936C65.2935 82.6432 65.2262 82.6717 65.1556 82.6731Z" fill="#263238"/>
<path d="M50.43 84.9023C50.43 84.9023 54.1328 80.6715 54.4727 76.8891C54.4727 76.8891 66.9771 74.5314 65.1618 86.3705C65.1618 86.3705 68.4091 76.1876 58.4432 73.9167C48.4773 71.6458 45.5266 86.3054 49.808 91.7222C49.808 91.7222 48.1301 87.5565 50.43 84.9023Z" fill="#263238"/>
<path d="M51.129 86.3277C51.1694 85.9882 51.1425 85.644 51.0498 85.3149C50.9572 84.9858 50.8006 84.6781 50.5891 84.4095C50.3775 84.1408 50.1152 83.9165 49.8169 83.7493C49.5187 83.5821 49.1904 83.4752 48.8509 83.4349C47.0067 83.2613 45.3867 86.7906 49.697 88.5986C50.319 88.859 50.8108 88.3021 51.129 86.3277Z" fill="#E4897B"/>
<path d="M60.7348 90.9308C60.2393 91.464 59.7825 92.032 59.3679 92.6303L59.0208 92.4567C57.4587 91.6901 56.9886 90.8223 56.9379 90.0918C56.9253 89.7307 56.9971 89.3716 57.1477 89.0432C57.2272 88.8563 57.3318 88.6811 57.4587 88.5225C58.2075 89.4354 59.1451 90.1755 60.2069 90.6921C60.5323 90.8367 60.7348 90.9308 60.7348 90.9308Z" fill="#263238"/>
<path d="M60.1871 90.6632L59.7749 91.155C58.3285 90.4317 57.3666 89.7085 57.1279 89.0432C57.2074 88.8563 57.3121 88.6811 57.4389 88.5225C58.1908 89.4249 59.1281 90.155 60.1871 90.6632Z" fill="white"/>
<path d="M59.0204 92.4694C57.4582 91.7028 56.9881 90.8349 56.9375 90.1045C57.53 90.4016 58.0622 90.8063 58.5069 91.2978C58.798 91.624 58.9778 92.0343 59.0204 92.4694Z" fill="#DE5753"/>
<path d="M58.5738 76.8044C58.5738 76.8044 54.2345 85.9169 48.2608 84.5645C42.287 83.2121 54.0465 72.993 54.0465 72.993C54.0465 72.993 64.6561 71.2646 68.4457 77.5276C72.2353 83.7906 65.1478 86.4231 65.1478 86.4231C65.1478 86.4231 67.0282 79.0319 58.5738 76.8044Z" fill="#263238"/>
<path d="M52.7944 84.3189C52.7547 84.3173 52.7164 84.3031 52.6853 84.2784C52.6541 84.2537 52.6315 84.2198 52.6208 84.1814C52.6144 84.1586 52.6126 84.1348 52.6158 84.1113C52.6189 84.0878 52.6268 84.0651 52.639 84.0448C52.6512 84.0245 52.6674 84.0069 52.6867 83.9931C52.706 83.9792 52.7278 83.9695 52.751 83.9645C57.8135 82.6844 58.4789 76.1682 58.4861 76.1031C58.4916 76.0564 58.515 76.0137 58.5515 75.984C58.5879 75.9543 58.6345 75.94 58.6814 75.944C58.7053 75.9447 58.7287 75.9505 58.7502 75.9611C58.7716 75.9717 58.7905 75.9867 58.8056 76.0052C58.8207 76.0238 58.8317 76.0453 58.8377 76.0685C58.8437 76.0916 58.8446 76.1158 58.8405 76.1393C58.8405 76.2044 58.1173 82.9737 52.8378 84.3116L52.7944 84.3189Z" fill="#263238"/>
<path d="M57.9432 85.1931C57.9432 85.6559 57.6612 86.0175 57.3574 86.0103C57.0537 86.0031 56.8078 85.6125 56.8295 85.1497C56.8512 84.6868 57.1115 84.318 57.4225 84.3324C57.7335 84.3469 57.9649 84.7519 57.9432 85.1931Z" fill="#263238"/>
<path d="M57.2949 84.3554L58.3147 84.001C58.3147 84.001 57.7795 84.8327 57.2949 84.3554Z" fill="#263238"/>
<path d="M63.7115 85.3333C63.7115 85.7962 63.4222 86.165 63.1184 86.1505C62.8147 86.1361 62.576 85.7528 62.5905 85.2899C62.6049 84.8271 62.8725 84.4654 63.1835 84.4799C63.4945 84.4944 63.7259 84.8704 63.7115 85.3333Z" fill="#263238"/>
<path d="M63.0566 84.4804L64.0764 84.126C64.0764 84.126 63.5412 84.9504 63.0566 84.4804Z" fill="#263238"/>
<path d="M71.8145 109.534C71.8039 109.612 71.8104 109.69 71.8334 109.765C71.8564 109.839 71.8955 109.908 71.9479 109.966C72.0003 110.024 72.0647 110.07 72.1366 110.1C72.2085 110.13 72.2862 110.145 72.3642 110.142H78.4102C78.5773 110.135 78.7371 110.072 78.8624 109.961C78.9876 109.85 79.0707 109.699 79.0973 109.534L80.4425 97.6011C80.4602 97.5174 80.4599 97.4308 80.4414 97.3472C80.423 97.2636 80.3869 97.1849 80.3355 97.1164C80.2841 97.0479 80.2187 96.9911 80.1436 96.95C80.0685 96.9089 79.9854 96.8843 79.9001 96.8779H73.854C73.6731 96.8994 73.5054 96.9835 73.38 97.1156C73.2545 97.2476 73.1792 97.4194 73.1669 97.6011L71.8145 109.534Z" fill="#263238"/>
<path opacity="0.5" d="M73.8266 97.521L72.4525 109.57C72.4354 109.64 72.4351 109.713 72.4515 109.784C72.4679 109.855 72.5007 109.92 72.5471 109.976C72.5935 110.031 72.6523 110.075 72.7188 110.104C72.7853 110.133 72.8576 110.145 72.9299 110.141H78.0575C78.4046 110.141 79.0338 109.953 79.07 109.613L80.4441 97.521C80.4441 97.1811 79.8944 96.9062 79.5473 96.9062H74.4197C74.261 96.9136 74.1112 96.9814 74.001 97.0957C73.8907 97.21 73.8283 97.3622 73.8266 97.521Z" fill="white"/>
<path d="M84.4827 110.537L81.3295 105.186C81.3543 104.022 81.2647 102.86 81.0619 101.714C80.7871 101.049 77.699 99.5445 77.0915 99.7759C76.484 100.007 76.267 105.518 76.8167 106.285C77.3663 107.051 79.2973 107.854 79.2973 107.854L79.1671 108.903L81.0113 114.472L84.4827 110.537Z" fill="#E4897B"/>
<path d="M85.7414 109.943L84.6999 108.895L79.7314 114.463L80.4402 116.669L85.7414 109.943Z" fill="#FF5500"/>
<path d="M60.5618 98.7393L59.9326 101.054L61.2127 102.934L64.0477 129.375L71.8078 128.232C71.2726 107.628 71.0846 107.519 68.0905 100.106L61.1404 99.6216L60.5618 98.7393Z" fill="#FF5500"/>
<path opacity="0.6" d="M60.5618 98.7393L59.9326 101.054L61.2127 102.934L64.0477 129.375L71.8078 128.232C71.2726 107.628 71.0846 107.519 68.0905 100.106L61.1404 99.6216L60.5618 98.7393Z" fill="white"/>
<path d="M47.8815 98.7393L54.7737 101.632L53.0814 104.525L54.752 131.595L44.3088 134.654C44.3088 134.654 36.7295 114.766 40.6132 102.963L47.4548 100.988L47.8815 98.7393Z" fill="#FF5500"/>
<path opacity="0.6" d="M54.4849 127.285L54.7525 131.573L50.095 132.933L44.3092 134.625C42.1716 128.743 40.6779 122.647 39.8542 116.444C39.2974 111.735 39.3118 106.883 40.6136 102.934L47.4552 100.96L47.8819 98.7393L54.7741 101.632L53.0818 104.525L53.7472 115.272L54.4849 127.285Z" fill="white"/>
<path opacity="0.2" d="M60.6109 118.835C60.6109 118.835 58.0146 122.618 54.4998 127.29C53.1401 129.098 51.6069 131.036 50.1099 132.938L44.3241 134.63C42.1865 128.749 40.6928 122.653 39.8691 116.449C42.7041 113.607 46.1756 110.164 46.1756 110.164C46.1756 110.164 47.7667 115.082 47.0651 119.356L53.7621 115.255L55.845 113.983L60.6109 118.835Z" fill="black"/>
<path d="M54.958 115.768L62.1251 110.142C62.5402 108.925 63.0504 107.742 63.651 106.605C64.085 106.077 70.3697 103.763 70.8832 103.712C71.3967 103.662 70.8832 108.862 70.0949 109.744C69.3066 110.626 64.2513 112.376 64.2513 112.376L56.7588 119.457L54.958 115.768Z" fill="#E4897B"/>
<path d="M40.6308 102.929C36.4217 105.04 34.5486 128.805 41.8603 132.906C49.172 137.007 60.0853 118.442 60.0853 118.442L55.84 113.936C55.84 113.936 46.9445 121.385 45.8741 120.698C44.8037 120.011 46.0187 112.743 46.0187 112.743C46.0187 112.743 47.2699 110.573 44.6374 107.08C42.0049 103.587 40.6308 102.929 40.6308 102.929Z" fill="#FF5500"/>
<path opacity="0.6" d="M40.6308 102.929C36.4217 105.04 34.5486 128.805 41.8603 132.906C49.172 137.007 60.0853 118.442 60.0853 118.442L55.84 113.936C55.84 113.936 46.9445 121.385 45.8741 120.698C44.8037 120.011 46.0187 112.743 46.0187 112.743C46.0187 112.743 47.2699 110.573 44.6374 107.08C42.0049 103.587 40.6308 102.929 40.6308 102.929Z" fill="white"/>
<path d="M60.1466 120.129L61.4195 119.362L56.6535 112.376L54.9033 113.352L60.1466 120.129Z" fill="#FF5500"/>
<path d="M186.163 168.461C184.033 168.083 182.103 167.706 180.172 167.44C179.595 167.373 178.907 167.484 178.419 167.751C176.91 168.594 175.423 169.504 174.003 170.524C173.182 171.101 172.605 171.035 171.829 170.502C170.431 169.526 168.988 168.616 167.524 167.795C166.991 167.507 166.259 167.396 165.66 167.462C163.907 167.684 162.154 168.017 160.423 168.35C159.757 168.483 159.336 168.328 158.958 167.728C158.248 166.619 157.316 165.62 156.695 164.444C155.852 162.913 154.654 162.137 152.967 161.915C151.658 161.737 150.371 161.316 149.062 161.071C148.329 160.938 147.997 160.561 147.863 159.851C147.553 158.231 147.109 156.611 146.821 154.969C146.643 153.971 146.11 153.327 145.312 152.795C143.958 151.885 142.649 150.908 141.317 149.999C140.74 149.599 140.496 149.178 140.652 148.423C140.962 147.025 141.073 145.561 141.451 144.185C141.828 142.765 141.539 141.611 140.718 140.457C139.875 139.259 139.121 137.972 138.3 136.751C137.9 136.174 137.9 135.73 138.3 135.154C139.298 133.689 140.274 132.202 141.14 130.649C141.473 130.05 141.628 129.251 141.561 128.585C141.362 126.854 141.007 125.146 140.674 123.459C140.541 122.794 140.63 122.372 141.229 121.973C142.826 120.908 144.402 119.798 145.933 118.644C146.31 118.356 146.599 117.845 146.71 117.402C147.153 115.604 147.553 113.807 147.908 111.987C148.041 111.322 148.352 110.989 149.04 110.856C150.704 110.545 152.346 110.123 154.032 109.79C154.92 109.613 155.563 109.191 156.074 108.415C157.006 107.039 158.026 105.73 158.914 104.309C159.38 103.577 159.89 103.444 160.667 103.599C162.398 103.932 164.151 104.265 165.904 104.509C166.392 104.576 167.013 104.465 167.457 104.221C168.988 103.333 170.497 102.401 171.962 101.38C172.738 100.848 173.293 100.892 174.025 101.403C175.49 102.401 176.999 103.355 178.53 104.221C178.974 104.465 179.573 104.576 180.083 104.509C181.881 104.265 183.656 103.932 185.431 103.577C186.141 103.444 186.629 103.577 187.029 104.199C187.628 105.175 188.449 106.018 188.959 107.039C189.936 109.036 191.556 109.879 193.664 110.145C194.795 110.279 195.905 110.634 197.014 110.856C197.658 110.989 197.924 111.322 198.057 111.943C198.412 113.718 198.767 115.493 199.255 117.246C199.411 117.823 199.832 118.422 200.321 118.8C201.719 119.887 203.183 120.885 204.648 121.884C205.225 122.283 205.469 122.683 205.313 123.437C204.936 125.212 204.625 126.988 204.404 128.785C204.337 129.34 204.492 130.05 204.759 130.538C205.624 132.047 206.556 133.511 207.532 134.932C208.02 135.642 208.065 136.174 207.554 136.907C206.556 138.327 205.624 139.791 204.759 141.3C204.47 141.788 204.337 142.476 204.404 143.053C204.625 144.851 204.958 146.626 205.313 148.401C205.469 149.111 205.291 149.555 204.67 149.954C203.183 150.931 201.741 151.929 200.343 153.016C199.832 153.416 199.411 154.082 199.255 154.703C198.789 156.412 198.434 158.142 198.079 159.895C197.946 160.517 197.68 160.85 197.036 161.005C195.195 161.404 193.353 161.782 191.533 162.27C191.023 162.403 190.468 162.78 190.158 163.202C189.048 164.666 188.027 166.22 186.94 167.706C186.674 168.061 186.363 168.283 186.163 168.461ZM173.049 111.011C159.225 110.989 148.063 122.106 148.019 135.93C147.974 149.577 159.136 160.805 172.605 160.96C186.208 161.094 197.835 150.221 197.902 136.086C197.968 122.239 186.829 111.033 173.049 111.011Z" fill="#008241"/>
<path d="M172.983 114.716C184.899 114.761 194.241 124.213 194.197 136.129C194.152 147.979 184.611 157.299 172.65 157.232C160.934 157.143 151.658 147.602 151.725 135.641C151.792 124.08 161.355 114.65 172.983 114.716ZM159.225 139.48C162.953 142.698 166.548 145.782 170.276 148.977C175.779 141.744 181.215 134.598 186.741 127.298C184.721 125.833 182.791 124.413 180.772 122.926C176.822 128.008 172.961 133.023 169.011 138.127C167.524 136.84 166.126 135.641 164.75 134.443C164.351 134.11 163.996 133.866 163.552 134.399C162.132 136.085 160.712 137.727 159.225 139.48Z" fill="#008241"/>
</g>
<defs>
<clipPath id="clip0_253_21576">
<rect width="304.688" height="250" fill="white" transform="translate(0.15625 0.5)"/>
</clipPath>
</defs>
</svg>
