<svg width="137" height="120" viewBox="0 0 137 120" fill="none" xmlns="http://www.w3.org/2000/svg">
<path d="M82.6583 32.8326C84.9206 33.1269 87.2218 33.0388 89.45 32.5726C90.0761 31.3669 90.4829 30.074 90.654 28.7459C90.8847 25.2458 90.5387 24.8324 89.1327 21.0723C89.1219 21.0463 89.1032 21.0238 89.0789 21.0072C89.0547 20.9907 89.0258 20.9809 88.9958 20.979C86.8341 20.873 84.6705 21.1514 82.6223 21.799C82.5721 21.813 82.5297 21.8444 82.5042 21.8867C82.4786 21.929 82.4718 21.9788 82.4853 22.0257C84.0574 25.4707 84.1195 29.3461 82.6583 32.8326ZM88.9309 21.259C90.5747 25.5191 91.5192 27.6725 89.3851 32.4726C87.2221 32.966 83.2711 32.846 82.7088 32.8193C84.2945 29.4302 84.3851 25.6023 82.9611 22.1524C84.8773 21.5269 86.8992 21.2243 88.9309 21.259ZM85.0808 39.7728C82.7592 41.8462 86.977 43.8663 88.7723 40.6729C89.9979 38.4595 86.8328 38.1861 85.0808 39.7728ZM88.729 39.6062C89.1976 40.9929 86.4435 42.9396 85.0231 41.8196C86.2921 42.1596 88.455 40.7729 88.6857 39.6062H88.729ZM88.1594 40.2728C87.3447 41.3129 85.3908 42.1062 84.7564 41.5062C83.2928 39.3728 90.2503 37.6061 88.1306 40.2862L88.1594 40.2728ZM102.19 44.313C105.86 42.3129 110.762 42.8529 113.408 44.7996C113.48 44.853 113.625 44.7996 113.581 44.7063C112.594 41.9596 114.446 39.3728 116.004 37.1994C116.015 37.1838 116.022 37.166 116.024 37.1475C116.026 37.129 116.023 37.1102 116.016 37.0928C116.009 37.0753 115.998 37.0596 115.983 37.0469C115.969 37.0341 115.951 37.0247 115.932 37.0194C110.488 35.8661 105.211 36.9261 102.269 38.8661C101.389 39.4528 101.346 41.4795 101.49 42.5529C101.586 43.1788 101.824 43.7787 102.19 44.313ZM102.413 39.1195C105.261 37.1194 111.007 36.0261 115.679 37.2128C114.129 39.3128 112.507 41.8796 113.286 44.4863C110.085 42.3396 104.966 42.3196 102.19 44.1929C101.303 42.8596 101.505 39.6928 102.384 39.1195H102.413Z" fill="#344055"/>
<path d="M108.354 40.9402C110.279 40.2735 109.709 38.6535 108.765 38.5268C107.828 38.3747 106.864 38.5712 106.083 39.0735C104.425 40.2135 105.463 41.9802 108.354 40.9402ZM11.3743 90.2015C13.5877 90.0015 13.9626 86.8681 11.8646 86.6814C9.7665 86.4948 9.37717 90.3749 11.3743 90.2015ZM12.4125 87.1481C13.977 88.1148 12.1169 90.8349 10.7975 89.7082C9.80976 88.8615 10.8768 86.1948 12.4125 87.1481ZM22.5495 98.4284C22.5495 98.4726 22.5685 98.515 22.6023 98.5463C22.6361 98.5775 22.682 98.5951 22.7298 98.5951C22.7776 98.5951 22.8234 98.5775 22.8572 98.5463C22.8911 98.515 22.91 98.4726 22.91 98.4284C22.937 97.8 23.1138 97.1849 23.4279 96.627C23.742 96.0692 24.1856 95.5825 24.7269 95.2017C24.7538 95.1843 24.7743 95.1597 24.7855 95.1312C24.7966 95.1027 24.7979 95.0717 24.7892 95.0424C24.7805 95.0132 24.7622 94.9871 24.7369 94.9679C24.7115 94.9487 24.6803 94.9372 24.6476 94.935C24.0059 94.935 22.6 94.3283 22.2467 92.5749C22.2467 92.4083 21.9656 92.3616 21.9295 92.5283C21.6844 93.755 21.2085 95.115 19.6728 95.3617C19.6371 95.3715 19.6058 95.3918 19.5835 95.4194C19.5612 95.447 19.5492 95.4806 19.5492 95.515C19.5492 95.5495 19.5612 95.583 19.5835 95.6106C19.6058 95.6383 19.6371 95.6585 19.6728 95.6684C21.0499 95.8417 22.5712 97.0684 22.5495 98.4284ZM22.0377 93.4083C22.2612 94.3217 23.6959 95.0817 24.2655 95.175C23.4969 95.7717 22.9497 96.576 22.701 97.4751C22.4798 97.0086 22.1559 96.5898 21.75 96.2454C21.3441 95.9011 20.865 95.6387 20.3433 95.475C20.7689 95.2623 21.1403 94.9678 21.4326 94.6114C21.7248 94.2549 21.9311 93.8447 22.0377 93.4083ZM7.40167 98.1884C8.73549 96.0684 5.2964 94.6083 4.46006 97.7817C3.99863 99.5018 6.37067 99.8285 7.40167 98.1884ZM5.05126 97.1351C6.07506 95.3483 7.97846 96.4684 7.25748 97.9551C6.49323 99.5818 3.78233 99.3885 5.05126 97.1351ZM9.4709 112.989C9.10024 112.448 8.6263 111.973 8.07219 111.589C8.60572 105.055 5.05127 104.855 3.79675 106.775C3.21276 107.669 3.34253 108.775 3.45068 109.769H3.51557C3.38388 108.9 3.48033 108.015 3.79675 107.189C4.09957 106.569 5.5199 105.149 6.16158 106.829C6.62243 108.167 6.75059 109.585 6.53649 110.975C3.94095 110.569 2.67923 112.855 3.82559 114.176C2.15291 112.062 6.52928 109.069 9.29065 113.302C9.51416 113.642 10.0116 112.329 11.6122 112.555C11.986 112.618 12.3395 112.759 12.6456 112.966C12.9517 113.174 13.2024 113.444 13.3786 113.756C13.4363 113.856 13.6166 113.756 13.5661 113.682C13.4059 113.33 13.1533 113.02 12.8313 112.781C12.5092 112.542 12.1277 112.38 11.7213 112.312C11.3148 112.243 10.8963 112.269 10.5034 112.387C10.1105 112.505 9.75565 112.712 9.4709 112.989ZM34.7919 109.982C32.621 109.407 30.6389 108.342 29.024 106.882C25.2605 108.215 22.8812 111.775 22.1097 115.302C21.8867 116.308 21.7613 117.33 21.7348 118.356C23.7513 118.7 25.7215 119.245 27.6109 119.982C27.6365 119.995 27.6651 120.001 27.694 120C27.7229 120 27.7512 119.992 27.7763 119.979C27.8014 119.966 27.8225 119.947 27.8377 119.924C27.8528 119.902 27.8616 119.876 27.8632 119.849C28.1384 117.868 28.9118 115.975 30.1213 114.32C31.3308 112.666 32.9428 111.296 34.8279 110.322C34.8521 110.32 34.8755 110.313 34.8969 110.303C34.9183 110.292 34.9372 110.278 34.9526 110.261C34.968 110.243 34.9796 110.223 34.9866 110.202C34.9937 110.18 34.9961 110.158 34.9937 110.135C34.9914 110.113 34.9843 110.091 34.9728 110.072C34.9614 110.052 34.9459 110.034 34.9271 110.02C34.9084 110.006 34.8868 109.995 34.8636 109.989C34.8404 109.982 34.816 109.98 34.7919 109.982ZM27.582 119.582C25.8088 118.855 23.9234 118.39 21.9944 118.202C21.9944 113.736 24.6044 108.775 28.9951 107.235C30.4772 108.618 32.312 109.634 34.3304 110.189C32.5119 111.191 30.9597 112.557 29.788 114.188C28.6163 115.818 27.8551 117.671 27.5604 119.609L27.582 119.582Z" fill="#344055"/>
<path d="M27.4674 110.974C26.3715 110.974 24.8719 112.247 25.3045 113.274C25.8957 114.607 28.1235 114.534 28.7724 112.914C28.8855 112.709 28.9395 112.481 28.9291 112.251C28.9187 112.022 28.8442 111.798 28.7128 111.603C28.5815 111.408 28.3978 111.247 28.1796 111.137C27.9614 111.027 27.716 110.971 27.4674 110.974ZM18.2388 99.8937C17.0781 100.247 15.9416 100.666 14.8358 101.147C14.7997 101.147 12.2907 105.541 12.2979 105.714C12.1897 105.801 20.6974 110.194 20.9497 110.381C20.9669 110.397 20.9885 110.408 21.0121 110.414C21.0357 110.42 21.0606 110.42 21.0842 110.413C21.1077 110.407 21.1291 110.396 21.146 110.379C21.1629 110.363 21.1748 110.343 21.1804 110.321C21.4977 108.734 22.7089 102.414 22.9252 100.834C22.9613 100.714 19.6375 100.467 18.2388 99.8937ZM18.0225 100.12C18.4839 100.734 20.9064 103.574 21.0362 103.694C20.6974 103.82 16.7103 105.514 16.5733 105.601C16.5733 105.601 14.8502 101.354 14.843 101.34C14.8358 101.327 17.763 100.247 18.0297 100.12H18.0225ZM16.3715 105.614H12.5647C12.5941 105.56 12.6206 105.504 12.644 105.447C15.5279 105.507 16.184 104.907 16.3715 105.601V105.614ZM20.9713 110.081C20.9209 110.047 17.3664 106.654 16.5517 105.814C16.5517 105.814 20.8055 104.067 21.1516 103.887C21.13 104.06 21.0074 109.874 20.9713 110.081ZM18.2604 100.187C19.6977 100.553 21.1565 100.842 22.6296 101.054C22.5215 101.22 21.2309 103.64 21.2309 103.64C21.1444 103.507 18.7507 100.714 18.2604 100.187ZM21.4544 107.401C21.4544 107.274 21.4544 103.96 21.3751 103.76C21.3751 103.76 22.3845 101.987 22.4926 101.76C22.3989 102.247 21.5698 106.781 21.4544 107.401ZM40.2865 113.854C35.8164 114.681 38.758 118.561 41.7285 116.627C42.1843 116.335 42.5218 115.91 42.6874 115.421C42.8172 115.007 43.5093 113.267 40.2865 113.854ZM41.6275 116.354C41.2775 116.603 40.8642 116.764 40.4274 116.822C39.9905 116.881 39.5448 116.834 39.1329 116.687C37.7414 116.061 38.1308 114.421 40.1639 114.087C43.8482 113.474 42.3125 115.874 41.6275 116.354ZM73.4518 113.234C73.5599 110.014 68.4049 109.901 68.3616 113.101C68.3616 113.114 68.3673 113.127 68.3775 113.136C68.3876 113.145 68.4014 113.151 68.4157 113.151C68.43 113.151 68.4438 113.145 68.4539 113.136C68.4641 113.127 68.4698 113.114 68.4698 113.101C68.4844 112.804 68.563 112.513 68.7011 112.245C68.8391 111.977 69.0338 111.737 69.2736 111.539C69.5135 111.342 69.7936 111.19 70.0976 111.095C70.4016 110.999 70.7233 110.96 71.0437 110.981C71.3586 111.01 71.6638 111.098 71.9411 111.239C72.2184 111.38 72.4619 111.572 72.6572 111.802C72.8525 112.033 72.9954 112.297 73.0774 112.58C73.1594 112.862 73.1789 113.158 73.1345 113.447C73.1345 113.561 73.2355 113.681 73.358 113.607C73.8325 113.341 74.3973 113.247 74.9424 113.344C75.4875 113.442 75.9739 113.723 76.3069 114.134C76.3862 114.234 76.5664 114.134 76.4943 114.034C76.1824 113.578 75.6996 113.244 75.1383 113.097C74.577 112.949 73.9765 112.998 73.4518 113.234ZM84.0574 88.9534C81.397 88.0467 79.4648 89.8867 81.4331 90.8534C84.043 92.1335 86.6818 89.8401 84.0574 88.9534ZM84.6703 90.4468C83.8556 91.3735 81.5124 91.0001 80.9716 90.2134C80.6256 89.7001 81.2023 89.2334 81.6926 89.0401C83.0048 88.4867 85.622 89.3601 84.6703 90.4468ZM84.0791 96.0269C82.9218 96.3602 81.7938 96.7747 80.7049 97.2669C80.7049 97.2669 76.6962 102.4 76.8404 102.434C77.0351 103.414 77.4244 105.527 77.5109 105.561C77.7488 105.667 80.2723 106.894 80.3227 106.894C81.7071 106.74 83.0613 106.408 84.3458 105.907C84.5766 105.907 88.6717 100.734 88.8592 100.447C88.5181 99.3674 88.0891 98.3133 87.5758 97.2936C87.0207 97.0269 84.1079 96.0203 84.0791 96.0269ZM87.2802 97.4736C86.5268 98.3114 85.8194 99.1836 85.1606 100.087C84.4396 99.707 83.0769 98.987 83.0841 98.9737C83.2499 98.7537 84.3891 96.5069 84.4468 96.3069C84.5982 96.3936 86.7683 97.3136 87.2802 97.4736ZM84.2016 96.2136C84.2016 96.2669 82.9111 98.727 82.9039 98.727C82.5578 98.5003 81.1375 97.4336 80.9933 97.3536L84.2016 96.2136ZM80.8635 97.4603C80.9716 97.5803 82.4136 98.607 82.702 98.8403C82.6587 98.8403 80.2362 101.727 80.229 101.74C79.6739 101.86 77.4604 102.08 77.2802 102.107C77.3667 101.98 80.7553 97.647 80.8635 97.4603ZM77.1504 102.42C77.3667 102.42 79.5585 102.187 80.0344 102.1C79.6594 102.587 77.6623 104.954 77.6118 105.027C77.4532 104.154 77.2874 103.314 77.1504 102.42ZM80.3804 106.634C80.3804 106.634 77.6191 105.3 77.6118 105.3C77.6046 105.3 80.0127 102.534 80.4958 101.967C81.1302 102.307 81.671 102.78 82.3127 103.107C82.2478 103.154 80.95 105.487 80.3732 106.647L80.3804 106.634ZM80.5174 101.74C81.2462 100.802 82.0436 99.9112 82.9039 99.0737C83.56 99.487 84.2233 99.887 84.901 100.267C83.9255 101.026 83.0903 101.927 82.428 102.934C81.7431 102.58 81.1807 102.08 80.5102 101.74H80.5174ZM84.3098 105.614C83.7691 104.807 82.6443 103.12 82.6083 103.087C83.4451 102.14 84.3331 101.232 85.2687 100.367C85.4273 100.367 87.9003 100.467 88.4843 100.487C88.1454 100.847 84.3603 105.534 84.3026 105.614H84.3098ZM73.2715 94.2869C72.8421 93.6121 72.5734 92.8603 72.4834 92.0818C72.3934 91.3033 72.4842 90.516 72.7497 89.7726C73.0152 89.0291 73.4492 88.3466 74.0229 87.7707C74.5966 87.1949 75.2966 86.7389 76.0762 86.4333C76.1015 86.419 76.1225 86.399 76.137 86.375C76.1516 86.3511 76.1592 86.3241 76.1592 86.2967C76.1592 86.2692 76.1516 86.2422 76.137 86.2183C76.1225 86.1943 76.1015 86.1743 76.0762 86.16C74.3784 85.2475 72.7673 84.2038 71.26 83.0399C71.2258 83.019 71.1856 83.0078 71.1446 83.0078C71.1036 83.0078 71.0635 83.019 71.0293 83.0399C66.278 84.9266 64.6702 88.3267 65.4344 91.2601C65.7439 92.1582 66.3033 92.9652 67.0566 93.6002C69.0466 94.0202 71.0942 94.1469 73.1057 94.5135C73.1361 94.5171 73.167 94.5128 73.195 94.5011C73.2229 94.4895 73.2468 94.4708 73.264 94.4473C73.2812 94.4239 73.291 94.3964 73.2923 94.3681C73.2936 94.3398 73.2864 94.3117 73.2715 94.2869ZM67.0927 93.4202C64.3025 90.9134 64.9297 85.8266 71.1158 83.3666C72.5279 84.464 74.0459 85.4392 75.6508 86.28C74.9026 86.6227 74.2353 87.0992 73.6876 87.6819C73.1398 88.2646 72.7224 88.942 72.4596 89.6748C72.1968 90.4077 72.0937 91.1814 72.1563 91.9513C72.219 92.7212 72.4461 93.472 72.8245 94.1602C70.9283 93.8402 68.9961 93.7069 67.0927 93.4202Z" fill="#344055"/>
<path d="M70.0122 87.0321C69.709 86.9673 69.3927 86.9776 69.0952 87.0622C68.7977 87.1467 68.5297 87.3024 68.3182 87.5135C68.1067 87.7246 67.9593 87.9837 67.8909 88.2644C67.8225 88.5451 67.8355 88.8376 67.9286 89.1122C68.0907 89.5488 68.4112 89.9201 68.8356 90.1632C69.2601 90.4062 69.7624 90.506 70.2574 90.4456C71.7282 90.2055 71.8651 87.4988 70.0122 87.0321ZM85.8018 81.3853C85.9431 81.0663 86.0103 80.7235 85.9992 80.3789C85.988 80.0344 85.8986 79.6958 85.7369 79.3853C85.6397 79.2075 85.4967 79.0547 85.3205 78.9402C85.1443 78.8256 84.9403 78.753 84.7265 78.7286C84.5128 78.7042 84.2958 78.7289 84.0948 78.8004C83.8938 78.8719 83.7149 78.988 83.5739 79.1386C81.9878 73.0718 76.2199 76.6852 78.7361 78.9052C78.7866 78.9519 78.8803 78.9052 78.8371 78.8319C77.1067 76.4052 81.6705 73.8384 83.2639 79.3853C83.2639 79.4719 83.5595 79.5786 83.6172 79.3453C86.2848 78.0252 85.3764 81.8653 85.8018 81.3853ZM109.039 113.486C109.45 109.879 104.129 109.273 103.826 112.359C103.826 112.446 103.956 112.439 103.971 112.359C104.018 112.056 104.138 111.766 104.322 111.511C104.506 111.256 104.749 111.042 105.033 110.885C105.318 110.728 105.637 110.632 105.967 110.603C106.297 110.574 106.63 110.614 106.941 110.719C107.591 110.944 108.126 111.386 108.442 111.957C108.758 112.528 108.832 113.187 108.65 113.806C108.614 113.946 108.808 114.073 108.924 113.953C109.113 113.759 109.369 113.632 109.648 113.592C109.927 113.553 110.212 113.603 110.455 113.736C110.699 113.868 110.885 114.074 110.983 114.319C111.081 114.564 111.084 114.833 110.993 115.08C110.993 115.193 111.152 115.28 111.209 115.166C111.329 114.897 111.352 114.599 111.277 114.316C111.201 114.033 111.03 113.78 110.788 113.593C110.547 113.406 110.247 113.295 109.932 113.275C109.618 113.256 109.305 113.33 109.039 113.486ZM132.312 107.913C131.591 107.959 131.332 108.666 131.368 109.246C131.447 110.826 134.353 112.699 135.095 111.306C135.968 109.653 133.387 107.839 132.312 107.913ZM134.886 110.893C134.67 111.819 133.891 111.559 133.033 111.066C131.238 109.973 131.368 108.313 132.255 108.133C133.142 107.953 135.204 109.553 134.886 110.893ZM124.894 103.313C125.019 102.925 125.024 102.512 124.908 102.122C124.792 101.732 124.559 101.38 124.237 101.106C124.088 100.993 123.911 100.914 123.722 100.876C123.533 100.838 123.337 100.842 123.15 100.887C122.963 100.933 122.79 101.019 122.646 101.138C122.502 101.257 122.39 101.406 122.32 101.573C122.318 101.588 122.323 101.603 122.333 101.616C122.343 101.629 122.357 101.638 122.373 101.642C122.389 101.646 122.407 101.644 122.422 101.638C122.437 101.631 122.449 101.62 122.457 101.606C122.519 101.446 122.631 101.307 122.778 101.207C122.926 101.106 123.102 101.047 123.286 101.039C123.467 101.031 123.647 101.062 123.812 101.131C123.978 101.199 124.123 101.302 124.237 101.433C124.47 101.766 124.61 102.147 124.645 102.543C124.68 102.938 124.61 103.335 124.439 103.699C124.396 103.846 124.62 103.979 124.735 103.859C124.984 103.591 125.339 103.426 125.72 103.4C126.101 103.374 126.478 103.489 126.768 103.719C127.033 103.981 127.189 104.321 127.208 104.679C127.226 105.037 127.106 105.389 126.869 105.673C126.861 105.688 126.859 105.704 126.862 105.721C126.865 105.737 126.873 105.752 126.886 105.764C126.899 105.775 126.915 105.783 126.932 105.786C126.95 105.789 126.968 105.786 126.984 105.779C127.158 105.634 127.296 105.456 127.391 105.258C127.486 105.06 127.535 104.846 127.535 104.629C127.535 104.413 127.486 104.198 127.391 104C127.296 103.802 127.158 103.625 126.984 103.479C126.697 103.256 126.342 103.12 125.967 103.09C125.593 103.06 125.218 103.138 124.894 103.313ZM128.578 85.0854C130.315 85.5521 130.914 87.5321 130.892 87.7855C130.89 87.8164 130.899 87.8472 130.919 87.8724C130.938 87.8976 130.967 87.9157 130.999 87.9236C131.032 87.9315 131.066 87.9287 131.097 87.9157C131.127 87.9026 131.152 87.8802 131.166 87.8522C131.321 87.3342 131.588 86.8507 131.951 86.4312C132.314 86.0118 132.766 85.665 133.279 85.4121C133.302 85.3977 133.322 85.3788 133.337 85.3565C133.352 85.3342 133.362 85.3092 133.365 85.2832C133.369 85.2571 133.366 85.2307 133.357 85.2058C133.349 85.1808 133.334 85.158 133.315 85.1387C132.302 84.3171 131.577 83.2357 131.231 82.032C131.217 81.9951 131.192 81.9631 131.157 81.9405C131.123 81.9178 131.082 81.9056 131.04 81.9056C130.998 81.9056 130.957 81.9178 130.922 81.9405C130.888 81.9631 130.862 81.9951 130.849 82.032C130.502 83.1852 129.689 84.1709 128.578 84.7854C128.448 84.8454 128.448 85.0521 128.578 85.0854ZM131.022 82.6387C131.386 83.6352 132.022 84.5283 132.868 85.2321C132.079 85.7156 131.474 86.4149 131.137 87.2321C130.788 86.2502 130.045 85.4294 129.061 84.9387C129.957 84.3818 130.642 83.58 131.022 82.6453V82.6387ZM116.191 102.039C116.573 103.213 119.075 102.219 118.837 100.979C118.563 99.5658 115.751 100.719 116.191 102.039ZM118.506 101.559C117.403 102.893 115.622 102.226 116.775 101.093C117.929 99.9591 119.147 100.772 118.506 101.559ZM105.694 96.5457C104.922 97.8791 106.66 98.7724 107.929 98.3658C108.114 98.3066 108.288 98.2235 108.448 98.1191C108.66 98.0064 108.839 97.8475 108.969 97.6562C109.1 97.4649 109.178 97.2471 109.196 97.0216C109.215 96.7961 109.173 96.5699 109.075 96.3626C108.978 96.1553 108.827 95.9733 108.635 95.8324C107.698 95.0857 106.227 95.6257 105.694 96.5457Z" fill="#344055"/>
<path d="M136.993 107.062C136.849 106.862 134.419 104.568 133.504 101.955C135.436 100.135 133.46 97.5414 131.341 98.128C128.457 92.0945 128.211 88.2678 124.967 89.2411C122.804 89.9078 120.641 93.2412 119.675 95.0946C119.372 94.8848 118.999 94.7799 118.621 94.7984C118.244 94.8168 117.885 94.9573 117.607 95.1954C117.33 95.4336 117.152 95.7542 117.104 96.1013C117.057 96.4484 117.142 96.8 117.346 97.0947C116.351 97.8414 110.692 101.888 110.475 102.101C110.223 101.808 109.033 100.241 108.608 99.5681C110.682 98.9905 112.545 97.8974 113.994 96.408C114.012 96.3936 114.027 96.3757 114.037 96.3556C114.047 96.3354 114.052 96.3135 114.052 96.2913C114.052 96.2691 114.047 96.2472 114.037 96.2271C114.027 96.2069 114.012 96.189 113.994 96.1746C112.686 95.2054 111.654 93.9559 110.987 92.5345C110.975 92.5194 110.959 92.5071 110.941 92.4986C110.923 92.4901 110.903 92.4856 110.883 92.4856C110.862 92.4856 110.842 92.4901 110.824 92.4986C110.806 92.5071 110.79 92.5194 110.778 92.5345C109.206 93.9241 107.14 94.7369 104.967 94.8213C100.944 91.2878 100.41 90.3612 97.7571 86.0144C98.5718 84.161 97.6418 81.8143 95.1544 82.3876C94.5487 81.5343 89.7037 74.8674 89.0837 73.9474C89.3037 73.9201 89.5108 73.8353 89.6807 73.7031C89.8505 73.5708 89.976 73.3966 90.0426 73.2007C90.5833 71.6873 88.5429 70.1873 86.8342 70.8273C86.4954 70.3073 84.9236 67.9339 83.6475 66.0138C84.0699 65.4829 84.4277 64.9106 84.7145 64.3071C84.7145 64.3071 95.0967 76.2141 99.9417 77.9808C100.303 77.9012 100.654 77.7849 100.987 77.6341C104.131 79.8609 103.828 81.1209 104.628 81.1009C105.428 81.0809 109.278 77.6008 108.904 77.0075C108.529 76.4141 106.301 77.1341 105.623 77.3275C105.486 77.0741 104.7 75.5541 104.448 75.0474C104.727 74.7084 104.968 74.3443 105.169 73.9607C105.169 73.9607 98.853 52.8668 87.2235 53.2535C81.3908 53.4468 72.8976 55.5402 72.8976 55.5402C72.8976 55.5402 72.3785 55.6002 72.8976 55.2269C73.4167 54.8535 82.0036 52.8601 88.1825 52.8535C89.8184 52.8817 91.4241 53.2657 92.8696 53.9746C94.3151 54.6834 95.5597 55.6971 96.5026 56.9336C96.5026 56.9336 103.446 58.5536 107.382 59.1137C111.319 59.6737 112.48 59.4537 112.48 59.4537C112.746 59.1513 112.987 58.8303 113.201 58.4936C116.906 58.8936 116.524 60.0003 117.224 59.6403C117.923 59.2803 119.639 54.5669 119.012 54.2002C118.384 53.8335 116.128 55.9669 116.128 56.0002C115.962 55.9069 114.909 55.2402 114.578 54.9735C114.62 54.7043 114.637 54.4321 114.628 54.1602C114.628 54.1602 100.41 43.2266 92.0253 45.0266C86.7015 46.2385 81.5515 48.0288 76.6828 50.3601C76.2647 49.2397 75.7833 48.1404 75.2408 47.0667C76.8498 46.326 78.2459 45.243 79.3144 43.9066C79.6532 43.3932 79.6172 39.3598 79.5162 39.1331C79.4153 38.9064 75.1903 38.9931 74.6856 39.1331C74.3828 39.2198 73.8132 40.8265 72.0468 41.9865C71.2177 40.7865 67.0648 35.2397 67.072 35.2197C68.9682 28.6595 67.6128 15.1191 61.0302 4.47218C60.9797 4.27884 59.3936 4.23884 59.0475 4.24551C58.2472 1.21876 55.6805 -1.70132 56.4087 1.18543C56.2645 0.992089 55.5868 -0.0279385 55.2695 0.138733C54.9523 0.305404 55.2695 1.15209 55.3416 1.2321C55.0028 0.858752 54.2746 0.325404 54.1015 0.745415C53.9718 1.05876 54.2602 1.56544 54.909 2.7988C54.3467 2.73214 53.3301 2.7988 53.3733 3.34549C53.4166 3.89217 54.253 3.69216 54.6495 3.9055C55.0883 4.20099 55.5006 4.52873 55.8824 4.88553C55.3056 5.10553 54.6279 5.37887 54.5486 5.91222C54.5486 6.11223 55.8103 12.2657 56.0842 13.2458C57.3099 17.6192 58.1391 18.3526 54.2818 28.9195C54.2737 28.9351 54.2694 28.9521 54.2691 28.9694C54.2688 28.9867 54.2725 29.0039 54.28 29.0197C54.2876 29.0355 54.2987 29.0497 54.3127 29.0611C54.3267 29.0726 54.3432 29.0812 54.3611 29.0862C52.3063 28.2128 52.6884 28.2595 52.501 28.9262C51.8103 28.4427 51.305 27.7675 51.059 26.9995C53.4959 25.4794 51.5276 21.0593 49.7396 18.8992C50.0043 18.686 50.1866 18.3988 50.259 18.0812C50.3313 17.7636 50.2898 17.4328 50.1407 17.1389C49.9916 16.8451 49.743 16.6041 49.4325 16.4526C49.1221 16.3011 48.7667 16.2472 48.4202 16.2992C48.4855 15.8279 48.3672 15.3504 48.0865 14.9524C47.8058 14.5544 47.381 14.2618 46.8883 14.127C46.3955 13.9923 45.8669 14.0241 45.3972 14.2169C44.9276 14.4097 44.5475 14.7508 44.325 15.1791C44.2038 15.6786 43.989 16.1547 43.6905 16.5858C43.3393 16.8424 42.9413 17.0388 42.5153 17.1659C41.9953 17.4188 41.5756 17.8178 41.3165 18.3054C41.0573 18.793 40.9722 19.3441 41.0734 19.8793C40.8656 19.7434 40.7056 19.554 40.6133 19.3347C40.521 19.1154 40.5005 18.8759 40.5543 18.6459C40.3545 18.8249 40.2319 19.0649 40.2094 19.3213C40.1868 19.5776 40.2658 19.8328 40.4317 20.0393C40.2075 19.9302 39.9561 19.8778 39.703 19.8871C39.4498 19.8965 39.2038 19.9674 38.9897 20.0926C39.2116 20.0637 39.4377 20.085 39.6486 20.1546C39.8596 20.2243 40.0491 20.3403 40.201 20.4926C39.7192 20.4958 39.2546 20.6581 38.891 20.9503C38.5274 21.2425 38.2888 21.6453 38.2183 22.086C37.8506 24.086 40.1577 25.4661 41.2752 26.3728C41.9385 26.9128 42.5297 27.5395 43.1498 28.1195C43.2739 28.1904 43.4146 28.2328 43.5601 28.2433C43.7056 28.2537 43.8517 28.2318 43.9861 28.1795C44.2313 28.4128 45.803 30.1795 46.3365 30.8062C45.6877 30.8062 45.6588 30.6129 45.3127 31.8129C45.1867 32.1361 45.1867 32.4898 45.3127 32.8129C42.3207 32.6796 37.4396 29.7395 36.4735 28.2595C31.0445 20.0193 26.9421 15.3525 26.8628 15.3125C26.3248 15.2187 25.7712 15.2347 25.2406 15.3591C25.5394 14.4874 25.766 13.5959 25.9183 12.6924C25.8895 12.642 25.8502 12.5974 25.8027 12.561C25.7552 12.5247 25.7004 12.4974 25.6414 12.4807C25.5825 12.4639 25.5206 12.4581 25.4592 12.4636C25.3978 12.469 25.3382 12.4856 25.2838 12.5124C24.945 12.6457 24.7719 13.3124 24.3826 13.3124C24.2763 12.4787 24.0807 11.6569 23.7986 10.859C23.4237 10.2857 22.5873 10.479 22.9622 12.3991C22.6378 11.9057 22.4071 10.7724 21.8087 11.159C21.3545 11.4524 21.8808 12.4924 22.0971 12.9791C20.4749 11.199 20.6118 13.5924 22.9911 16.6525C22.746 16.8392 21.614 17.7192 21.6212 18.0392C21.6284 18.3592 25.5362 30.3329 29.1339 36.4064C33.5391 43.8399 37.6559 46.3266 40.6696 48.7867C36.5095 49.16 32.8109 57.3403 32.6595 57.7736C32.146 57.7018 31.6214 57.796 31.1743 58.0403C28.7301 59.2737 30.1 61.8071 30.237 61.9537C28.485 62.3471 27.0719 64.6205 28.4489 66.8472C27.5405 68.0339 23.4886 73.4074 23.0416 74.1341C22.7316 74.2017 22.4417 74.3318 22.1924 74.515C21.9432 74.6983 21.7407 74.9301 21.5996 75.1941C21.3817 75.5324 21.2878 75.9268 21.332 76.3184C21.3761 76.7101 21.556 77.078 21.8447 77.3675C21.1742 78.0342 17.18 82.8743 17.1295 82.9276C14.7214 81.5409 12.407 79.5942 9.64567 82.2609C9.02665 82.9434 8.47415 83.6751 7.99462 84.4477C7.51836 84.4095 7.03931 84.4814 6.60057 84.657C6.16182 84.8325 5.77715 85.1061 5.48114 85.4532C5.18513 85.8003 4.98707 86.21 4.90479 86.6454C4.82251 87.0809 4.85857 87.5284 5.00975 87.9478C5.00975 87.9478 0.76315 92.9612 0.00611677 94.0346C-0.0371423 94.0946 0.0710054 94.1479 0.114264 94.0946C4.44017 88.7611 5.76678 87.7878 5.16115 87.8544C4.81508 86.061 5.83888 84.9477 7.2448 84.721C7.76577 84.6569 8.29566 84.7025 8.79491 84.8543C9.01842 84.8543 8.94632 84.521 8.13161 84.4343C8.92469 83.481 9.7394 81.9209 11.5419 81.3676C13.3443 80.8142 14.5267 81.7343 19.0978 84.4343C18.8094 85.621 20.1576 87.3611 21.203 86.6677C20.2658 87.0611 19.1482 85.541 19.4078 84.5343C19.6674 83.5276 21.2535 84.041 21.9457 84.7743C22.3527 85.2332 22.5767 85.8076 22.5801 86.4011C22.5801 86.5344 22.8253 86.5944 22.8613 86.4011C22.8688 86.3457 22.8688 86.2897 22.8613 86.2344C24.1735 87.3077 29.7395 91.9145 30.4388 92.6746C31.1382 93.4346 33.777 96.6747 35.2406 97.2547C34.4259 97.8614 33.741 98.4547 33.8347 99.5081C33.9289 100.279 34.2901 101.001 34.8644 101.567C35.4386 102.133 36.1952 102.512 37.0214 102.648C37.503 102.665 37.9799 102.556 38.3972 102.333C38.8144 102.11 39.1548 101.783 39.3791 101.388C40.4101 102.168 48.5716 108.762 49.8477 109.462C48.9876 109.688 48.1543 109.994 47.3603 110.375C44.1592 111.902 46.3438 113.608 46.8917 113.928C48.3841 114.775 51.1167 114.315 52.7461 113.595C56.3078 112.162 55.7814 109.595 53.8132 109.328C52.6259 109.085 51.3955 109.085 50.2082 109.328C48.4851 108.502 40.6552 101.868 39.4439 101.175C40.1649 99.4147 37.18 96.328 35.4857 97.0813C33.6112 95.9613 32.2774 94.2079 30.8642 92.6412C29.4511 91.0745 24.0798 86.8277 22.8685 86.0077C22.8253 84.0077 19.9053 82.901 19.1987 84.0743L17.3314 83.001C17.3674 82.9476 21.3184 78.2542 21.9312 77.4208C23.1425 78.3742 25.5362 77.6208 26.0192 76.0008C26.0192 75.9074 25.8967 75.8474 25.8534 75.9341C24.4114 78.5542 20.9651 77.8142 21.6212 75.6474C21.8864 75.0154 22.402 74.5005 23.0632 74.2074C23.229 74.3407 28.6652 67.0072 28.7662 66.8739C28.7802 66.8528 28.7876 66.8286 28.7876 66.8039C28.7876 66.7791 28.7802 66.7549 28.7662 66.7338C28.4444 66.3243 28.2393 65.8463 28.17 65.3441C28.1007 64.8419 28.1694 64.3316 28.3696 63.8604C29.0906 62.1937 30.6696 62.2004 30.5326 61.9271C30.3956 61.6537 29.0906 59.707 31.2536 58.1803C31.9241 57.7136 32.7604 58.067 32.8253 57.9336C33.2074 57.1669 37.5477 49.4467 40.8571 48.9334C42.2388 50.0938 43.4507 51.4161 44.462 52.8668C45.5363 54.3935 53.5248 65.0538 54.9884 66.3872C55.7959 67.1205 56.798 68.1139 57.9516 68.4672C58.0864 68.9797 58.3824 69.4437 58.8024 69.8006C60.576 71.3273 65.6733 77.4741 74.2242 73.134C79.3432 70.534 82.0541 67.8605 83.4168 66.1205C84.6424 68.0272 86.1565 70.3073 86.6107 70.7873C86.3791 70.8763 86.1936 71.0445 86.0928 71.2569C85.9921 71.4693 85.9839 71.7095 86.07 71.9273C86.0817 71.9462 86.0998 71.961 86.1214 71.9695C86.1431 71.9781 86.1671 71.9798 86.19 71.9745C86.2128 71.9693 86.2332 71.9572 86.2479 71.9403C86.2627 71.9234 86.2711 71.9024 86.2719 71.8807C86.2286 70.2473 89.8768 70.674 89.7614 72.7207C89.6749 74.1407 87.137 73.7474 86.7982 72.794C86.801 72.7879 86.8022 72.7813 86.8016 72.7747C86.801 72.768 86.7986 72.7617 86.7947 72.7561C86.7908 72.7506 86.7854 72.746 86.7791 72.7428C86.7728 72.7397 86.7657 72.738 86.7585 72.738C86.7513 72.738 86.7443 72.7397 86.7379 72.7428C86.7316 72.746 86.7263 72.7506 86.7223 72.7561C86.7184 72.7617 86.716 72.768 86.7154 72.7747C86.7148 72.7813 86.716 72.7879 86.7189 72.794C86.8847 73.5607 87.9229 73.874 88.6944 73.854C88.752 74.2407 94.1522 81.4209 94.9597 82.2943C89.7614 83.6276 88.3194 89.8745 93.1428 89.2945C94.7794 89.1078 96.7982 87.5811 97.5552 86.1544C99.7182 90.1545 102.653 93.3279 104.556 94.7146C103.501 94.7238 102.452 94.5543 101.463 94.2146C101.445 94.2096 101.426 94.2081 101.407 94.2101C101.389 94.2122 101.371 94.2177 101.355 94.2265C101.338 94.2352 101.324 94.247 101.313 94.261C101.302 94.275 101.294 94.291 101.29 94.3079C100.927 95.1889 100.803 96.1387 100.929 97.0742C101.055 98.0098 101.426 98.9026 102.011 99.6747C104.132 100.137 106.348 100.074 108.435 99.4947C109.524 102.755 114.743 106.068 115.082 106.202C115.169 106.235 115.27 106.142 115.191 106.075C114.715 105.675 111.095 102.741 110.591 102.168C110.886 102.081 116.416 98.0414 117.418 97.1413C117.815 97.5947 118.017 97.328 117.923 97.208C117.755 97.0529 117.626 96.8656 117.545 96.6594C117.464 96.4532 117.433 96.2331 117.454 96.0146C117.656 94.6813 120.086 94.5079 119.848 96.548C119.733 97.5147 118.457 97.5547 118.651 97.728C119.372 98.3614 120.872 96.3947 119.87 95.228C121.737 91.4812 125.638 87.1477 127.649 90.5612C127.981 91.1212 130.418 97.048 131.081 98.128C129.437 98.7947 128.709 101.408 130.021 102.375C130.692 102.868 132.285 102.841 133.294 102.035C133.972 103.98 135.193 105.726 136.834 107.095C136.935 107.208 137.029 107.128 136.993 107.062ZM104.34 75.1407C104.549 75.6208 105.277 77.1408 105.421 77.3808C105.33 77.84 105.099 78.2657 104.755 78.6081C104.412 78.9505 103.97 79.1954 103.482 79.3142C103.438 79.2809 101.528 77.8275 101.139 77.5408C102.282 76.8373 103.349 76.0336 104.325 75.1407H104.34ZM114.549 55.0869C115.079 55.5003 115.633 55.8875 116.207 56.2469C116.344 56.6913 116.322 57.1645 116.146 57.5967C115.969 58.0289 115.647 58.3971 115.227 58.647L113.273 58.387C113.782 57.3176 114.204 56.2145 114.534 55.0869H114.549ZM52.9912 109.382C57.8507 109.895 50.4317 114.208 46.8124 112.995C46.5473 112.925 46.3228 112.761 46.1877 112.539C46.0527 112.317 46.0181 112.054 46.0914 111.808C46.5312 110.768 49.9126 109.062 52.9912 109.382ZM38.5716 101.841C38.1769 101.968 37.7477 101.968 37.3531 101.841C36.8268 101.635 33.7482 99.2814 35.2839 97.648C36.8844 95.848 40.9075 100.708 38.5427 101.841H38.5716ZM54.5197 3.7055C54.2746 3.62549 54.0006 3.7055 53.7987 3.59216C53.0777 3.31215 54.0439 2.7988 55.1398 3.03214C55.6949 3.15881 53.9862 0.845418 54.4188 0.785417C54.8514 0.725415 55.6372 1.81211 55.8607 2.07212C55.9256 2.15879 56.077 2.07212 56.0194 1.98545C55.8175 1.67877 55.0821 -0.301279 55.6877 0.425407C55.7382 0.492076 56.5673 1.57877 56.762 1.82545C56.8341 1.91878 56.9999 1.82545 56.9278 1.73878C56.7479 1.38653 56.6008 1.02075 56.488 0.645413C56.3726 0.0653975 56.3799 -0.0212715 56.9494 0.505409C57.8616 1.61353 58.5147 2.88491 58.8672 4.23884C57.9064 4.34935 56.9566 4.52991 56.0266 4.77886C55.584 4.35457 55.0763 3.9929 54.5197 3.7055ZM52.8038 28.6462C55.0821 29.5329 54.9667 29.5129 54.8874 29.7262C54.8081 29.9395 54.5558 30.8396 54.4548 31.1462C54.116 30.9396 52.6956 30.1329 52.2919 29.9595C52.4905 29.5315 52.6614 29.0929 52.8038 28.6462ZM43.9861 27.9128C43.9127 27.6265 43.9206 27.3274 44.009 27.0447C44.0974 26.7621 44.2634 26.5053 44.4908 26.2994C44.2522 26.3352 44.0074 26.3041 43.788 26.2101C43.5686 26.1162 43.3847 25.9636 43.2598 25.7722C43.135 25.5807 43.0749 25.3591 43.0874 25.1358C43.1 24.9126 43.1845 24.6979 43.33 24.5194C43.6977 24.166 44.3755 24.3594 44.8369 24.2327C44.4381 23.4437 43.8602 22.7434 43.1426 22.1793C43.3949 22.3793 48.3986 21.766 48.0597 17.4459C48.9565 18.3851 49.7942 19.3712 50.5687 20.3993C50.9519 21.0202 51.2683 21.6745 51.5132 22.3527C52.9552 26.2261 50.7922 26.6394 50.8427 26.9528C51.0935 27.8172 51.6717 28.5696 52.4721 29.0728C52.3423 29.5262 52.1765 29.9729 52.1765 29.9795C51.3731 30.0924 50.6126 30.3879 49.9631 30.8396C49.6026 30.7862 47.5911 30.7929 46.488 30.8396C45.7099 29.8243 44.8748 28.8473 43.9861 27.9128ZM45.8463 31.0396C47.0143 30.9862 49.5882 30.9462 49.7612 30.9462C49.6326 31.8701 49.5795 32.8017 49.6026 33.733C48.22 33.4974 46.8528 33.1902 45.5074 32.8129C45.2334 32.5596 45.7453 31.2662 45.8463 31.0396ZM21.2247 12.6791C21.3977 12.3924 21.9457 13.1191 22.5152 13.7658C22.5945 13.8458 22.7387 13.7658 22.6811 13.6458C22.6234 13.5258 21.5347 11.6457 21.8808 11.339C22.2268 11.0324 22.2845 11.739 23.2218 13.2058C23.2867 13.3191 23.4669 13.2058 23.402 13.1124C23.2146 12.7991 22.7748 10.6523 23.402 10.799C23.9067 10.9124 24.0149 13.4658 24.2456 13.5058C24.8656 13.6124 25.0675 12.9057 25.291 12.7457C25.5145 12.5857 25.7669 12.6657 25.7092 12.9457C25.5217 13.7791 25.2622 14.5925 25.0747 15.4258C24.3682 15.6961 23.7133 16.0698 23.1353 16.5325C22.7171 15.9792 20.9147 13.2524 21.2247 12.6791ZM64.39 58.2203C59.1845 63.0271 57.6848 66.2205 57.9011 68.1539C57.3149 67.8976 56.7789 67.5529 56.315 67.1339C54.873 65.8938 43.7122 51.0868 42.4072 49.8001C38.8023 46.2333 31.6645 43.6199 25.4641 27.8861C24.7431 26.0728 22.025 18.5526 21.9673 18.3192C21.9673 18.2326 24.1302 15.5325 26.7042 15.5525C30.1812 19.5818 33.3401 23.8373 36.1563 28.2862C37.2738 30.0529 42.5298 32.8863 45.2767 32.8729C45.4858 33.1263 45.8679 33.1396 46.2068 33.213C49.5954 33.9596 49.8117 34.093 49.8117 33.8796C49.8117 33.3863 49.8549 31.9729 49.8694 31.7596C50.1794 31.9796 51.643 33.033 52.2919 33.053C52.9408 33.073 53.1715 32.7796 53.2724 32.4329C53.3593 31.8374 53.33 31.2322 53.1859 30.6462C54.462 31.3129 54.5486 31.4662 54.6279 31.3129C55.2263 29.3129 55.4209 29.5262 54.4548 29.1128C54.909 29.1928 57.6632 20.6593 57.3388 17.5125C57.1441 15.5725 56.4159 13.7324 55.9617 11.8457C55.6949 10.859 54.8009 6.25223 54.8009 5.97889C54.8442 5.11887 58.0814 4.05217 60.8644 4.58552C67.7354 16.9459 68.24 25.2527 66.9278 35.093C65.6901 33.5024 64.3591 31.9756 62.9408 30.5195C62.9322 30.5116 62.9205 30.5071 62.9084 30.5071C62.8962 30.5071 62.8845 30.5116 62.8759 30.5195C62.8673 30.5275 62.8625 30.5383 62.8625 30.5495C62.8625 30.5608 62.8673 30.5716 62.8759 30.5796C65.9185 33.6863 71.2898 41.4198 71.7657 42.1465C63.359 47.08 53.8348 33.1996 53.6185 33.1996C53.3042 33.3403 53.0089 33.5149 52.7389 33.7196C52.4216 33.9063 55.2046 42.0732 64.3251 46.5133C68.7303 48.6534 72.2992 48.24 74.8515 47.18C74.8515 47.24 75.7887 49.2267 76.3511 50.4668C71.9695 52.4873 67.9382 55.1005 64.39 58.2203ZM93.3591 88.4078C89.2856 90.0945 89.6965 84.4943 94.592 82.6743C95.1616 82.4609 96.4161 82.2609 96.755 82.6743C98.4853 85.061 94.0729 88.1078 93.3591 88.4078ZM102.285 99.6614C101.733 98.9366 101.379 98.0989 101.253 97.22C101.128 96.3411 101.234 95.4471 101.564 94.6146C103.135 95.1169 104.824 95.2141 106.449 94.8958C108.075 94.5775 109.577 93.8557 110.793 92.8079C111.473 94.1407 112.437 95.3333 113.626 96.3147C109.322 100.428 103.165 99.8014 102.285 99.6614ZM132.761 102.181C132.42 102.362 132.041 102.474 131.649 102.51C131.258 102.546 130.863 102.504 130.49 102.388C130.154 102.17 129.903 101.858 129.773 101.498C129.643 101.138 129.642 100.749 129.769 100.388C130.31 98.0747 132.653 97.8347 133.597 99.3281C133.873 99.8135 133.94 100.377 133.785 100.907C133.629 101.436 133.264 101.891 132.761 102.181Z" fill="#344055"/>
<path d="M55.6594 82.3727C55.5945 83.2927 58.118 85.7061 61.9752 83.206C62.8062 82.61 63.5459 81.9125 64.1742 81.1327C65.1134 81.295 66.0667 81.3775 67.0221 81.3793C67.7615 80.8467 68.3318 80.1397 68.6732 79.3326C68.6833 78.957 68.5478 78.5905 68.2911 78.2992C67.8224 77.5459 66.0128 76.8125 65.4071 76.5259C62.3069 75.0858 58.9183 75.2325 59.8628 78.3392C59.961 78.6128 60.1152 78.8663 60.317 79.0859C59.1274 78.8659 55.7748 80.6793 55.6594 82.3727ZM65.3494 76.7192C65.9551 76.9859 67.5845 77.7926 67.9234 78.3192C68.1036 78.6059 68.4425 78.9193 68.392 79.2726C68.1829 80.686 61.9536 79.8993 60.5189 77.1992C59.733 75.6992 62.6097 75.5258 65.3494 76.7192ZM60.4251 79.1793C61.1784 79.9356 62.1256 80.5042 63.1793 80.8326C59.8411 84.1994 54.1526 83.8394 56.3444 81.2927C57.9017 79.4726 60.1295 79.3126 60.4251 79.1793Z" fill="#344055"/>
<path d="M58.9463 86.7494C58.9375 86.2585 58.8007 85.7767 58.5476 85.345C58.2946 84.9133 57.9326 84.5444 57.4925 84.2696C57.0524 83.9948 56.5471 83.8222 56.0195 83.7665C55.4919 83.7107 54.9576 83.7735 54.4618 83.9494C53.8878 84.111 53.3947 84.456 53.0703 84.9227C53.0703 84.9627 53.0703 84.9961 53.1424 84.9694C57.4683 82.4293 58.6723 86.6761 58.7733 86.7694C58.7856 86.7797 58.8001 86.7873 58.8159 86.7919C58.8316 86.7965 58.8483 86.7979 58.8647 86.796C58.8811 86.7941 58.8969 86.789 58.911 86.7809C58.925 86.7729 58.9371 86.7622 58.9463 86.7494ZM48.4271 66.5022C45.5432 64.0155 47.5331 64.2222 45.262 67.4423C44.7357 68.1889 43.1784 69.549 43.2505 69.649C46.2281 73.6491 53.784 74.9825 53.784 74.3158C53.8161 72.6853 54.4932 71.1223 55.6874 69.9223C56.4445 69.2623 52.5151 69.9823 48.4271 66.5022ZM53.5389 74.2091C52.8284 74.1624 52.1209 74.0823 51.4192 73.9691C48.7588 73.4891 45.1971 71.7424 43.6254 69.6423C45.0363 68.4776 46.12 67.0134 46.7833 65.3755C48.8671 67.8291 51.8687 69.4726 55.1972 69.9823C54.1794 71.1959 53.5994 72.6744 53.5389 74.2091Z" fill="#344055"/>
<path d="M47.7201 70.6087C48.3113 72.8554 52.5651 72.8888 51.1231 70.0887C50.3084 68.5153 47.1866 68.5953 47.7201 70.6087ZM40.8203 82.869C41.0007 82.4427 41.028 81.974 40.8982 81.5322C40.7684 81.0904 40.4883 80.6989 40.0993 80.4156C39.7253 80.1485 39.2733 79.9912 38.8017 79.9639C38.3301 79.9365 37.8604 80.0405 37.4533 80.2623C37.1827 79.6999 36.7668 79.2077 36.242 78.8289C35.9783 78.6295 35.6708 78.4856 35.3408 78.4073C35.0109 78.329 34.6664 78.3182 34.3314 78.3756C34.0253 78.4399 33.7443 78.5809 33.5192 78.7832C33.2941 78.9855 33.1336 79.2412 33.0553 79.5223C32.9771 79.8826 32.9803 80.2539 33.0647 80.613C33.149 80.9721 33.3128 81.3112 33.5456 81.609C33.596 81.6757 33.7042 81.609 33.6609 81.549C33.4252 81.2294 33.2765 80.8618 33.2275 80.4775C33.1786 80.0933 33.2308 79.7038 33.3797 79.3423C33.5625 79.0308 33.8615 78.7915 34.2209 78.6688C34.5804 78.5462 34.9759 78.5486 35.3336 78.6756C36.0566 78.9423 36.6507 79.442 37.0063 80.0823C37.1824 80.3822 37.3134 80.703 37.3956 81.0357C37.4641 81.3943 37.4931 81.7584 37.4821 82.1224C37.4821 82.269 37.7417 82.3157 37.7705 82.1624C37.8671 81.571 37.7847 80.9664 37.5326 80.4156C37.9158 80.25 38.3399 80.1824 38.7609 80.22C39.1819 80.2575 39.5844 80.3987 39.9263 80.629C40.2481 80.8965 40.4886 81.2373 40.624 81.6174C40.7593 81.9975 40.7847 82.4037 40.6977 82.7957C40.6545 82.889 40.777 82.9557 40.8203 82.869ZM23.7978 46.7147C23.6104 46.7614 23.6825 47.0081 23.8772 46.9881C25.6436 46.7414 26.862 49.5748 26.9846 50.3748C26.9846 50.4548 27.1144 50.4282 27.1144 50.3748C27.309 47.9548 29.198 46.6147 29.3855 46.6881C29.5729 46.7614 29.7243 46.4481 29.5297 46.3681C28.6459 45.9702 27.9117 45.3362 27.4219 44.5482C26.9322 43.7601 26.7095 42.8543 26.7827 41.9479C26.7827 41.7346 26.415 41.7413 26.4222 41.9479C26.5881 45.3147 24.7423 46.4681 23.7978 46.7147ZM26.6818 43.748C27.0595 44.8844 27.8822 45.8496 28.9889 46.4547C28.4534 46.8317 28.0056 47.3046 27.6724 47.8453C27.3391 48.386 27.1273 48.9833 27.0495 49.6015C26.8837 48.9748 26.0834 47.1414 24.6342 46.7214C25.2006 46.4056 25.6803 45.9729 26.0355 45.457C26.3908 44.9411 26.612 44.3562 26.6818 43.748ZM23.185 51.7949C23.0264 52.7149 22.738 54.0949 21.6493 54.2816C21.4979 54.2816 21.534 54.5349 21.6493 54.5283C22.1921 54.547 22.709 54.7472 23.1042 55.0917C23.4994 55.4363 23.7458 55.9017 23.7978 56.4017C23.7978 56.5683 24.0935 56.575 24.0862 56.4017C24.0611 55.9225 24.1831 55.4466 24.4383 55.0289C24.6935 54.6112 25.0714 54.2689 25.5282 54.0416C25.658 53.9816 25.5859 53.8216 25.4633 53.8083C24.9444 53.6933 24.4716 53.4442 24.1001 53.0901C23.7286 52.7359 23.4737 52.2913 23.3653 51.8082C23.3508 51.7082 23.1994 51.7015 23.185 51.7949ZM25.0956 53.9816C24.4645 54.3725 24.0224 54.9749 23.8627 55.6616C23.7121 55.3433 23.4883 55.0592 23.2069 54.8289C22.9255 54.5987 22.5933 54.4278 22.2333 54.3283C22.5432 54.1116 22.8026 53.8393 22.9959 53.5277C23.1891 53.2161 23.3123 52.8716 23.358 52.5149C23.5033 52.8681 23.7362 53.1848 24.038 53.4395C24.3398 53.6943 24.702 53.88 25.0956 53.9816ZM41.8225 54.8616C41.6855 54.1949 40.7987 53.9283 40.4382 54.2749C40.4142 54.299 40.3993 54.3295 40.3954 54.362C40.3916 54.3945 40.399 54.4273 40.4167 54.4555C40.4344 54.4838 40.4615 54.5061 40.4939 54.5192C40.5262 54.5323 40.5623 54.5355 40.5968 54.5283C41.9739 54.2149 41.7504 56.2617 39.5297 56.5817C37.9868 56.8083 37.9363 55.5283 39.0467 54.9616C39.1043 54.9616 39.0467 54.855 38.9962 54.8816C38.7265 54.9672 38.4928 55.1292 38.3284 55.3446C38.164 55.5601 38.0773 55.818 38.0805 56.0817C38.2608 57.6417 42.1829 56.6483 41.8225 54.8616ZM63.1708 100.403C61.1016 100.703 58.643 102.79 58.1239 103.683C57.4894 104.776 58.5276 106.17 59.1693 106.45C60.6906 107.116 66.2782 104.936 66.0259 102.45C65.9826 102.036 66.1052 99.9828 63.1708 100.403ZM59.4 105.316C55.8816 104.956 60.6329 100.956 62.7526 100.65C68.4268 99.7428 63.452 105.316 59.4 105.316ZM49.6523 26.2008C49.6523 26.1542 49.6091 26.0542 49.5658 26.0875C49.2342 26.2512 48.8654 26.3402 48.4895 26.3472C48.1137 26.3541 47.7413 26.2789 47.4029 26.1275C46.9198 25.8942 48.8088 27.3942 49.6523 26.2008ZM49.9407 23.7541C49.8614 23.8541 49.3639 24.2075 49.6235 24.2075C49.8673 24.1056 50.0784 23.9471 50.2363 23.7474C50.431 23.4408 49.3639 23.6608 48.4411 22.5674C48.2104 22.2941 48.679 23.3141 49.9407 23.7541ZM46.3142 23.4941C46.0042 23.9141 46.4223 24.2808 46.3935 24.0608C46.3745 23.9718 46.3807 23.8799 46.4115 23.7938C46.4422 23.7077 46.4965 23.6305 46.569 23.5695C46.6415 23.5084 46.7298 23.4658 46.8253 23.4456C46.9209 23.4254 47.0205 23.4283 47.1145 23.4541C47.1794 23.4541 47.237 23.3608 47.1721 23.3341C47.0329 23.2585 46.8684 23.233 46.7101 23.2625C46.5518 23.292 46.4108 23.3745 46.3142 23.4941ZM48.9169 22.1807C48.8994 22.0923 48.9067 22.0012 48.9381 21.9161C48.9695 21.8309 49.0239 21.7547 49.0962 21.6945C49.1685 21.6344 49.2562 21.5923 49.351 21.5724C49.4459 21.5525 49.5446 21.5554 49.6379 21.5807C49.7028 21.5807 49.7605 21.4874 49.6956 21.4607C48.9746 21.1674 48.5564 21.8141 48.8088 22.2141C48.8173 22.2214 48.8278 22.2265 48.8392 22.2288C48.8506 22.2311 48.8625 22.2305 48.8736 22.2271C48.8846 22.2237 48.8945 22.2176 48.9021 22.2094C48.9098 22.2013 48.9149 22.1914 48.9169 22.1807ZM52.1037 39.3679C51.3034 39.8812 46.754 42.2546 45.3192 42.8613C45.1606 42.928 46.891 44.488 49.6451 48.0681C49.7893 48.2614 51.5485 47.6481 54.5118 47.8681C54.8939 47.8681 54.3315 46.3214 56.1124 43.9147C56.1772 43.8213 52.8896 40.2012 52.32 39.4079C52.3099 39.3908 52.2958 39.3761 52.2789 39.3646C52.2619 39.3531 52.2425 39.3452 52.2219 39.3413C52.2013 39.3375 52.18 39.3379 52.1596 39.3425C52.1392 39.3471 52.1201 39.3558 52.1037 39.3679ZM55.7663 43.9213C54.9755 45.0284 54.4948 46.2999 54.3676 47.6214C52.8479 47.4886 51.3155 47.5605 49.8182 47.8348C48.8568 46.6081 47.8307 45.4169 46.7396 44.2613C47.9508 44.0413 52.2695 41.7613 53.1059 40.9279C53.9341 41.969 54.8221 42.9683 55.7663 43.9213ZM46.6458 44.1613C46.2565 43.7413 45.8528 43.3346 45.449 42.928C46.307 42.6413 51.7792 39.8679 52.1325 39.6479C52.4281 40.0612 52.7309 40.4612 53.0482 40.8612C51.0384 42.1559 48.8936 43.2615 46.6458 44.1613Z" fill="#344055"/>
</svg>
