<svg width="153" height="153" viewBox="0 0 153 153" fill="none" xmlns="http://www.w3.org/2000/svg">
<g filter="url(#filter0_d_8_122)">
<mask id="path-1-outside-1_8_122" maskUnits="userSpaceOnUse" x="-1" y="-6" width="155" height="155" fill="black">
<rect fill="white" x="-1" y="-6" width="155" height="155"/>
<path d="M17.1381 140C14.5714 140 12.4131 139.125 10.6631 137.375C8.91309 135.625 8.03809 133.467 8.03809 130.9V12.425C8.03809 9.74166 8.91309 7.58333 10.6631 5.94999C12.4131 4.2 14.5714 3.325 17.1381 3.325C20.6381 3.325 23.3214 4.95833 25.1881 8.225L79.9631 117.95H74.3631L127.738 8.225C129.605 4.95833 132.288 3.325 135.788 3.325C138.355 3.325 140.513 4.2 142.263 5.94999C144.013 7.58333 144.888 9.74166 144.888 12.425V130.9C144.888 133.467 143.955 135.625 142.088 137.375C140.338 139.125 138.238 140 135.788 140C133.221 140 131.063 139.125 129.313 137.375C127.563 135.625 126.688 133.467 126.688 130.9V37.625L130.188 36.75L84.3381 130.2C82.3548 133.233 79.7298 134.75 76.4631 134.75C72.6131 134.75 69.8131 132.942 68.0631 129.325L22.7381 38.5L26.2381 37.625V130.9C26.2381 133.467 25.3631 135.625 23.6131 137.375C21.8631 139.125 19.7048 140 17.1381 140Z"/>
</mask>
<path d="M17.1381 140C14.5714 140 12.4131 139.125 10.6631 137.375C8.91309 135.625 8.03809 133.467 8.03809 130.9V12.425C8.03809 9.74166 8.91309 7.58333 10.6631 5.94999C12.4131 4.2 14.5714 3.325 17.1381 3.325C20.6381 3.325 23.3214 4.95833 25.1881 8.225L79.9631 117.95H74.3631L127.738 8.225C129.605 4.95833 132.288 3.325 135.788 3.325C138.355 3.325 140.513 4.2 142.263 5.94999C144.013 7.58333 144.888 9.74166 144.888 12.425V130.9C144.888 133.467 143.955 135.625 142.088 137.375C140.338 139.125 138.238 140 135.788 140C133.221 140 131.063 139.125 129.313 137.375C127.563 135.625 126.688 133.467 126.688 130.9V37.625L130.188 36.75L84.3381 130.2C82.3548 133.233 79.7298 134.75 76.4631 134.75C72.6131 134.75 69.8131 132.942 68.0631 129.325L22.7381 38.5L26.2381 37.625V130.9C26.2381 133.467 25.3631 135.625 23.6131 137.375C21.8631 139.125 19.7048 140 17.1381 140Z" fill="#FF5500"/>
<path d="M10.6631 137.375L4.29913 143.739L4.29913 143.739L10.6631 137.375ZM10.6631 5.94999L16.804 12.5295L16.9174 12.4236L17.027 12.314L10.6631 5.94999ZM25.1881 8.225L33.2405 4.20521L33.1276 3.97913L33.0023 3.75974L25.1881 8.225ZM79.9631 117.95V126.95H94.515L88.0155 113.93L79.9631 117.95ZM74.3631 117.95L66.2698 114.013L59.9768 126.95H74.3631V117.95ZM127.738 8.225L119.924 3.75975L119.776 4.01928L119.645 4.28809L127.738 8.225ZM142.263 5.94999L135.899 12.314L136.009 12.4236L136.122 12.5295L142.263 5.94999ZM142.088 137.375L135.933 130.809L135.827 130.908L135.724 131.011L142.088 137.375ZM126.688 37.625L124.505 28.8937L117.688 30.598V37.625H126.688ZM130.188 36.75L138.268 40.7143L146.803 23.3194L128.005 28.0187L130.188 36.75ZM84.3381 130.2L91.8708 135.125L92.174 134.662L92.418 134.164L84.3381 130.2ZM68.0631 129.325L76.1645 125.405L76.1406 125.355L76.116 125.306L68.0631 129.325ZM22.7381 38.5L20.5553 29.7687L9.6793 32.4877L14.6851 42.5187L22.7381 38.5ZM26.2381 37.625H35.2381V26.098L24.0553 28.8937L26.2381 37.625ZM17.1381 131C17.009 131 16.9432 130.989 16.9285 130.986C16.9155 130.984 16.9355 130.987 16.9757 131.003C16.9943 131.011 17.013 131.019 17.0306 131.029C17.0483 131.038 17.0616 131.046 17.0702 131.052C17.0891 131.065 17.0738 131.058 17.027 131.011L4.29913 143.739C7.80559 147.245 12.2833 149 17.1381 149V131ZM17.027 131.011C16.9803 130.964 16.9732 130.949 16.9859 130.968C16.9916 130.976 16.9999 130.99 17.0093 131.007C17.0187 131.025 17.0275 131.044 17.035 131.062C17.0513 131.103 17.0541 131.123 17.0517 131.11C17.0489 131.095 17.0381 131.029 17.0381 130.9H-0.961914C-0.961914 135.755 0.792664 140.232 4.29913 143.739L17.027 131.011ZM17.0381 130.9V12.425H-0.961914V130.9H17.0381ZM17.0381 12.425C17.0381 12.243 17.0529 12.1434 17.0587 12.1115C17.064 12.082 17.0617 12.1092 17.035 12.1751C17.0076 12.2427 16.9668 12.3207 16.9144 12.3963C16.8625 12.4713 16.819 12.5154 16.804 12.5295L4.52222 -0.629504C0.718298 2.92083 -0.961914 7.58041 -0.961914 12.425H17.0381ZM17.027 12.314C17.0738 12.2672 17.0891 12.2601 17.0702 12.2728C17.0616 12.2785 17.0483 12.2869 17.0306 12.2962C17.0129 12.3056 16.9943 12.3144 16.9757 12.3219C16.9355 12.3382 16.9155 12.341 16.9285 12.3386C16.9432 12.3359 17.009 12.325 17.1381 12.325V-5.675C12.2833 -5.675 7.80559 -3.92043 4.29913 -0.413971L17.027 12.314ZM17.1381 12.325C17.3098 12.325 17.3556 12.3445 17.3114 12.3328C17.2612 12.3195 17.1792 12.2884 17.0961 12.2378C17.0154 12.1887 16.9984 12.1607 17.0398 12.2053C17.086 12.255 17.2069 12.398 17.3739 12.6902L33.0023 3.75974C29.6801 -2.05402 24.1534 -5.675 17.1381 -5.675V12.325ZM17.1357 12.2448L71.9107 121.97L88.0155 113.93L33.2405 4.20521L17.1357 12.2448ZM79.9631 108.95H74.3631V126.95H79.9631V108.95ZM82.4563 121.887L135.831 12.1619L119.645 4.28809L66.2698 114.013L82.4563 121.887ZM135.552 12.6902C135.719 12.398 135.84 12.255 135.886 12.2053C135.928 12.1607 135.911 12.1887 135.83 12.2378C135.747 12.2884 135.665 12.3195 135.615 12.3328C135.571 12.3445 135.616 12.325 135.788 12.325V-5.675C128.773 -5.675 123.246 -2.05402 119.924 3.75975L135.552 12.6902ZM135.788 12.325C135.917 12.325 135.983 12.3359 135.998 12.3386C136.011 12.341 135.991 12.3382 135.951 12.3219C135.932 12.3144 135.913 12.3056 135.896 12.2962C135.878 12.2869 135.865 12.2785 135.856 12.2728C135.837 12.2601 135.852 12.2672 135.899 12.314L148.627 -0.413967C145.121 -3.92043 140.643 -5.675 135.788 -5.675V12.325ZM136.122 12.5295C136.107 12.5154 136.064 12.4713 136.012 12.3963C135.959 12.3207 135.919 12.2427 135.891 12.1751C135.864 12.1092 135.862 12.082 135.867 12.1115C135.873 12.1434 135.888 12.243 135.888 12.425H153.888C153.888 7.58041 152.208 2.92083 148.404 -0.6295L136.122 12.5295ZM135.888 12.425V130.9H153.888V12.425H135.888ZM135.888 130.9C135.888 130.994 135.88 131.024 135.884 131.004C135.886 130.995 135.89 130.977 135.897 130.953C135.905 130.928 135.915 130.901 135.927 130.872C135.94 130.842 135.953 130.816 135.967 130.793C135.98 130.77 135.99 130.753 135.997 130.744C136.011 130.725 135.997 130.748 135.933 130.809L148.244 143.941C151.932 140.483 153.888 135.946 153.888 130.9H135.888ZM135.724 131.011C135.659 131.076 135.63 131.094 135.64 131.087C135.644 131.084 135.656 131.077 135.674 131.067C135.692 131.057 135.714 131.046 135.739 131.036C135.764 131.026 135.788 131.017 135.811 131.01C135.833 131.004 135.85 131 135.86 130.998C135.883 130.994 135.863 131 135.788 131V149C140.652 149 145.033 147.158 148.452 143.739L135.724 131.011ZM135.788 131C135.659 131 135.593 130.989 135.578 130.986C135.565 130.984 135.586 130.987 135.626 131.003C135.644 131.011 135.663 131.019 135.681 131.029C135.698 131.038 135.712 131.046 135.72 131.052C135.739 131.065 135.724 131.058 135.677 131.011L122.949 143.739C126.456 147.245 130.933 149 135.788 149V131ZM135.677 131.011C135.63 130.964 135.623 130.949 135.636 130.968C135.642 130.976 135.65 130.99 135.659 131.007C135.669 131.025 135.677 131.044 135.685 131.062C135.701 131.103 135.704 131.123 135.702 131.11C135.699 131.095 135.688 131.029 135.688 130.9H117.688C117.688 135.755 119.443 140.232 122.949 143.739L135.677 131.011ZM135.688 130.9V37.625H117.688V130.9H135.688ZM128.871 46.3563L132.371 45.4813L128.005 28.0187L124.505 28.8937L128.871 46.3563ZM122.108 32.7857L76.2582 126.236L92.418 134.164L138.268 40.7143L122.108 32.7857ZM76.8054 125.275C76.6183 125.561 76.4784 125.716 76.407 125.786C76.3393 125.853 76.3285 125.849 76.3793 125.82C76.4331 125.789 76.4969 125.763 76.5491 125.75C76.5975 125.737 76.5785 125.75 76.4631 125.75V143.75C83.1403 143.75 88.44 140.372 91.8708 135.125L76.8054 125.275ZM76.4631 125.75C76.2062 125.75 76.1115 125.72 76.1341 125.726C76.1656 125.735 76.2547 125.766 76.3583 125.833C76.46 125.899 76.4945 125.946 76.4682 125.915C76.4358 125.876 76.3212 125.729 76.1645 125.405L59.9617 133.245C61.4072 136.233 63.5459 138.986 66.5929 140.954C69.6629 142.937 73.0808 143.75 76.4631 143.75V125.75ZM76.116 125.306L30.791 34.4813L14.6851 42.5187L60.0101 133.344L76.116 125.306ZM24.9209 47.2313L28.4209 46.3563L24.0553 28.8937L20.5553 29.7687L24.9209 47.2313ZM17.2381 37.625V130.9H35.2381V37.625H17.2381ZM17.2381 130.9C17.2381 131.029 17.2272 131.095 17.2245 131.11C17.2221 131.123 17.2249 131.103 17.2412 131.062C17.2487 131.044 17.2574 131.025 17.2668 131.007C17.2762 130.99 17.2845 130.976 17.2903 130.968C17.303 130.949 17.2959 130.964 17.2491 131.011L29.977 143.739C33.4835 140.232 35.2381 135.755 35.2381 130.9H17.2381ZM17.2491 131.011C17.2024 131.058 17.1871 131.065 17.206 131.052C17.2145 131.046 17.2279 131.038 17.2456 131.029C17.2632 131.019 17.2819 131.011 17.3005 131.003C17.3406 130.987 17.3607 130.984 17.3477 130.986C17.3329 130.989 17.2672 131 17.1381 131V149C21.9929 149 26.4706 147.245 29.977 143.739L17.2491 131.011Z" fill="white" mask="url(#path-1-outside-1_8_122)"/>
</g>
<defs>
<filter id="filter0_d_8_122" x="0.0390625" y="0.325195" width="152.85" height="152.675" filterUnits="userSpaceOnUse" color-interpolation-filters="sRGB">
<feFlood flood-opacity="0" result="BackgroundImageFix"/>
<feColorMatrix in="SourceAlpha" type="matrix" values="0 0 0 0 0 0 0 0 0 0 0 0 0 0 0 0 0 0 127 0" result="hardAlpha"/>
<feOffset dy="5"/>
<feGaussianBlur stdDeviation="4"/>
<feComposite in2="hardAlpha" operator="out"/>
<feColorMatrix type="matrix" values="0 0 0 0 0 0 0 0 0 0 0 0 0 0 0 0 0 0 0.25 0"/>
<feBlend mode="normal" in2="BackgroundImageFix" result="effect1_dropShadow_8_122"/>
<feBlend mode="normal" in="SourceGraphic" in2="effect1_dropShadow_8_122" result="shape"/>
</filter>
</defs>
</svg>
