<svg width="134" height="65" viewBox="0 0 134 65" fill="none" xmlns="http://www.w3.org/2000/svg">
<mask id="path-2-outside-1_168_8016" maskUnits="userSpaceOnUse" x="2" y="12.1738" width="131" height="29" fill="black">
<rect fill="white" x="2" y="12.1738" width="131" height="29"/>
<path d="M4.93953 39.1738C4.46291 39.1738 4.06212 39.0113 3.73715 38.6864C3.41218 38.3614 3.24969 37.9606 3.24969 37.484V15.4836C3.24969 14.9853 3.41218 14.5845 3.73715 14.2812C4.06212 13.9562 4.46291 13.7937 4.93953 13.7937C5.58947 13.7937 6.08776 14.097 6.43439 14.7036L16.6059 35.0792H15.566L25.4776 14.7036C25.8242 14.097 26.3225 13.7937 26.9725 13.7937C27.4491 13.7937 27.8499 13.9562 28.1748 14.2812C28.4998 14.5845 28.6623 14.9853 28.6623 15.4836V37.484C28.6623 37.9606 28.489 38.3614 28.1423 38.6864C27.8174 39.0113 27.4274 39.1738 26.9725 39.1738C26.4958 39.1738 26.095 39.0113 25.7701 38.6864C25.4451 38.3614 25.2826 37.9606 25.2826 37.484V20.1631L25.9326 20.0006L17.4184 37.354C17.0501 37.9173 16.5626 38.1989 15.956 38.1989C15.2411 38.1989 14.7211 37.8631 14.3961 37.1915L5.97944 20.3256L6.62937 20.1631V37.484C6.62937 37.9606 6.46689 38.3614 6.14192 38.6864C5.81695 39.0113 5.41616 39.1738 4.93953 39.1738ZM43.2021 39.3038C41.404 39.3038 39.8008 38.9247 38.3926 38.1664C37.0061 37.3865 35.912 36.3249 35.1104 34.9817C34.3305 33.6169 33.9405 32.057 33.9405 30.3022C33.9405 28.5257 34.3088 26.9658 35.0454 25.6226C35.8037 24.2577 36.8436 23.1962 38.1651 22.4379C39.4867 21.658 41.0032 21.268 42.7147 21.268C44.4045 21.268 45.8561 21.6471 47.0693 22.4054C48.2825 23.142 49.2032 24.1711 49.8315 25.4926C50.4814 26.7925 50.8064 28.2982 50.8064 30.0097C50.8064 30.4213 50.6656 30.768 50.384 31.0496C50.1023 31.3096 49.7448 31.4396 49.3116 31.4396H36.2153V28.8398H49.2141L47.8817 29.7497C47.86 28.6665 47.6434 27.7024 47.2318 26.8575C46.8201 25.9909 46.2352 25.3085 45.4769 24.8102C44.7187 24.3119 43.7979 24.0628 42.7147 24.0628C41.4798 24.0628 40.4182 24.3336 39.53 24.8752C38.6634 25.4168 38.0026 26.1642 37.5477 27.1175C37.0927 28.049 36.8652 29.1106 36.8652 30.3022C36.8652 31.4937 37.136 32.5553 37.6777 33.4869C38.2193 34.4184 38.9667 35.155 39.9199 35.6967C40.8732 36.2383 41.9673 36.5091 43.2021 36.5091C43.8737 36.5091 44.5562 36.3899 45.2494 36.1516C45.9644 35.8916 46.5385 35.5992 46.9718 35.2742C47.2967 35.0359 47.6434 34.9167 48.0117 34.9167C48.4016 34.8951 48.7374 35.0034 49.0191 35.2417C49.3874 35.5667 49.5824 35.9241 49.604 36.3141C49.6257 36.7041 49.4524 37.0399 49.0841 37.3215C48.3475 37.9064 47.4267 38.3831 46.3218 38.7514C45.2386 39.1197 44.1987 39.3038 43.2021 39.3038ZM62.7511 39.3038C60.9529 39.3038 59.3497 38.9247 57.9415 38.1664C56.555 37.3865 55.4609 36.3249 54.6593 34.9817C53.8794 33.6169 53.4894 32.057 53.4894 30.3022C53.4894 28.5257 53.8577 26.9658 54.5943 25.6226C55.3526 24.2577 56.3925 23.1962 57.714 22.4379C59.0356 21.658 60.5521 21.268 62.2636 21.268C63.9535 21.268 65.405 21.6471 66.6182 22.4054C67.8314 23.142 68.7522 24.1711 69.3804 25.4926C70.0304 26.7925 70.3554 28.2982 70.3554 30.0097C70.3554 30.4213 70.2145 30.768 69.9329 31.0496C69.6513 31.3096 69.2938 31.4396 68.8605 31.4396H55.7642V28.8398H68.763L67.4306 29.7497C67.409 28.6665 67.1923 27.7024 66.7807 26.8575C66.3691 25.9909 65.7841 25.3085 65.0259 24.8102C64.2676 24.3119 63.3468 24.0628 62.2636 24.0628C61.0287 24.0628 59.9672 24.3336 59.0789 24.8752C58.2123 25.4168 57.5516 26.1642 57.0966 27.1175C56.6416 28.049 56.4142 29.1106 56.4142 30.3022C56.4142 31.4937 56.685 32.5553 57.2266 33.4869C57.7682 34.4184 58.5156 35.155 59.4689 35.6967C60.4221 36.2383 61.5162 36.5091 62.7511 36.5091C63.4227 36.5091 64.1051 36.3899 64.7984 36.1516C65.5133 35.8916 66.0874 35.5992 66.5207 35.2742C66.8457 35.0359 67.1923 34.9167 67.5606 34.9167C67.9506 34.8951 68.2864 35.0034 68.568 35.2417C68.9363 35.5667 69.1313 35.9241 69.153 36.3141C69.1746 36.7041 69.0013 37.0399 68.633 37.3215C67.8964 37.9064 66.9757 38.3831 65.8708 38.7514C64.7875 39.1197 63.7476 39.3038 62.7511 39.3038ZM81.0499 39.3038C79.5334 39.3038 78.1252 39.0763 76.8253 38.6214C75.5471 38.1448 74.5505 37.549 73.8356 36.834C73.5106 36.4874 73.3698 36.0975 73.4131 35.6642C73.4781 35.2092 73.6948 34.8409 74.0631 34.5593C74.4963 34.2126 74.9188 34.0718 75.3304 34.1368C75.7637 34.1801 76.132 34.3643 76.4353 34.6893C76.8036 35.1009 77.3886 35.4908 78.1902 35.8591C79.0134 36.2058 79.9233 36.3791 80.9199 36.3791C82.1765 36.3791 83.1297 36.1733 83.7796 35.7617C84.4512 35.35 84.7979 34.8192 84.8195 34.1693C84.8412 33.5194 84.5271 32.9561 83.8771 32.4795C83.2489 32.0028 82.0898 31.6129 80.4 31.3096C78.2118 30.8763 76.6195 30.2263 75.6229 29.3598C74.648 28.4932 74.1605 27.4316 74.1605 26.1751C74.1605 25.0702 74.4855 24.1602 75.1355 23.4453C75.7854 22.7087 76.6195 22.1671 77.6377 21.8205C78.656 21.4522 79.7175 21.268 80.8224 21.268C82.2523 21.268 83.5197 21.4955 84.6246 21.9505C85.7295 22.4054 86.6069 23.0337 87.2568 23.8353C87.5601 24.1819 87.7009 24.5502 87.6793 24.9402C87.6576 25.3085 87.4735 25.6226 87.1268 25.8826C86.7802 26.1209 86.3686 26.1967 85.8919 26.1101C85.4153 26.0234 85.0145 25.8284 84.6896 25.5251C84.1479 25.0052 83.563 24.6477 82.9347 24.4527C82.3064 24.2577 81.5807 24.1602 80.7574 24.1602C79.8042 24.1602 78.9918 24.3227 78.3202 24.6477C77.6702 24.9727 77.3452 25.4493 77.3452 26.0776C77.3452 26.4675 77.4427 26.825 77.6377 27.15C77.8544 27.4533 78.266 27.7349 78.8726 27.9949C79.4792 28.2332 80.3675 28.4715 81.5373 28.7098C83.1622 29.0348 84.4404 29.4464 85.372 29.9447C86.3252 30.443 87.0077 31.0279 87.4193 31.6995C87.8309 32.3495 88.0367 33.1077 88.0367 33.9743C88.0367 34.9709 87.7659 35.87 87.2243 36.6716C86.7044 37.4732 85.9244 38.1123 84.8845 38.5889C83.8663 39.0655 82.5881 39.3038 81.0499 39.3038ZM93.8202 28.0599C93.8202 26.76 94.1343 25.6009 94.7626 24.5827C95.4125 23.5428 96.2791 22.7195 97.3623 22.1129C98.4456 21.5063 99.6371 21.203 100.937 21.203C102.237 21.203 103.201 21.4197 103.829 21.853C104.479 22.2646 104.728 22.7629 104.577 23.3478C104.512 23.6511 104.382 23.8894 104.187 24.0628C104.013 24.2144 103.808 24.3119 103.569 24.3552C103.331 24.3986 103.071 24.3877 102.789 24.3227C101.403 24.0411 100.157 24.0194 99.0522 24.2577C97.9473 24.496 97.0699 24.9402 96.4199 25.5901C95.7916 26.24 95.4775 27.0633 95.4775 28.0599H93.8202ZM93.8527 39.1738C93.3327 39.1738 92.9319 39.0438 92.6503 38.7839C92.3686 38.5022 92.2278 38.0906 92.2278 37.549V23.0229C92.2278 22.5029 92.3686 22.1021 92.6503 21.8205C92.9319 21.5388 93.3327 21.398 93.8527 21.398C94.3943 21.398 94.7951 21.5388 95.0551 21.8205C95.3367 22.0804 95.4775 22.4812 95.4775 23.0229V37.549C95.4775 38.0689 95.3367 38.4697 95.0551 38.7514C94.7951 39.033 94.3943 39.1738 93.8527 39.1738ZM114.14 39.3038C112.559 39.3038 111.14 38.9139 109.883 38.1339C108.627 37.3323 107.63 36.2599 106.893 34.9167C106.178 33.5519 105.821 32.0137 105.821 30.3022C105.821 28.5907 106.211 27.0525 106.991 25.6876C107.792 24.3227 108.865 23.2503 110.208 22.4704C111.573 21.6688 113.1 21.268 114.79 21.268C116.48 21.268 117.996 21.6688 119.34 22.4704C120.683 23.2503 121.744 24.3227 122.524 25.6876C123.326 27.0525 123.727 28.5907 123.727 30.3022H122.459C122.459 32.0137 122.091 33.5519 121.354 34.9167C120.64 36.2599 119.654 37.3323 118.397 38.1339C117.141 38.9139 115.722 39.3038 114.14 39.3038ZM114.79 36.3791C115.895 36.3791 116.881 36.1191 117.747 35.5992C118.614 35.0575 119.296 34.3318 119.795 33.4219C120.293 32.4903 120.542 31.4504 120.542 30.3022C120.542 29.1323 120.293 28.0924 119.795 27.1825C119.296 26.2509 118.614 25.5251 117.747 25.0052C116.881 24.4635 115.895 24.1927 114.79 24.1927C113.707 24.1927 112.721 24.4635 111.833 25.0052C110.966 25.5251 110.273 26.2509 109.753 27.1825C109.255 28.0924 109.006 29.1323 109.006 30.3022C109.006 31.4504 109.255 32.4903 109.753 33.4219C110.273 34.3318 110.966 35.0575 111.833 35.5992C112.721 36.1191 113.707 36.3791 114.79 36.3791ZM122.069 39.2063C121.593 39.2063 121.192 39.0547 120.867 38.7514C120.564 38.4264 120.412 38.0256 120.412 37.549V32.577L121.029 29.1323L123.727 30.3022V37.549C123.727 38.0256 123.564 38.4264 123.239 38.7514C122.936 39.0547 122.546 39.2063 122.069 39.2063ZM129.602 39.6938C128.996 39.6938 128.465 39.4771 128.01 39.0438C127.577 38.5889 127.36 38.0581 127.36 37.4515C127.36 36.8232 127.577 36.2924 128.01 35.8591C128.465 35.4042 128.996 35.1767 129.602 35.1767C130.231 35.1767 130.761 35.4042 131.195 35.8591C131.628 36.2924 131.845 36.8232 131.845 37.4515C131.845 38.0581 131.628 38.5889 131.195 39.0438C130.761 39.4771 130.231 39.6938 129.602 39.6938Z"/>
</mask>
<path d="M4.93953 39.1738C4.46291 39.1738 4.06212 39.0113 3.73715 38.6864C3.41218 38.3614 3.24969 37.9606 3.24969 37.484V15.4836C3.24969 14.9853 3.41218 14.5845 3.73715 14.2812C4.06212 13.9562 4.46291 13.7937 4.93953 13.7937C5.58947 13.7937 6.08776 14.097 6.43439 14.7036L16.6059 35.0792H15.566L25.4776 14.7036C25.8242 14.097 26.3225 13.7937 26.9725 13.7937C27.4491 13.7937 27.8499 13.9562 28.1748 14.2812C28.4998 14.5845 28.6623 14.9853 28.6623 15.4836V37.484C28.6623 37.9606 28.489 38.3614 28.1423 38.6864C27.8174 39.0113 27.4274 39.1738 26.9725 39.1738C26.4958 39.1738 26.095 39.0113 25.7701 38.6864C25.4451 38.3614 25.2826 37.9606 25.2826 37.484V20.1631L25.9326 20.0006L17.4184 37.354C17.0501 37.9173 16.5626 38.1989 15.956 38.1989C15.2411 38.1989 14.7211 37.8631 14.3961 37.1915L5.97944 20.3256L6.62937 20.1631V37.484C6.62937 37.9606 6.46689 38.3614 6.14192 38.6864C5.81695 39.0113 5.41616 39.1738 4.93953 39.1738ZM43.2021 39.3038C41.404 39.3038 39.8008 38.9247 38.3926 38.1664C37.0061 37.3865 35.912 36.3249 35.1104 34.9817C34.3305 33.6169 33.9405 32.057 33.9405 30.3022C33.9405 28.5257 34.3088 26.9658 35.0454 25.6226C35.8037 24.2577 36.8436 23.1962 38.1651 22.4379C39.4867 21.658 41.0032 21.268 42.7147 21.268C44.4045 21.268 45.8561 21.6471 47.0693 22.4054C48.2825 23.142 49.2032 24.1711 49.8315 25.4926C50.4814 26.7925 50.8064 28.2982 50.8064 30.0097C50.8064 30.4213 50.6656 30.768 50.384 31.0496C50.1023 31.3096 49.7448 31.4396 49.3116 31.4396H36.2153V28.8398H49.2141L47.8817 29.7497C47.86 28.6665 47.6434 27.7024 47.2318 26.8575C46.8201 25.9909 46.2352 25.3085 45.4769 24.8102C44.7187 24.3119 43.7979 24.0628 42.7147 24.0628C41.4798 24.0628 40.4182 24.3336 39.53 24.8752C38.6634 25.4168 38.0026 26.1642 37.5477 27.1175C37.0927 28.049 36.8652 29.1106 36.8652 30.3022C36.8652 31.4937 37.136 32.5553 37.6777 33.4869C38.2193 34.4184 38.9667 35.155 39.9199 35.6967C40.8732 36.2383 41.9673 36.5091 43.2021 36.5091C43.8737 36.5091 44.5562 36.3899 45.2494 36.1516C45.9644 35.8916 46.5385 35.5992 46.9718 35.2742C47.2967 35.0359 47.6434 34.9167 48.0117 34.9167C48.4016 34.8951 48.7374 35.0034 49.0191 35.2417C49.3874 35.5667 49.5824 35.9241 49.604 36.3141C49.6257 36.7041 49.4524 37.0399 49.0841 37.3215C48.3475 37.9064 47.4267 38.3831 46.3218 38.7514C45.2386 39.1197 44.1987 39.3038 43.2021 39.3038ZM62.7511 39.3038C60.9529 39.3038 59.3497 38.9247 57.9415 38.1664C56.555 37.3865 55.4609 36.3249 54.6593 34.9817C53.8794 33.6169 53.4894 32.057 53.4894 30.3022C53.4894 28.5257 53.8577 26.9658 54.5943 25.6226C55.3526 24.2577 56.3925 23.1962 57.714 22.4379C59.0356 21.658 60.5521 21.268 62.2636 21.268C63.9535 21.268 65.405 21.6471 66.6182 22.4054C67.8314 23.142 68.7522 24.1711 69.3804 25.4926C70.0304 26.7925 70.3554 28.2982 70.3554 30.0097C70.3554 30.4213 70.2145 30.768 69.9329 31.0496C69.6513 31.3096 69.2938 31.4396 68.8605 31.4396H55.7642V28.8398H68.763L67.4306 29.7497C67.409 28.6665 67.1923 27.7024 66.7807 26.8575C66.3691 25.9909 65.7841 25.3085 65.0259 24.8102C64.2676 24.3119 63.3468 24.0628 62.2636 24.0628C61.0287 24.0628 59.9672 24.3336 59.0789 24.8752C58.2123 25.4168 57.5516 26.1642 57.0966 27.1175C56.6416 28.049 56.4142 29.1106 56.4142 30.3022C56.4142 31.4937 56.685 32.5553 57.2266 33.4869C57.7682 34.4184 58.5156 35.155 59.4689 35.6967C60.4221 36.2383 61.5162 36.5091 62.7511 36.5091C63.4227 36.5091 64.1051 36.3899 64.7984 36.1516C65.5133 35.8916 66.0874 35.5992 66.5207 35.2742C66.8457 35.0359 67.1923 34.9167 67.5606 34.9167C67.9506 34.8951 68.2864 35.0034 68.568 35.2417C68.9363 35.5667 69.1313 35.9241 69.153 36.3141C69.1746 36.7041 69.0013 37.0399 68.633 37.3215C67.8964 37.9064 66.9757 38.3831 65.8708 38.7514C64.7875 39.1197 63.7476 39.3038 62.7511 39.3038ZM81.0499 39.3038C79.5334 39.3038 78.1252 39.0763 76.8253 38.6214C75.5471 38.1448 74.5505 37.549 73.8356 36.834C73.5106 36.4874 73.3698 36.0975 73.4131 35.6642C73.4781 35.2092 73.6948 34.8409 74.0631 34.5593C74.4963 34.2126 74.9188 34.0718 75.3304 34.1368C75.7637 34.1801 76.132 34.3643 76.4353 34.6893C76.8036 35.1009 77.3886 35.4908 78.1902 35.8591C79.0134 36.2058 79.9233 36.3791 80.9199 36.3791C82.1765 36.3791 83.1297 36.1733 83.7796 35.7617C84.4512 35.35 84.7979 34.8192 84.8195 34.1693C84.8412 33.5194 84.5271 32.9561 83.8771 32.4795C83.2489 32.0028 82.0898 31.6129 80.4 31.3096C78.2118 30.8763 76.6195 30.2263 75.6229 29.3598C74.648 28.4932 74.1605 27.4316 74.1605 26.1751C74.1605 25.0702 74.4855 24.1602 75.1355 23.4453C75.7854 22.7087 76.6195 22.1671 77.6377 21.8205C78.656 21.4522 79.7175 21.268 80.8224 21.268C82.2523 21.268 83.5197 21.4955 84.6246 21.9505C85.7295 22.4054 86.6069 23.0337 87.2568 23.8353C87.5601 24.1819 87.7009 24.5502 87.6793 24.9402C87.6576 25.3085 87.4735 25.6226 87.1268 25.8826C86.7802 26.1209 86.3686 26.1967 85.8919 26.1101C85.4153 26.0234 85.0145 25.8284 84.6896 25.5251C84.1479 25.0052 83.563 24.6477 82.9347 24.4527C82.3064 24.2577 81.5807 24.1602 80.7574 24.1602C79.8042 24.1602 78.9918 24.3227 78.3202 24.6477C77.6702 24.9727 77.3452 25.4493 77.3452 26.0776C77.3452 26.4675 77.4427 26.825 77.6377 27.15C77.8544 27.4533 78.266 27.7349 78.8726 27.9949C79.4792 28.2332 80.3675 28.4715 81.5373 28.7098C83.1622 29.0348 84.4404 29.4464 85.372 29.9447C86.3252 30.443 87.0077 31.0279 87.4193 31.6995C87.8309 32.3495 88.0367 33.1077 88.0367 33.9743C88.0367 34.9709 87.7659 35.87 87.2243 36.6716C86.7044 37.4732 85.9244 38.1123 84.8845 38.5889C83.8663 39.0655 82.5881 39.3038 81.0499 39.3038ZM93.8202 28.0599C93.8202 26.76 94.1343 25.6009 94.7626 24.5827C95.4125 23.5428 96.2791 22.7195 97.3623 22.1129C98.4456 21.5063 99.6371 21.203 100.937 21.203C102.237 21.203 103.201 21.4197 103.829 21.853C104.479 22.2646 104.728 22.7629 104.577 23.3478C104.512 23.6511 104.382 23.8894 104.187 24.0628C104.013 24.2144 103.808 24.3119 103.569 24.3552C103.331 24.3986 103.071 24.3877 102.789 24.3227C101.403 24.0411 100.157 24.0194 99.0522 24.2577C97.9473 24.496 97.0699 24.9402 96.4199 25.5901C95.7916 26.24 95.4775 27.0633 95.4775 28.0599H93.8202ZM93.8527 39.1738C93.3327 39.1738 92.9319 39.0438 92.6503 38.7839C92.3686 38.5022 92.2278 38.0906 92.2278 37.549V23.0229C92.2278 22.5029 92.3686 22.1021 92.6503 21.8205C92.9319 21.5388 93.3327 21.398 93.8527 21.398C94.3943 21.398 94.7951 21.5388 95.0551 21.8205C95.3367 22.0804 95.4775 22.4812 95.4775 23.0229V37.549C95.4775 38.0689 95.3367 38.4697 95.0551 38.7514C94.7951 39.033 94.3943 39.1738 93.8527 39.1738ZM114.14 39.3038C112.559 39.3038 111.14 38.9139 109.883 38.1339C108.627 37.3323 107.63 36.2599 106.893 34.9167C106.178 33.5519 105.821 32.0137 105.821 30.3022C105.821 28.5907 106.211 27.0525 106.991 25.6876C107.792 24.3227 108.865 23.2503 110.208 22.4704C111.573 21.6688 113.1 21.268 114.79 21.268C116.48 21.268 117.996 21.6688 119.34 22.4704C120.683 23.2503 121.744 24.3227 122.524 25.6876C123.326 27.0525 123.727 28.5907 123.727 30.3022H122.459C122.459 32.0137 122.091 33.5519 121.354 34.9167C120.64 36.2599 119.654 37.3323 118.397 38.1339C117.141 38.9139 115.722 39.3038 114.14 39.3038ZM114.79 36.3791C115.895 36.3791 116.881 36.1191 117.747 35.5992C118.614 35.0575 119.296 34.3318 119.795 33.4219C120.293 32.4903 120.542 31.4504 120.542 30.3022C120.542 29.1323 120.293 28.0924 119.795 27.1825C119.296 26.2509 118.614 25.5251 117.747 25.0052C116.881 24.4635 115.895 24.1927 114.79 24.1927C113.707 24.1927 112.721 24.4635 111.833 25.0052C110.966 25.5251 110.273 26.2509 109.753 27.1825C109.255 28.0924 109.006 29.1323 109.006 30.3022C109.006 31.4504 109.255 32.4903 109.753 33.4219C110.273 34.3318 110.966 35.0575 111.833 35.5992C112.721 36.1191 113.707 36.3791 114.79 36.3791ZM122.069 39.2063C121.593 39.2063 121.192 39.0547 120.867 38.7514C120.564 38.4264 120.412 38.0256 120.412 37.549V32.577L121.029 29.1323L123.727 30.3022V37.549C123.727 38.0256 123.564 38.4264 123.239 38.7514C122.936 39.0547 122.546 39.2063 122.069 39.2063ZM129.602 39.6938C128.996 39.6938 128.465 39.4771 128.01 39.0438C127.577 38.5889 127.36 38.0581 127.36 37.4515C127.36 36.8232 127.577 36.2924 128.01 35.8591C128.465 35.4042 128.996 35.1767 129.602 35.1767C130.231 35.1767 130.761 35.4042 131.195 35.8591C131.628 36.2924 131.845 36.8232 131.845 37.4515C131.845 38.0581 131.628 38.5889 131.195 39.0438C130.761 39.4771 130.231 39.6938 129.602 39.6938Z" fill="#FF5500"/>
<path d="M3.73715 38.6864L3.25842 39.1651L3.25842 39.1651L3.73715 38.6864ZM3.73715 14.2812L4.19909 14.7761L4.20762 14.7682L4.21587 14.7599L3.73715 14.2812ZM6.43439 14.7036L7.04013 14.4013L7.03164 14.3842L7.02221 14.3677L6.43439 14.7036ZM16.6059 35.0792V35.7562H17.7006L17.2117 34.7768L16.6059 35.0792ZM15.566 35.0792L14.9572 34.7831L14.4838 35.7562H15.566V35.0792ZM25.4776 14.7036L24.8898 14.3677L24.8786 14.3873L24.8688 14.4075L25.4776 14.7036ZM28.1748 14.2812L27.6961 14.7599L27.7044 14.7682L27.7129 14.7761L28.1748 14.2812ZM28.1423 38.6864L27.6793 38.1925L27.6713 38.1999L27.6636 38.2076L28.1423 38.6864ZM25.2826 20.1631L25.1184 19.5063L24.6056 19.6345V20.1631H25.2826ZM25.9326 20.0006L26.5404 20.2988L27.1824 18.9903L25.7684 19.3438L25.9326 20.0006ZM17.4184 37.354L17.985 37.7245L18.0078 37.6896L18.0262 37.6522L17.4184 37.354ZM14.3961 37.1915L15.0056 36.8966L15.0019 36.8892L14.3961 37.1915ZM5.97944 20.3256L5.81523 19.6688L4.9971 19.8733L5.37366 20.6279L5.97944 20.3256ZM6.62937 20.1631H7.30639V19.296L6.46517 19.5063L6.62937 20.1631ZM4.93953 38.4968C4.63503 38.4968 4.40871 38.4005 4.21587 38.2076L3.25842 39.1651C3.71552 39.6222 4.29079 39.8508 4.93953 39.8508V38.4968ZM4.21587 38.2076C4.02303 38.0148 3.92671 37.7885 3.92671 37.484H2.57267C2.57267 38.1327 2.80132 38.708 3.25842 39.1651L4.21587 38.2076ZM3.92671 37.484V15.4836H2.57267V37.484H3.92671ZM3.92671 15.4836C3.92671 15.1479 4.02863 14.9352 4.19909 14.7761L3.2752 13.7862C2.79573 14.2337 2.57267 14.8227 2.57267 15.4836H3.92671ZM4.21587 14.7599C4.40871 14.5671 4.63503 14.4707 4.93953 14.4707V13.1167C4.29079 13.1167 3.71552 13.3454 3.25842 13.8025L4.21587 14.7599ZM4.93953 14.4707C5.32504 14.4707 5.60943 14.6245 5.84658 15.0395L7.02221 14.3677C6.56609 13.5695 5.85391 13.1167 4.93953 13.1167V14.4707ZM5.82866 15.006L16.0002 35.3816L17.2117 34.7768L7.04013 14.4013L5.82866 15.006ZM16.6059 34.4022H15.566V35.7562H16.6059V34.4022ZM16.1748 35.3754L26.0864 14.9998L24.8688 14.4075L14.9572 34.7831L16.1748 35.3754ZM26.0654 15.0395C26.3026 14.6245 26.587 14.4707 26.9725 14.4707V13.1167C26.0581 13.1167 25.3459 13.5695 24.8898 14.3677L26.0654 15.0395ZM26.9725 14.4707C27.277 14.4707 27.5033 14.5671 27.6961 14.7599L28.6536 13.8025C28.1965 13.3454 27.6212 13.1167 26.9725 13.1167V14.4707ZM27.7129 14.7761C27.8834 14.9352 27.9853 15.1479 27.9853 15.4836H29.3393C29.3393 14.8227 29.1163 14.2337 28.6368 13.7862L27.7129 14.7761ZM27.9853 15.4836V37.484H29.3393V15.4836H27.9853ZM27.9853 37.484C27.9853 37.7741 27.8889 37.9959 27.6793 38.1925L28.6054 39.1803C29.089 38.7269 29.3393 38.1471 29.3393 37.484H27.9853ZM27.6636 38.2076C27.4642 38.4071 27.2458 38.4968 26.9725 38.4968V39.8508C27.609 39.8508 28.1706 39.6156 28.6211 39.1651L27.6636 38.2076ZM26.9725 38.4968C26.668 38.4968 26.4416 38.4005 26.2488 38.2076L25.2913 39.1651C25.7484 39.6222 26.3237 39.8508 26.9725 39.8508V38.4968ZM26.2488 38.2076C26.056 38.0148 25.9596 37.7885 25.9596 37.484H24.6056C24.6056 38.1327 24.8342 38.708 25.2913 39.1651L26.2488 38.2076ZM25.9596 37.484V20.1631H24.6056V37.484H25.9596ZM25.4468 20.8199L26.0968 20.6574L25.7684 19.3438L25.1184 19.5063L25.4468 20.8199ZM25.3247 19.7024L16.8106 37.0558L18.0262 37.6522L26.5404 20.2988L25.3247 19.7024ZM16.8517 36.9835C16.5923 37.3803 16.3061 37.5219 15.956 37.5219V38.8759C16.8192 38.8759 17.5078 38.4543 17.985 37.7245L16.8517 36.9835ZM15.956 37.5219C15.7082 37.5219 15.5315 37.4651 15.3971 37.3783C15.261 37.2905 15.1251 37.1437 15.0056 36.8966L13.7867 37.4864C13.9921 37.9109 14.2787 38.2679 14.6625 38.5158C15.0481 38.7648 15.4889 38.8759 15.956 38.8759V37.5219ZM15.0019 36.8892L6.58521 20.0233L5.37366 20.6279L13.7904 37.4938L15.0019 36.8892ZM6.14364 20.9824L6.79358 20.8199L6.46517 19.5063L5.81523 19.6688L6.14364 20.9824ZM5.95235 20.1631V37.484H7.30639V20.1631H5.95235ZM5.95235 37.484C5.95235 37.7885 5.85604 38.0148 5.6632 38.2076L6.62065 39.1651C7.07774 38.708 7.30639 38.1327 7.30639 37.484H5.95235ZM5.6632 38.2076C5.47035 38.4005 5.24403 38.4968 4.93953 38.4968V39.8508C5.58828 39.8508 6.16355 39.6222 6.62065 39.1651L5.6632 38.2076ZM38.3926 38.1664L38.0606 38.7566L38.0716 38.7625L38.3926 38.1664ZM35.1104 34.9817L34.5225 35.3177L34.529 35.3287L35.1104 34.9817ZM35.0454 25.6226L34.4536 25.2938L34.4518 25.2971L35.0454 25.6226ZM38.1651 22.4379L38.5021 23.0252L38.5092 23.021L38.1651 22.4379ZM47.0693 22.4054L46.7104 22.9796L46.7179 22.9841L47.0693 22.4054ZM49.8315 25.4926L49.2199 25.7834L49.226 25.7954L49.8315 25.4926ZM50.384 31.0496L50.8432 31.5471L50.8531 31.5379L50.8627 31.5283L50.384 31.0496ZM36.2153 31.4396H35.5383V32.1166H36.2153V31.4396ZM36.2153 28.8398V28.1628H35.5383V28.8398H36.2153ZM49.2141 28.8398L49.5959 29.3989L51.4059 28.1628H49.2141V28.8398ZM47.8817 29.7497L47.2048 29.7633L47.2298 31.0147L48.2635 30.3088L47.8817 29.7497ZM47.2318 26.8575L46.6202 27.148L46.6231 27.154L47.2318 26.8575ZM39.53 24.8752L39.1775 24.2971L39.1712 24.3011L39.53 24.8752ZM37.5477 27.1175L38.156 27.4146L38.1587 27.4091L37.5477 27.1175ZM37.6777 33.4869L37.0924 33.8271L37.0924 33.8271L37.6777 33.4869ZM39.9199 35.6967L40.2544 35.108L40.2544 35.108L39.9199 35.6967ZM45.2494 36.1516L45.4696 36.792L45.4808 36.7879L45.2494 36.1516ZM46.9718 35.2742L46.5714 34.7282L46.5656 34.7326L46.9718 35.2742ZM48.0117 34.9167V35.5937H48.0305L48.0492 35.5927L48.0117 34.9167ZM49.0191 35.2417L49.4671 34.7339L49.4564 34.7249L49.0191 35.2417ZM49.604 36.3141L50.28 36.2765L50.28 36.2765L49.604 36.3141ZM49.0841 37.3215L48.6728 36.7836L48.6631 36.7913L49.0841 37.3215ZM46.3218 38.7514L46.1077 38.1091L46.1039 38.1104L46.3218 38.7514ZM43.2021 38.6268C41.5019 38.6268 40.0114 38.2692 38.7136 37.5703L38.0716 38.7625C39.5902 39.5802 41.3061 39.9808 43.2021 39.9808V38.6268ZM38.7245 37.5763C37.4391 36.8533 36.4318 35.8748 35.6918 34.6348L34.529 35.3287C35.3922 36.7751 36.573 37.9197 38.0607 38.7565L38.7245 37.5763ZM35.6982 34.6458C34.9833 33.3948 34.6175 31.9532 34.6175 30.3022H33.2635C33.2635 32.1608 33.6776 33.8389 34.5226 35.3176L35.6982 34.6458ZM34.6175 30.3022C34.6175 28.6212 34.9653 27.1767 35.639 25.9481L34.4518 25.2971C33.6523 26.755 33.2635 28.4302 33.2635 30.3022H34.6175ZM35.6372 25.9514C36.3372 24.6915 37.2902 23.7205 38.502 23.0251L37.8282 21.8507C36.397 22.6719 35.2701 23.824 34.4536 25.2938L35.6372 25.9514ZM38.5092 23.021C39.7148 22.3094 41.1099 21.945 42.7147 21.945V20.591C40.8964 20.591 39.2585 21.0065 37.821 21.8549L38.5092 23.021ZM42.7147 21.945C44.3009 21.945 45.623 22.2999 46.7104 22.9795L47.4281 21.8313C46.0891 20.9944 44.5081 20.591 42.7147 20.591V21.945ZM46.7179 22.9841C47.8145 23.6499 48.6467 24.5772 49.2201 25.7833L50.4429 25.2019C49.7598 23.765 48.7504 22.6341 47.4206 21.8267L46.7179 22.9841ZM49.226 25.7954C49.8212 26.9859 50.1294 28.3847 50.1294 30.0097H51.4834C51.4834 28.2117 51.1417 26.5991 50.4371 25.1898L49.226 25.7954ZM50.1294 30.0097C50.1294 30.2485 50.0552 30.4209 49.9052 30.5709L50.8627 31.5283C51.276 31.115 51.4834 30.5942 51.4834 30.0097H50.1294ZM49.9247 30.5521C49.7847 30.6814 49.5986 30.7625 49.3116 30.7625V32.1166C49.8911 32.1166 50.4199 31.9377 50.8432 31.5471L49.9247 30.5521ZM49.3116 30.7625H36.2153V32.1166H49.3116V30.7625ZM36.8923 31.4396V28.8398H35.5383V31.4396H36.8923ZM36.2153 29.5168H49.2141V28.1628H36.2153V29.5168ZM48.8323 28.2807L47.4999 29.1906L48.2635 30.3088L49.5959 29.3989L48.8323 28.2807ZM48.5586 29.7362C48.5352 28.5697 48.3011 27.5067 47.8404 26.561L46.6231 27.154C46.9856 27.8981 47.1848 28.7632 47.2048 29.7633L48.5586 29.7362ZM47.8433 26.567C47.3817 25.5951 46.7166 24.8147 45.8487 24.2444L45.1051 25.376C45.7537 25.8022 46.2586 26.3867 46.6202 27.148L47.8433 26.567ZM45.8487 24.2444C44.9601 23.6605 43.904 23.3857 42.7147 23.3857V24.7398C43.6918 24.7398 44.4772 24.9633 45.1051 25.376L45.8487 24.2444ZM42.7147 23.3857C41.3789 23.3857 40.1903 23.6796 39.1775 24.2971L39.8824 25.4532C40.6461 24.9876 41.5807 24.7398 42.7147 24.7398V23.3857ZM39.1712 24.3011C38.1916 24.9133 37.4451 25.7605 36.9367 26.8259L38.1587 27.4091C38.5601 26.568 39.1352 25.9203 39.8888 25.4493L39.1712 24.3011ZM36.9393 26.8204C36.4329 27.8574 36.1882 29.023 36.1882 30.3022H37.5423C37.5423 29.1982 37.7525 28.2407 38.156 27.4146L36.9393 26.8204ZM36.1882 30.3022C36.1882 31.6003 36.4845 32.7816 37.0924 33.8271L38.2629 33.1466C37.7876 32.329 37.5423 31.3872 37.5423 30.3022H36.1882ZM37.0924 33.8271C37.6953 34.8641 38.53 35.6856 39.5855 36.2853L40.2544 35.108C39.4034 34.6245 38.7433 33.9728 38.2629 33.1466L37.0924 33.8271ZM39.5855 36.2853C40.653 36.8919 41.8651 37.1861 43.2021 37.1861V35.8321C42.0694 35.8321 41.0933 35.5847 40.2544 35.108L39.5855 36.2853ZM43.2021 37.1861C43.9552 37.1861 44.7119 37.0523 45.4695 36.7919L45.0294 35.5114C44.4004 35.7276 43.7923 35.8321 43.2021 35.8321V37.1861ZM45.4808 36.7879C46.2351 36.5136 46.8747 36.1933 47.378 35.8158L46.5656 34.7326C46.2023 35.005 45.6936 35.2697 45.0181 35.5154L45.4808 36.7879ZM47.3721 35.8201C47.5925 35.6585 47.801 35.5937 48.0117 35.5937V34.2397C47.4857 34.2397 47.001 34.4132 46.5714 34.7282L47.3721 35.8201ZM48.0492 35.5927C48.2775 35.58 48.4405 35.639 48.5818 35.7585L49.4564 34.7249C49.0343 34.3677 48.5257 34.2101 47.9741 34.2408L48.0492 35.5927ZM48.5712 35.7494C48.8406 35.9871 48.9189 36.1865 48.9281 36.3517L50.28 36.2765C50.2459 35.6618 49.9342 35.1463 49.467 34.734L48.5712 35.7494ZM48.9281 36.3517C48.9348 36.4737 48.9013 36.609 48.6728 36.7837L49.4953 37.8593C50.0034 37.4708 50.3166 36.9344 50.28 36.2765L48.9281 36.3517ZM48.6631 36.7913C48.0011 37.317 47.1548 37.7601 46.1077 38.1091L46.5359 39.3936C47.6986 39.0061 48.6938 38.4959 49.5051 37.8517L48.6631 36.7913ZM46.1039 38.1104C45.0806 38.4583 44.1145 38.6268 43.2021 38.6268V39.9808C44.2829 39.9808 45.3966 39.781 46.5398 39.3924L46.1039 38.1104ZM57.9415 38.1664L57.6095 38.7566L57.6205 38.7625L57.9415 38.1664ZM54.6593 34.9817L54.0714 35.3177L54.078 35.3287L54.6593 34.9817ZM54.5943 25.6226L54.0025 25.2938L54.0007 25.2971L54.5943 25.6226ZM57.714 22.4379L58.051 23.0252L58.0581 23.021L57.714 22.4379ZM66.6182 22.4054L66.2594 22.9796L66.2668 22.9841L66.6182 22.4054ZM69.3804 25.4926L68.7689 25.7834L68.7749 25.7954L69.3804 25.4926ZM69.9329 31.0496L70.3921 31.5471L70.402 31.5379L70.4116 31.5283L69.9329 31.0496ZM55.7642 31.4396H55.0872V32.1166H55.7642V31.4396ZM55.7642 28.8398V28.1628H55.0872V28.8398H55.7642ZM68.763 28.8398L69.1448 29.3989L70.9548 28.1628H68.763V28.8398ZM67.4306 29.7497L66.7537 29.7633L66.7788 31.0147L67.8124 30.3088L67.4306 29.7497ZM66.7807 26.8575L66.1691 27.148L66.1721 27.154L66.7807 26.8575ZM59.0789 24.8752L58.7264 24.2971L58.7201 24.3011L59.0789 24.8752ZM57.0966 27.1175L57.705 27.4146L57.7076 27.4091L57.0966 27.1175ZM57.2266 33.4869L56.6413 33.8271L56.6413 33.8271L57.2266 33.4869ZM59.4689 35.6967L59.8033 35.108L59.8033 35.108L59.4689 35.6967ZM64.7984 36.1516L65.0185 36.792L65.0297 36.7879L64.7984 36.1516ZM66.5207 35.2742L66.1203 34.7282L66.1145 34.7326L66.5207 35.2742ZM67.5606 34.9167V35.5937H67.5794L67.5982 35.5927L67.5606 34.9167ZM68.568 35.2417L69.016 34.7339L69.0053 34.7249L68.568 35.2417ZM69.153 36.3141L69.8289 36.2765L69.8289 36.2765L69.153 36.3141ZM68.633 37.3215L68.2217 36.7836L68.212 36.7913L68.633 37.3215ZM65.8708 38.7514L65.6567 38.1091L65.6528 38.1104L65.8708 38.7514ZM62.7511 38.6268C61.0508 38.6268 59.5603 38.2692 58.2625 37.5703L57.6205 38.7625C59.1391 39.5802 60.855 39.9808 62.7511 39.9808V38.6268ZM58.2734 37.5763C56.988 36.8533 55.9807 35.8748 55.2407 34.6348L54.078 35.3287C54.9411 36.7751 56.122 37.9197 57.6096 38.7565L58.2734 37.5763ZM55.2471 34.6458C54.5323 33.3948 54.1665 31.9532 54.1665 30.3022H52.8124C52.8124 32.1608 53.2266 33.8389 54.0715 35.3176L55.2471 34.6458ZM54.1665 30.3022C54.1665 28.6212 54.5142 27.1767 55.188 25.9481L54.0007 25.2971C53.2012 26.755 52.8124 28.4302 52.8124 30.3022H54.1665ZM55.1862 25.9514C55.8861 24.6915 56.8391 23.7205 58.051 23.0251L57.3771 21.8507C55.9459 22.6719 54.8191 23.824 54.0025 25.2938L55.1862 25.9514ZM58.0581 23.021C59.2638 22.3094 60.6588 21.945 62.2636 21.945V20.591C60.4454 20.591 58.8074 21.0065 57.3699 21.8549L58.0581 23.021ZM62.2636 21.945C63.8499 21.945 65.1719 22.2999 66.2594 22.9795L66.977 21.8313C65.638 20.9944 64.0571 20.591 62.2636 20.591V21.945ZM66.2668 22.9841C67.3635 23.6499 68.1956 24.5772 68.769 25.7833L69.9919 25.2019C69.3087 23.765 68.2994 22.6341 66.9696 21.8267L66.2668 22.9841ZM68.7749 25.7954C69.3702 26.9859 69.6783 28.3847 69.6783 30.0097H71.0324C71.0324 28.2117 70.6906 26.5991 69.986 25.1898L68.7749 25.7954ZM69.6783 30.0097C69.6783 30.2485 69.6042 30.4209 69.4542 30.5709L70.4116 31.5283C70.8249 31.115 71.0324 30.5942 71.0324 30.0097H69.6783ZM69.4737 30.5521C69.3336 30.6814 69.1475 30.7625 68.8605 30.7625V32.1166C69.4401 32.1166 69.9689 31.9377 70.3921 31.5471L69.4737 30.5521ZM68.8605 30.7625H55.7642V32.1166H68.8605V30.7625ZM56.4412 31.4396V28.8398H55.0872V31.4396H56.4412ZM55.7642 29.5168H68.763V28.1628H55.7642V29.5168ZM68.3812 28.2807L67.0488 29.1906L67.8124 30.3088L69.1448 29.3989L68.3812 28.2807ZM68.1075 29.7362C68.0842 28.5697 67.85 27.5067 67.3893 26.561L66.1721 27.154C66.5346 27.8981 66.7337 28.7632 66.7537 29.7633L68.1075 29.7362ZM67.3922 26.567C66.9306 25.5951 66.2656 24.8147 65.3977 24.2444L64.654 25.376C65.3027 25.8022 65.8075 26.3867 66.1692 27.148L67.3922 26.567ZM65.3977 24.2444C64.5091 23.6605 63.453 23.3857 62.2636 23.3857V24.7398C63.2407 24.7398 64.0261 24.9633 64.654 25.376L65.3977 24.2444ZM62.2636 23.3857C60.9279 23.3857 59.7393 23.6796 58.7265 24.2971L59.4314 25.4532C60.1951 24.9876 61.1296 24.7398 62.2636 24.7398V23.3857ZM58.7201 24.3011C57.7405 24.9133 56.9941 25.7605 56.4856 26.8259L57.7076 27.4091C58.109 26.568 58.6842 25.9203 59.4377 25.4493L58.7201 24.3011ZM56.4883 26.8204C55.9818 27.8574 55.7371 29.023 55.7371 30.3022H57.0912C57.0912 29.1982 57.3015 28.2407 57.7049 27.4146L56.4883 26.8204ZM55.7371 30.3022C55.7371 31.6003 56.0334 32.7816 56.6413 33.8271L57.8119 33.1466C57.3365 32.329 57.0912 31.3872 57.0912 30.3022H55.7371ZM56.6413 33.8271C57.2442 34.8641 58.079 35.6856 59.1344 36.2853L59.8033 35.108C58.9523 34.6245 58.2922 33.9728 57.8119 33.1466L56.6413 33.8271ZM59.1344 36.2853C60.202 36.8919 61.414 37.1861 62.7511 37.1861V35.8321C61.6183 35.8321 60.6423 35.5847 59.8033 35.108L59.1344 36.2853ZM62.7511 37.1861C63.5041 37.1861 64.2608 37.0523 65.0185 36.7919L64.5783 35.5114C63.9494 35.7276 63.3412 35.8321 62.7511 35.8321V37.1861ZM65.0297 36.7879C65.7841 36.5136 66.4236 36.1933 66.9269 35.8158L66.1145 34.7326C65.7512 35.005 65.2425 35.2697 64.567 35.5154L65.0297 36.7879ZM66.9211 35.8201C67.1415 35.6585 67.35 35.5937 67.5606 35.5937V34.2397C67.0347 34.2397 66.5499 34.4132 66.1203 34.7282L66.9211 35.8201ZM67.5982 35.5927C67.8265 35.58 67.9895 35.639 68.1307 35.7585L69.0053 34.7249C68.5833 34.3677 68.0747 34.2101 67.5231 34.2408L67.5982 35.5927ZM68.1201 35.7494C68.3895 35.9871 68.4678 36.1865 68.477 36.3517L69.8289 36.2765C69.7948 35.6618 69.4831 35.1463 69.016 34.734L68.1201 35.7494ZM68.477 36.3517C68.4838 36.4737 68.4503 36.609 68.2218 36.7837L69.0443 37.8593C69.5523 37.4708 69.8655 36.9344 69.8289 36.2765L68.477 36.3517ZM68.212 36.7913C67.5501 37.317 66.7038 37.7601 65.6567 38.1091L66.0849 39.3936C67.2476 39.0061 68.2428 38.4959 69.054 37.8517L68.212 36.7913ZM65.6528 38.1104C64.6296 38.4583 63.6634 38.6268 62.7511 38.6268V39.9808C63.8318 39.9808 64.9455 39.781 66.0887 39.3924L65.6528 38.1104ZM76.8253 38.6214L76.5887 39.2559L76.6016 39.2604L76.8253 38.6214ZM73.8356 36.834L73.3417 37.2971L73.3491 37.3051L73.3568 37.3128L73.8356 36.834ZM73.4131 35.6642L72.7429 35.5684L72.7409 35.5826L72.7395 35.5968L73.4131 35.6642ZM74.0631 34.5593L74.4743 35.0971L74.4802 35.0926L74.486 35.0879L74.0631 34.5593ZM75.3304 34.1368L75.2248 34.8055L75.2439 34.8085L75.2631 34.8105L75.3304 34.1368ZM76.4353 34.6893L76.9399 34.2378L76.9351 34.2325L76.9303 34.2273L76.4353 34.6893ZM78.1902 35.8591L77.9075 36.4743L77.9174 36.4789L77.9274 36.4831L78.1902 35.8591ZM83.7796 35.7617L83.4258 35.1844L83.4174 35.1897L83.7796 35.7617ZM84.8195 34.1693L85.4962 34.1919L85.4962 34.1919L84.8195 34.1693ZM83.8771 32.4795L83.4679 33.0189L83.4768 33.0254L83.8771 32.4795ZM80.4 31.3096L80.2684 31.9738L80.2804 31.9759L80.4 31.3096ZM75.6229 29.3598L75.1731 29.8658L75.1787 29.8706L75.6229 29.3598ZM75.1355 23.4453L75.6365 23.9008L75.6431 23.8932L75.1355 23.4453ZM77.6377 21.8205L77.8559 22.4615L77.868 22.4571L77.6377 21.8205ZM84.6246 21.9505L84.8823 21.3244L84.8823 21.3244L84.6246 21.9505ZM87.2568 23.8353L86.7309 24.2617L86.7389 24.2715L86.7473 24.2811L87.2568 23.8353ZM87.6793 24.9402L88.3551 24.9799L88.3552 24.9777L87.6793 24.9402ZM87.1268 25.8826L87.5104 26.4405L87.5219 26.4326L87.533 26.4242L87.1268 25.8826ZM85.8919 26.1101L85.7708 26.7762L85.7708 26.7762L85.8919 26.1101ZM84.6896 25.5251L84.2206 26.0136L84.2276 26.0201L84.6896 25.5251ZM82.9347 24.4527L82.734 25.0993L82.734 25.0993L82.9347 24.4527ZM78.3202 24.6477L78.0252 24.0382L78.0174 24.0422L78.3202 24.6477ZM77.6377 27.15L77.0572 27.4983L77.0711 27.5215L77.0868 27.5435L77.6377 27.15ZM78.8726 27.9949L78.6059 28.6172L78.6154 28.6212L78.625 28.625L78.8726 27.9949ZM81.5373 28.7098L81.4022 29.3732L81.4046 29.3737L81.5373 28.7098ZM85.372 29.9447L85.0527 30.5417L85.0584 30.5447L85.372 29.9447ZM87.4193 31.6995L86.842 32.0534L86.8473 32.0618L87.4193 31.6995ZM87.2243 36.6716L86.6632 36.2925L86.6563 36.3031L87.2243 36.6716ZM84.8845 38.5889L84.6024 37.9734L84.5975 37.9757L84.8845 38.5889ZM81.0499 38.6268C79.6019 38.6268 78.27 38.4098 77.0489 37.9824L76.6016 39.2604C77.9803 39.7429 79.4649 39.9808 81.0499 39.9808V38.6268ZM77.0618 37.987C75.8445 37.5331 74.941 36.9821 74.3143 36.3553L73.3568 37.3128C74.16 38.1159 75.2497 38.7564 76.5888 39.2557L77.0618 37.987ZM74.3295 36.371C74.1245 36.1523 74.0648 35.9513 74.0868 35.7315L72.7395 35.5968C72.6748 36.2436 72.8967 36.8225 73.3417 37.2971L74.3295 36.371ZM74.0833 35.7599C74.123 35.4823 74.2455 35.272 74.4743 35.0971L73.6518 34.0215C73.144 34.4098 72.8332 34.9361 72.7429 35.5684L74.0833 35.7599ZM74.486 35.0879C74.8223 34.8189 75.058 34.7792 75.2248 34.8055L75.436 33.4681C74.7796 33.3644 74.1704 33.6064 73.6401 34.0306L74.486 35.0879ZM75.2631 34.8105C75.5292 34.8371 75.7466 34.9436 75.9404 35.1512L76.9303 34.2273C76.5174 33.785 75.9983 33.5232 75.3978 33.4631L75.2631 34.8105ZM75.9308 35.1407C76.387 35.6506 77.0661 36.0878 77.9075 36.4743L78.4728 35.2439C77.711 34.8939 77.2202 34.5512 76.9399 34.2378L75.9308 35.1407ZM77.9274 36.4831C78.843 36.8686 79.8435 37.0561 80.9199 37.0561V35.7021C80.0031 35.7021 79.1839 35.543 78.4529 35.2352L77.9274 36.4831ZM80.9199 37.0561C82.2315 37.0561 83.335 36.8447 84.1419 36.3336L83.4174 35.1897C82.9244 35.5019 82.1214 35.7021 80.9199 35.7021V37.0561ZM84.1334 36.3389C84.952 35.8372 85.4653 35.1193 85.4962 34.1919L84.1429 34.1467C84.1305 34.5192 83.9505 34.8629 83.4259 35.1844L84.1334 36.3389ZM85.4962 34.1919C85.5271 33.264 85.0589 32.5066 84.2775 31.9335L83.4768 33.0254C83.9952 33.4056 84.1553 33.7747 84.1429 34.1467L85.4962 34.1919ZM84.2863 31.9401C83.5195 31.3583 82.2186 30.9482 80.5196 30.6432L80.2804 31.9759C81.961 32.2776 82.9783 32.6473 83.4679 33.0188L84.2863 31.9401ZM80.5315 30.6454C78.3888 30.2212 76.9328 29.6016 76.0672 28.8489L75.1787 29.8706C76.3062 30.8511 78.0348 31.5314 80.2684 31.9737L80.5315 30.6454ZM76.0727 28.8537C75.2361 28.1101 74.8376 27.23 74.8376 26.1751H73.4835C73.4835 27.6332 74.0599 28.8763 75.1731 29.8658L76.0727 28.8537ZM74.8376 26.1751C74.8376 25.2127 75.116 24.4731 75.6364 23.9007L74.6345 22.9899C73.855 23.8474 73.4835 24.9276 73.4835 26.1751H74.8376ZM75.6431 23.8932C76.2077 23.2533 76.9384 22.7737 77.8559 22.4614L77.4195 21.1796C76.3005 21.5605 75.363 22.1641 74.6278 22.9974L75.6431 23.8932ZM77.868 22.4571C78.8109 22.1161 79.7944 21.945 80.8224 21.945V20.591C79.6406 20.591 78.501 20.7883 77.4074 21.1838L77.868 22.4571ZM80.8224 21.945C82.1809 21.945 83.358 22.1611 84.3668 22.5765L84.8823 21.3244C83.6813 20.8299 82.3237 20.591 80.8224 20.591V21.945ZM84.3668 22.5765C85.3837 22.9952 86.1628 23.561 86.7309 24.2617L87.7827 23.4089C87.0509 22.5064 86.0752 21.8156 84.8823 21.3244L84.3668 22.5765ZM86.7473 24.2811C86.9565 24.5202 87.0134 24.7206 87.0033 24.9026L88.3552 24.9777C88.3885 24.3798 88.1637 23.8437 87.7663 23.3895L86.7473 24.2811ZM87.0034 24.9004C86.9955 25.0345 86.9387 25.1774 86.7206 25.341L87.533 26.4242C88.0082 26.0678 88.3197 25.5825 88.3551 24.9799L87.0034 24.9004ZM86.7433 25.3247C86.5665 25.4462 86.3426 25.5039 86.013 25.444L85.7708 26.7762C86.3945 26.8895 86.9939 26.7956 87.5104 26.4405L86.7433 25.3247ZM86.013 25.444C85.6522 25.3783 85.3731 25.237 85.1515 25.0302L84.2276 26.0201C84.6559 26.4198 85.1785 26.6685 85.7708 26.7762L86.013 25.444ZM85.1584 25.0367C84.5517 24.4543 83.8775 24.0364 83.1354 23.8061L82.734 25.0993C83.2485 25.259 83.7442 25.5561 84.2207 26.0135L85.1584 25.0367ZM83.1354 23.8061C82.4282 23.5866 81.6324 23.4832 80.7574 23.4832V24.8373C81.529 24.8373 82.1847 24.9288 82.734 25.0993L83.1354 23.8061ZM80.7574 23.4832C79.7295 23.4832 78.8107 23.6582 78.0253 24.0383L78.615 25.2571C79.1728 24.9872 79.8789 24.8373 80.7574 24.8373V23.4832ZM78.0174 24.0422C77.6155 24.2431 77.2719 24.5121 77.0296 24.8675C76.7836 25.2283 76.6682 25.6401 76.6682 26.0776H78.0223C78.0223 25.8868 78.0694 25.7461 78.1483 25.6303C78.231 25.509 78.3749 25.3773 78.6229 25.2532L78.0174 24.0422ZM76.6682 26.0776C76.6682 26.5865 76.7972 27.0649 77.0572 27.4983L78.2183 26.8016C78.0883 26.585 78.0223 26.3486 78.0223 26.0776H76.6682ZM77.0868 27.5435C77.4119 27.9986 77.9615 28.341 78.6059 28.6172L79.1393 27.3726C78.5704 27.1288 78.2969 26.908 78.1886 26.7565L77.0868 27.5435ZM78.625 28.625C79.2865 28.8849 80.2199 29.1324 81.4022 29.3732L81.6725 28.0464C80.515 27.8106 79.672 27.5815 79.1202 27.3647L78.625 28.625ZM81.4046 29.3737C82.9968 29.6921 84.2031 30.0873 85.0527 30.5417L85.6913 29.3477C84.6777 28.8056 83.3276 28.3774 81.6701 28.0459L81.4046 29.3737ZM85.0584 30.5447C85.9412 31.0062 86.5137 31.5175 86.8421 32.0533L87.9965 31.3457C87.5016 30.5383 86.7092 29.8798 85.6856 29.3447L85.0584 30.5447ZM86.8473 32.0618C87.1819 32.5901 87.3597 33.2193 87.3597 33.9743H88.7138C88.7138 32.9962 88.4799 32.1089 87.9913 31.3373L86.8473 32.0618ZM87.3597 33.9743C87.3597 34.8401 87.1269 35.6064 86.6633 36.2925L87.7853 37.0506C88.4049 36.1335 88.7138 35.1017 88.7138 33.9743H87.3597ZM86.6563 36.3031C86.219 36.9773 85.5488 37.5397 84.6024 37.9734L85.1666 39.2043C86.3 38.6848 87.1897 37.969 87.7923 37.04L86.6563 36.3031ZM84.5975 37.9757C83.6958 38.3978 82.5233 38.6268 81.0499 38.6268V39.9808C82.6528 39.9808 84.0368 39.7332 85.1715 39.2021L84.5975 37.9757ZM93.8202 28.0599H93.1431V28.7369H93.8202V28.0599ZM94.7626 24.5827L94.1885 24.2239L94.1864 24.2272L94.7626 24.5827ZM97.3623 22.1129L97.0315 21.5222L97.0315 21.5222L97.3623 22.1129ZM103.829 21.853L103.445 22.4103L103.456 22.4178L103.467 22.4249L103.829 21.853ZM104.577 23.3478L103.921 23.1779L103.918 23.1919L103.915 23.206L104.577 23.3478ZM104.187 24.0628L104.633 24.5723L104.636 24.5688L104.187 24.0628ZM103.569 24.3552L103.448 23.6891L103.448 23.6891L103.569 24.3552ZM102.789 24.3227L102.942 23.663L102.933 23.661L102.924 23.6593L102.789 24.3227ZM96.4199 25.5901L95.9411 25.1113L95.9332 25.1196L96.4199 25.5901ZM95.4775 28.0599V28.7369H96.1545V28.0599H95.4775ZM92.6503 38.7839L92.1716 39.2626L92.1811 39.2722L92.1911 39.2813L92.6503 38.7839ZM92.6503 21.8205L93.129 22.2992L93.129 22.2992L92.6503 21.8205ZM95.0551 21.8205L94.5576 22.2797L94.5759 22.2996L94.5958 22.3179L95.0551 21.8205ZM95.0551 38.7514L94.5763 38.2726L94.5668 38.2822L94.5576 38.2922L95.0551 38.7514ZM94.4972 28.0599C94.4972 26.8743 94.7821 25.8404 95.3387 24.9382L94.1864 24.2272C93.4865 25.3615 93.1431 26.6457 93.1431 28.0599H94.4972ZM95.3367 24.9415C95.9255 23.9994 96.7079 23.2554 97.6931 22.7036L97.0315 21.5222C95.8503 22.1837 94.8995 23.0862 94.1885 24.2239L95.3367 24.9415ZM97.6931 22.7036C98.6705 22.1563 99.7473 21.88 100.937 21.88V20.526C99.5269 20.526 98.2207 20.8563 97.0315 21.5222L97.6931 22.7036ZM100.937 21.88C102.186 21.88 102.984 22.0927 103.445 22.4103L104.214 21.2956C103.418 20.7467 102.288 20.526 100.937 20.526V21.88ZM103.467 22.4249C103.726 22.5889 103.846 22.7335 103.898 22.8382C103.943 22.9281 103.96 23.0293 103.921 23.1779L105.232 23.5177C105.345 23.0814 105.313 22.641 105.109 22.2326C104.912 21.839 104.583 21.5287 104.191 21.281L103.467 22.4249ZM103.915 23.206C103.874 23.3958 103.805 23.4962 103.737 23.5567L104.636 24.5688C104.958 24.2827 105.149 23.9065 105.239 23.4897L103.915 23.206ZM103.741 23.5532C103.664 23.6201 103.573 23.6665 103.448 23.6891L103.69 25.0213C104.043 24.9573 104.362 24.8087 104.633 24.5723L103.741 23.5532ZM103.448 23.6891C103.316 23.7131 103.151 23.7113 102.942 23.663L102.637 24.9824C102.991 25.0642 103.346 25.084 103.69 25.0213L103.448 23.6891ZM102.924 23.6593C101.468 23.3635 100.126 23.3336 98.9094 23.5959L99.1949 24.9195C100.188 24.7052 101.337 24.7186 102.655 24.9862L102.924 23.6593ZM98.9094 23.5959C97.7066 23.8554 96.7023 24.3502 95.9412 25.1114L96.8986 26.0688C97.4374 25.5301 98.1879 25.1367 99.1949 24.9195L98.9094 23.5959ZM95.9332 25.1196C95.1698 25.9092 94.8005 26.9074 94.8005 28.0599H96.1545C96.1545 27.2192 96.4135 26.5709 96.9067 26.0607L95.9332 25.1196ZM95.4775 27.3829H93.8202V28.7369H95.4775V27.3829ZM93.8527 38.4968C93.4413 38.4968 93.2272 38.395 93.1095 38.2864L92.1911 39.2813C92.6366 39.6926 93.2241 39.8508 93.8527 39.8508V38.4968ZM93.129 38.3051C93.0146 38.1907 92.9048 37.9773 92.9048 37.549H91.5508C91.5508 38.2039 91.7227 38.8138 92.1716 39.2626L93.129 38.3051ZM92.9048 37.549V23.0229H91.5508V37.549H92.9048ZM92.9048 23.0229C92.9048 22.6254 93.0097 22.4185 93.129 22.2992L92.1716 21.3417C91.7276 21.7857 91.5508 22.3804 91.5508 23.0229H92.9048ZM93.129 22.2992C93.2483 22.1799 93.4552 22.075 93.8527 22.075V20.721C93.2102 20.721 92.6155 20.8978 92.1716 21.3417L93.129 22.2992ZM93.8527 22.075C94.2853 22.075 94.4714 22.1864 94.5576 22.2797L95.5525 21.3613C95.1187 20.8913 94.5033 20.721 93.8527 20.721V22.075ZM94.5958 22.3179C94.6891 22.4041 94.8005 22.5902 94.8005 23.0229H96.1545C96.1545 22.3722 95.9842 21.7568 95.5143 21.323L94.5958 22.3179ZM94.8005 23.0229V37.549H96.1545V23.0229H94.8005ZM94.8005 37.549C94.8005 37.9465 94.6956 38.1533 94.5763 38.2726L95.5338 39.2301C95.9777 38.7861 96.1545 38.1914 96.1545 37.549H94.8005ZM94.5576 38.2922C94.4714 38.3855 94.2853 38.4968 93.8527 38.4968V39.8508C94.5033 39.8508 95.1187 39.6806 95.5525 39.2106L94.5576 38.2922ZM109.883 38.1339L109.519 38.7047L109.526 38.7091L109.883 38.1339ZM106.893 34.9167L106.293 35.2309L106.3 35.2423L106.893 34.9167ZM106.991 25.6876L106.407 25.3447L106.403 25.3517L106.991 25.6876ZM110.208 22.4704L110.548 23.0559L110.551 23.0542L110.208 22.4704ZM119.34 22.4704L118.993 23.0518L119 23.0559L119.34 22.4704ZM122.524 25.6876L121.936 26.0235L121.941 26.0305L122.524 25.6876ZM123.727 30.3022V30.9792H124.404V30.3022H123.727ZM122.459 30.3022V29.6251H121.782V30.3022H122.459ZM121.354 34.9167L120.759 34.5952L120.757 34.5986L121.354 34.9167ZM118.397 38.1339L118.754 38.7092L118.761 38.7047L118.397 38.1339ZM117.747 35.5992L118.096 36.1798L118.106 36.1733L117.747 35.5992ZM119.795 33.4219L120.388 33.7471L120.392 33.7412L119.795 33.4219ZM119.795 27.1825L119.198 27.5018L119.201 27.5076L119.795 27.1825ZM117.747 25.0052L117.388 25.5794L117.399 25.5857L117.747 25.0052ZM111.833 25.0052L112.181 25.5857L112.185 25.5832L111.833 25.0052ZM109.753 27.1825L109.162 26.8525L109.159 26.8573L109.753 27.1825ZM109.753 33.4219L109.156 33.7412L109.161 33.7495L109.165 33.7578L109.753 33.4219ZM111.833 35.5992L111.474 36.1733L111.482 36.1785L111.491 36.1834L111.833 35.5992ZM120.867 38.7514L120.372 39.2133L120.388 39.2304L120.405 39.2463L120.867 38.7514ZM120.412 32.577L119.746 32.4575L119.735 32.5168V32.577H120.412ZM121.029 29.1323L121.299 28.5112L120.514 28.1707L120.363 29.0128L121.029 29.1323ZM123.727 30.3022H124.404V29.8579L123.996 29.6811L123.727 30.3022ZM123.239 38.7514L123.718 39.2301L123.718 39.2301L123.239 38.7514ZM114.14 38.6268C112.676 38.6268 111.382 38.2674 110.24 37.5587L109.526 38.7091C110.897 39.5603 112.442 39.9808 114.14 39.9808V38.6268ZM110.247 37.5632C109.089 36.8245 108.17 35.8376 107.487 34.5912L106.3 35.2423C107.089 36.6823 108.164 37.8402 109.519 38.7047L110.247 37.5632ZM107.493 34.6026C106.834 33.345 106.498 31.9166 106.498 30.3022H105.144C105.144 32.1108 105.522 33.7587 106.294 35.2309L107.493 34.6026ZM106.498 30.3022C106.498 28.6977 106.862 27.2771 107.579 26.0235L106.403 25.3517C105.56 26.8278 105.144 28.4836 105.144 30.3022H106.498ZM107.575 26.0305C108.318 24.7641 109.308 23.7761 110.548 23.0559L109.868 21.8849C108.422 22.7245 107.266 23.8814 106.407 25.3447L107.575 26.0305ZM110.551 23.0542C111.805 22.3178 113.212 21.945 114.79 21.945V20.591C112.988 20.591 111.341 21.0198 109.865 21.8866L110.551 23.0542ZM114.79 21.945C116.368 21.945 117.763 22.3178 118.993 23.0518L119.687 21.889C118.23 21.0198 116.592 20.591 114.79 20.591V21.945ZM119 23.0559C120.238 23.7752 121.215 24.7609 121.937 26.0235L123.112 25.3517C122.274 23.8846 121.127 22.7255 119.68 21.8849L119 23.0559ZM121.941 26.0305C122.676 27.283 123.05 28.7011 123.05 30.3022H124.404C124.404 28.4802 123.976 26.822 123.108 25.3447L121.941 26.0305ZM123.727 29.6251H122.459V30.9792H123.727V29.6251ZM121.782 30.3022C121.782 31.9133 121.437 33.339 120.759 34.5952L121.95 35.2383C122.746 33.7647 123.136 32.1141 123.136 30.3022H121.782ZM120.757 34.5986C120.095 35.8412 119.189 36.8256 118.033 37.5632L118.761 38.7047C120.118 37.839 121.184 36.6787 121.952 35.2348L120.757 34.5986ZM118.04 37.5587C116.898 38.2674 115.605 38.6268 114.14 38.6268V39.9808C115.839 39.9808 117.383 39.5603 118.754 38.7091L118.04 37.5587ZM114.79 37.0561C116.006 37.0561 117.114 36.7686 118.096 36.1797L117.399 35.0186C116.647 35.4696 115.784 35.7021 114.79 35.7021V37.0561ZM118.106 36.1733C119.073 35.5692 119.835 34.7571 120.388 33.7471L119.201 33.0967C118.757 33.9065 118.155 34.5459 117.388 35.0251L118.106 36.1733ZM120.392 33.7412C120.947 32.703 121.219 31.5519 121.219 30.3022H119.865C119.865 31.3489 119.639 32.2776 119.198 33.1026L120.392 33.7412ZM121.219 30.3022C121.219 29.0334 120.948 27.8791 120.388 26.8573L119.201 27.5076C119.638 28.3057 119.865 29.2312 119.865 30.3022H121.219ZM120.392 26.8631C119.838 25.8287 119.072 25.0105 118.096 24.4246L117.399 25.5857C118.156 26.0397 118.754 26.673 119.198 27.5018L120.392 26.8631ZM118.106 24.4311C117.123 23.8167 116.011 23.5157 114.79 23.5157V24.8698C115.779 24.8698 116.638 25.1104 117.388 25.5793L118.106 24.4311ZM114.79 23.5157C113.588 23.5157 112.479 23.818 111.48 24.4271L112.185 25.5832C112.963 25.1091 113.826 24.8698 114.79 24.8698V23.5157ZM111.485 24.4246C110.511 25.0089 109.736 25.8236 109.162 26.8525L110.344 27.5124C110.81 26.6782 111.422 26.0414 112.181 25.5857L111.485 24.4246ZM109.159 26.8573C108.6 27.8791 108.329 29.0334 108.329 30.3022H109.683C109.683 29.2312 109.91 28.3057 110.347 27.5076L109.159 26.8573ZM108.329 30.3022C108.329 31.5519 108.601 32.703 109.156 33.7412L110.35 33.1026C109.909 32.2776 109.683 31.3489 109.683 30.3022H108.329ZM109.165 33.7578C109.739 34.7622 110.51 35.5708 111.474 36.1733L112.192 35.0251C111.422 34.5443 110.807 33.9014 110.341 33.086L109.165 33.7578ZM111.491 36.1834C112.488 36.7674 113.593 37.0561 114.79 37.0561V35.7021C113.821 35.7021 112.954 35.4709 112.175 35.0149L111.491 36.1834ZM122.069 38.5293C121.751 38.5293 121.519 38.4338 121.329 38.2564L120.405 39.2463C120.865 39.6756 121.435 39.8833 122.069 39.8833V38.5293ZM121.362 38.2894C121.185 38.0994 121.089 37.8677 121.089 37.549H119.735C119.735 38.1835 119.943 38.7534 120.372 39.2133L121.362 38.2894ZM121.089 37.549V32.577H119.735V37.549H121.089ZM121.078 32.6964L121.696 29.2517L120.363 29.0128L119.746 32.4575L121.078 32.6964ZM120.76 29.7534L123.457 30.9233L123.996 29.6811L121.299 28.5112L120.76 29.7534ZM123.05 30.3022V37.549H124.404V30.3022H123.05ZM123.05 37.549C123.05 37.8535 122.953 38.0798 122.761 38.2726L123.718 39.2301C124.175 38.773 124.404 38.1977 124.404 37.549H123.05ZM122.761 38.2726C122.599 38.4343 122.388 38.5293 122.069 38.5293V39.8833C122.704 39.8833 123.273 39.675 123.718 39.2301L122.761 38.2726ZM128.01 39.0438L127.52 39.5108L127.531 39.5227L127.543 39.5341L128.01 39.0438ZM128.01 35.8591L127.531 35.3804L127.531 35.3804L128.01 35.8591ZM131.195 35.8591L130.704 36.3261L130.71 36.332L130.716 36.3379L131.195 35.8591ZM131.195 39.0438L131.673 39.5226L131.679 39.5167L131.685 39.5108L131.195 39.0438ZM129.602 39.0168C129.176 39.0168 128.811 38.8717 128.477 38.5536L127.543 39.5341C128.119 40.0825 128.815 40.3708 129.602 40.3708V39.0168ZM128.5 38.5769C128.182 38.2429 128.037 37.8775 128.037 37.4515H126.683C126.683 38.2387 126.971 38.9349 127.52 39.5108L128.5 38.5769ZM128.037 37.4515C128.037 36.9977 128.186 36.6406 128.489 36.3379L127.531 35.3804C126.967 35.9442 126.683 36.6487 126.683 37.4515H128.037ZM128.489 36.3379C128.825 36.0013 129.187 35.8537 129.602 35.8537V34.4997C128.804 34.4997 128.105 34.807 127.531 35.3804L128.489 36.3379ZM129.602 35.8537C130.045 35.8537 130.399 36.0053 130.704 36.3261L131.685 35.3922C131.124 34.8031 130.416 34.4997 129.602 34.4997V35.8537ZM130.716 36.3379C131.019 36.6406 131.168 36.9977 131.168 37.4515H132.522C132.522 36.6487 132.237 35.9442 131.673 35.3804L130.716 36.3379ZM131.168 37.4515C131.168 37.8775 131.023 38.2429 130.704 38.5769L131.685 39.5108C132.233 38.9349 132.522 38.2387 132.522 37.4515H131.168ZM130.716 38.5651C130.413 38.8679 130.056 39.0168 129.602 39.0168V40.3708C130.405 40.3708 131.11 40.0864 131.673 39.5226L130.716 38.5651Z" fill="white" mask="url(#path-2-outside-1_168_8016)"/>
<path d="M6.10763 52.8262L7.06648 45.9772H9.47341C9.83869 45.9772 10.1567 46.0669 10.4274 46.2463C10.6981 46.4256 10.8986 46.6686 11.0291 46.9752C11.1596 47.2785 11.1987 47.6177 11.1465 47.9928C11.1041 48.3222 10.9981 48.6222 10.8285 48.8929C10.6589 49.1636 10.4469 49.3903 10.1926 49.5729C9.94142 49.7523 9.66583 49.8762 9.36578 49.9447L10.6328 52.8262H9.68377L8.44606 50.0132H7.32087L6.9295 52.8262H6.10763ZM7.43828 49.1913H8.94017C9.16194 49.1913 9.37231 49.1375 9.57125 49.0299C9.77346 48.919 9.94305 48.7706 10.08 48.5847C10.217 48.3955 10.3018 48.1835 10.3344 47.9487C10.3703 47.7106 10.3458 47.4986 10.261 47.3127C10.1762 47.1236 10.049 46.9752 9.87946 46.8676C9.70986 46.7567 9.51418 46.7012 9.2924 46.7012H7.79052L7.43828 49.1913ZM13.5722 52.9534C13.1222 52.9534 12.7275 52.8376 12.3884 52.606C12.0524 52.3745 11.8013 52.0646 11.635 51.6765C11.4719 51.2852 11.423 50.853 11.4882 50.3801C11.5371 50.0214 11.6464 49.6871 11.816 49.3772C11.9888 49.0641 12.2041 48.7902 12.4617 48.5553C12.7194 48.3173 13.0048 48.1314 13.3179 47.9976C13.6342 47.8639 13.9604 47.7971 14.2963 47.7971C14.6648 47.7971 14.9926 47.8721 15.2796 48.0221C15.5666 48.1689 15.8014 48.3743 15.9841 48.6385C16.1667 48.9027 16.289 49.2093 16.351 49.5582C16.4129 49.9072 16.3999 50.2806 16.3118 50.6785H12.3248C12.3215 50.9557 12.3769 51.2036 12.4911 51.4221C12.6052 51.6374 12.7634 51.8086 12.9656 51.9358C13.1711 52.063 13.4108 52.1282 13.6848 52.1315C13.9783 52.1315 14.2555 52.0565 14.5164 51.9065C14.7773 51.7532 14.9991 51.5444 15.1818 51.2803L15.989 51.4759C15.7313 51.9097 15.3856 52.2652 14.9518 52.5424C14.5213 52.8164 14.0615 52.9534 13.5722 52.9534ZM12.3884 50.0328H15.5731C15.5862 49.7588 15.534 49.5093 15.4166 49.2843C15.2992 49.056 15.1345 48.8733 14.9225 48.7364C14.7137 48.5994 14.4724 48.5309 14.1984 48.5309C13.9212 48.5309 13.6587 48.5977 13.4108 48.7315C13.1662 48.8652 12.9526 49.0462 12.7699 49.2745C12.5906 49.4995 12.4634 49.7523 12.3884 50.0328ZM21.7747 45.488H22.5965L21.5692 52.8262H20.7473L20.8647 51.9945C20.6593 52.2815 20.4032 52.5131 20.0967 52.6892C19.7901 52.8653 19.4476 52.9534 19.0693 52.9534C18.7138 52.9534 18.3893 52.8865 18.0958 52.7528C17.8055 52.6191 17.5593 52.4348 17.3571 52.2C17.1549 51.9619 17.0081 51.6879 16.9168 51.3781C16.8287 51.0683 16.8092 50.7356 16.8581 50.3801C16.907 50.0246 17.0195 49.692 17.1956 49.3821C17.375 49.069 17.5984 48.7951 17.8658 48.5602C18.1365 48.3222 18.4366 48.1363 18.766 48.0025C19.0954 47.8688 19.4379 47.802 19.7933 47.802C20.1717 47.802 20.488 47.89 20.7424 48.0661C21.0001 48.2423 21.1909 48.4738 21.3148 48.7608L21.7747 45.488ZM19.1867 52.156C19.5096 52.156 19.7999 52.0777 20.0575 51.9211C20.3184 51.7613 20.5321 51.5461 20.6984 51.2754C20.868 51.0047 20.9756 50.7063 21.0213 50.3801C21.0669 50.0474 21.0425 49.7474 20.9479 49.48C20.8566 49.2093 20.7033 48.9956 20.488 48.8391C20.276 48.6793 20.0102 48.5994 19.6906 48.5994C19.3677 48.5994 19.0628 48.6793 18.7758 48.8391C18.492 48.9989 18.2523 49.2142 18.0566 49.4849C17.8642 49.7523 17.7452 50.0507 17.6995 50.3801C17.6539 50.7095 17.6914 51.0096 17.812 51.2803C17.9327 51.5477 18.1137 51.7613 18.3551 51.9211C18.5997 52.0777 18.8769 52.156 19.1867 52.156ZM24.828 52.9534C24.3779 52.9534 23.9832 52.8376 23.6441 52.606C23.3081 52.3745 23.057 52.0646 22.8907 51.6765C22.7276 51.2852 22.6787 50.853 22.7439 50.3801C22.7928 50.0214 22.9021 49.6871 23.0717 49.3772C23.2445 49.0641 23.4598 48.7902 23.7174 48.5553C23.9751 48.3173 24.2605 48.1314 24.5736 47.9976C24.8899 47.8639 25.2161 47.7971 25.552 47.7971C25.9205 47.7971 26.2483 47.8721 26.5353 48.0221C26.8223 48.1689 27.0571 48.3743 27.2398 48.6385C27.4224 48.9027 27.5447 49.2093 27.6067 49.5582C27.6686 49.9072 27.6556 50.2806 27.5675 50.6785H23.5805C23.5772 50.9557 23.6326 51.2036 23.7468 51.4221C23.8609 51.6374 24.0191 51.8086 24.2213 51.9358C24.4268 52.063 24.6665 52.1282 24.9405 52.1315C25.234 52.1315 25.5112 52.0565 25.7721 51.9065C26.033 51.7532 26.2548 51.5444 26.4375 51.2803L27.2447 51.4759C26.987 51.9097 26.6413 52.2652 26.2075 52.5424C25.777 52.8164 25.3172 52.9534 24.828 52.9534ZM23.6441 50.0328H26.8288C26.8419 49.7588 26.7897 49.5093 26.6723 49.2843C26.5549 49.056 26.3902 48.8733 26.1782 48.7364C25.9695 48.5994 25.7281 48.5309 25.4541 48.5309C25.1769 48.5309 24.9144 48.5977 24.6665 48.7315C24.4219 48.8652 24.2083 49.0462 24.0256 49.2745C23.8463 49.4995 23.7191 49.7523 23.6441 50.0328ZM30.127 46.7257L29.9558 47.934H31.3892L31.2767 48.7559H29.8433L29.2709 52.8262H28.449L29.0214 48.7559H28.3903L28.5029 47.934H29.1339L29.3052 46.7257C29.341 46.4746 29.434 46.2479 29.584 46.0457C29.7373 45.8402 29.9248 45.6771 30.1466 45.5565C30.3717 45.4325 30.6081 45.3706 30.856 45.3706C31.0386 45.3706 31.2098 45.4081 31.3696 45.4831C31.5327 45.5548 31.6713 45.6625 31.7855 45.806L31.1153 46.3881C31.0794 46.3262 31.0272 46.2789 30.9587 46.2463C30.8902 46.2104 30.8185 46.1924 30.7435 46.1924C30.5934 46.1924 30.4581 46.2446 30.3374 46.349C30.22 46.4534 30.1499 46.5789 30.127 46.7257ZM32.1418 47.934H32.9636L32.2787 52.8262H31.4569L32.1418 47.934ZM32.675 47.1366C32.5445 47.1366 32.4402 47.0942 32.3619 47.0094C32.2869 46.9246 32.2592 46.8186 32.2787 46.6914C32.2983 46.5643 32.357 46.4583 32.4549 46.3735C32.556 46.2887 32.6701 46.2463 32.7973 46.2463C32.9212 46.2463 33.0207 46.2887 33.0957 46.3735C33.174 46.4583 33.205 46.5643 33.1887 46.6914C33.1691 46.8186 33.1104 46.9246 33.0126 47.0094C32.9147 47.0942 32.8022 47.1366 32.675 47.1366ZM38.1705 49.7833L37.7498 52.8262H36.9279L37.3242 49.9643C37.3601 49.7164 37.3324 49.4914 37.241 49.2892C37.1497 49.087 37.0111 48.9271 36.8252 48.8097C36.6393 48.6891 36.4224 48.6287 36.1746 48.6287C35.9267 48.6287 35.6935 48.6891 35.475 48.8097C35.2565 48.9271 35.0722 49.087 34.9222 49.2892C34.7754 49.4914 34.6841 49.7164 34.6482 49.9643L34.2471 52.8262H33.4252L34.1101 47.934H34.932L34.8488 48.5456C35.0543 48.3173 35.2972 48.1363 35.5777 48.0025C35.8615 47.8656 36.1582 47.7971 36.4681 47.7971C36.8334 47.7971 37.153 47.8868 37.4269 48.0661C37.7042 48.2423 37.9096 48.4803 38.0433 48.7804C38.1803 49.0804 38.2227 49.4147 38.1705 49.7833ZM39.4131 47.934H40.2349L39.55 52.8262H38.7282L39.4131 47.934ZM39.9463 47.1366C39.8158 47.1366 39.7115 47.0942 39.6332 47.0094C39.5582 46.9246 39.5305 46.8186 39.55 46.6914C39.5696 46.5643 39.6283 46.4583 39.7262 46.3735C39.8273 46.2887 39.9414 46.2463 40.0686 46.2463C40.1925 46.2463 40.292 46.2887 40.367 46.3735C40.4453 46.4583 40.4763 46.5643 40.46 46.6914C40.4404 46.8186 40.3817 46.9246 40.2839 47.0094C40.186 47.0942 40.0735 47.1366 39.9463 47.1366ZM45.4418 49.7833L45.0211 52.8262H44.1992L44.5955 49.9643C44.6314 49.7164 44.6037 49.4914 44.5123 49.2892C44.421 49.087 44.2824 48.9271 44.0965 48.8097C43.9106 48.6891 43.6937 48.6287 43.4459 48.6287C43.198 48.6287 42.9648 48.6891 42.7463 48.8097C42.5278 48.9271 42.3435 49.087 42.1935 49.2892C42.0467 49.4914 41.9554 49.7164 41.9195 49.9643L41.5184 52.8262H40.6965L41.3814 47.934H42.2033L42.1201 48.5456C42.3256 48.3173 42.5685 48.1363 42.849 48.0025C43.1328 47.8656 43.4295 47.7971 43.7394 47.7971C44.1047 47.7971 44.4243 47.8868 44.6982 48.0661C44.9755 48.2423 45.1809 48.4803 45.3146 48.7804C45.4516 49.0804 45.494 49.4147 45.4418 49.7833ZM50.4096 47.934H51.2314L50.5221 52.9827C50.4797 53.3056 50.3688 53.6057 50.1894 53.8829C50.0133 54.1634 49.7915 54.4063 49.5241 54.6118C49.2599 54.8205 48.9697 54.982 48.6533 55.0961C48.3369 55.2135 48.0157 55.2722 47.6895 55.2722C47.3504 55.2722 47.0324 55.1956 46.7356 55.0423C46.4421 54.8923 46.1958 54.6901 45.9969 54.4357C45.7979 54.1846 45.6675 53.9024 45.6055 53.5893L46.4078 53.2469C46.4372 53.4719 46.5187 53.6741 46.6524 53.8535C46.7894 54.0362 46.959 54.1797 47.1612 54.284C47.3634 54.3917 47.5787 54.4455 47.807 54.4455C48.0222 54.4455 48.2358 54.408 48.4478 54.3329C48.6598 54.2579 48.8555 54.1536 49.0349 54.0199C49.2143 53.8894 49.3627 53.7345 49.4801 53.5551C49.6007 53.379 49.6741 53.1882 49.7002 52.9827L49.8372 52.0092C49.635 52.2897 49.3839 52.518 49.0838 52.6941C48.787 52.8669 48.4576 52.9534 48.0956 52.9534C47.7499 52.9534 47.4352 52.8865 47.1514 52.7528C46.8677 52.6191 46.628 52.4348 46.4323 52.2C46.2366 51.9619 46.0947 51.6879 46.0067 51.3781C45.9219 51.0683 45.9039 50.7356 45.9528 50.3801C46.0018 50.0246 46.1126 49.692 46.2855 49.3821C46.4616 49.069 46.6801 48.7951 46.941 48.5602C47.2052 48.3222 47.4971 48.1363 47.8167 48.0025C48.1396 47.8688 48.4739 47.802 48.8196 47.802C49.1816 47.802 49.4866 47.8884 49.7345 48.0612C49.9823 48.2341 50.1699 48.4624 50.297 48.7461L50.4096 47.934ZM48.213 52.156C48.5261 52.156 48.8098 52.0744 49.0642 51.9113C49.3219 51.7483 49.5339 51.5314 49.7002 51.2607C49.8698 50.99 49.9758 50.6965 50.0182 50.3801C50.0639 50.054 50.041 49.7572 49.9497 49.4897C49.8584 49.219 49.7067 49.0038 49.4947 48.844C49.286 48.6809 49.0267 48.5994 48.7169 48.5994C48.4038 48.5994 48.1086 48.6793 47.8314 48.8391C47.5575 48.9989 47.3275 49.2142 47.1416 49.4849C46.9557 49.7523 46.8399 50.0507 46.7943 50.3801C46.7486 50.7095 46.7812 51.0096 46.8921 51.2803C47.0063 51.5477 47.1791 51.7613 47.4107 51.9211C47.6423 52.0777 47.9097 52.156 48.213 52.156ZM54.2201 52.8262L55.179 45.9772H56.0009L55.042 52.8262H54.2201ZM61.1119 49.7833L60.6912 52.8262H59.8693L60.2656 49.9643C60.3015 49.7164 60.2737 49.4914 60.1824 49.2892C60.0911 49.087 59.9525 48.9271 59.7666 48.8097C59.5807 48.6891 59.3638 48.6287 59.1159 48.6287C58.8681 48.6287 58.6349 48.6891 58.4164 48.8097C58.1979 48.9271 58.0136 49.087 57.8636 49.2892C57.7168 49.4914 57.6255 49.7164 57.5896 49.9643L57.1884 52.8262H56.3666L57.0515 47.934H57.8733L57.7902 48.5456C57.9956 48.3173 58.2386 48.1363 58.5191 48.0025C58.8028 47.8656 59.0996 47.7971 59.4095 47.7971C59.7747 47.7971 60.0944 47.8868 60.3683 48.0661C60.6455 48.2423 60.851 48.4803 60.9847 48.7804C61.1217 49.0804 61.1641 49.4147 61.1119 49.7833ZM63.147 52.9191C62.8861 52.9093 62.6366 52.8604 62.3985 52.7724C62.1604 52.681 61.9582 52.5587 61.7919 52.4054C61.6255 52.2489 61.5146 52.0695 61.4592 51.8673L62.2077 51.564C62.2403 51.6749 62.3121 51.7793 62.4229 51.8771C62.5371 51.9749 62.6724 52.0532 62.829 52.1119C62.9888 52.1706 63.1535 52.2 63.3231 52.2C63.5025 52.2 63.6753 52.1723 63.8417 52.1168C64.008 52.0614 64.1482 51.9798 64.2624 51.8722C64.3765 51.7613 64.4434 51.6292 64.463 51.4759C64.489 51.3129 64.4532 51.1857 64.3553 51.0944C64.2575 50.9998 64.1303 50.9264 63.9737 50.8742C63.8172 50.8188 63.6574 50.7666 63.4943 50.7177C63.1714 50.6329 62.8861 50.5318 62.6382 50.4144C62.3903 50.2937 62.2028 50.142 62.0756 49.9594C61.9517 49.7735 61.9093 49.537 61.9484 49.25C61.9908 48.9467 62.1115 48.6842 62.3104 48.4624C62.5126 48.2406 62.7589 48.0694 63.0491 47.9487C63.3394 47.8281 63.6411 47.7677 63.9542 47.7677C64.3488 47.7677 64.6961 47.8525 64.9962 48.0221C65.2995 48.1917 65.5115 48.4216 65.6322 48.7119L64.9179 49.0984C64.8788 48.981 64.8087 48.8782 64.7076 48.7902C64.6065 48.6988 64.4858 48.6271 64.3455 48.5749C64.2086 48.5227 64.0634 48.495 63.9101 48.4917C63.7177 48.4852 63.5351 48.5097 63.3622 48.5651C63.1926 48.6206 63.0508 48.7054 62.9366 48.8195C62.8225 48.9304 62.7523 49.069 62.7263 49.2354C62.7034 49.3984 62.7377 49.5224 62.829 49.6072C62.9236 49.692 63.0524 49.7604 63.2155 49.8126C63.3818 49.8615 63.5612 49.9186 63.7536 49.9838C64.0373 50.0784 64.2983 50.1877 64.5363 50.3116C64.7777 50.4356 64.9652 50.5905 65.0989 50.7764C65.2327 50.9623 65.2783 51.1922 65.2359 51.4662C65.1903 51.7662 65.0631 52.0288 64.8543 52.2538C64.6456 52.4756 64.3896 52.6452 64.0863 52.7626C63.783 52.88 63.4699 52.9322 63.147 52.9191ZM65.9469 50.9672L66.3725 47.934H67.1944L66.7932 50.7862C66.7606 51.034 66.79 51.2591 66.8813 51.4613C66.9726 51.6635 67.1112 51.8249 67.2971 51.9456C67.483 52.063 67.6983 52.1217 67.9429 52.1217C68.1907 52.1217 68.4239 52.063 68.6424 51.9456C68.8642 51.8249 69.0485 51.6635 69.1952 51.4613C69.3453 51.2591 69.4366 51.034 69.4692 50.7862L69.8704 47.934H70.6922L70.0122 52.8262H69.1904L69.2686 52.2049C69.0632 52.4332 68.8186 52.6158 68.5348 52.7528C68.2543 52.8865 67.9608 52.9534 67.6542 52.9534C67.289 52.9534 66.9677 52.8653 66.6905 52.6892C66.4165 52.5098 66.2111 52.2701 66.0741 51.97C65.9404 51.67 65.898 51.3357 65.9469 50.9672ZM70.9952 52.8262L71.6801 47.934H72.5019L72.4188 48.5456C72.6242 48.3173 72.8672 48.1363 73.1477 48.0025C73.4314 47.8656 73.7282 47.7971 74.0381 47.7971C74.2272 47.7971 74.4066 47.8215 74.5762 47.8704L74.1261 48.6923C74.0022 48.6499 73.875 48.6287 73.7445 48.6287C73.4967 48.6287 73.2635 48.6891 73.045 48.8097C72.8265 48.9271 72.6422 49.087 72.4922 49.2892C72.3454 49.4914 72.2541 49.7164 72.2182 49.9643L71.817 52.8262H70.9952ZM78.8525 47.934H79.6743L78.9894 52.8262H78.1676L78.2507 51.9994C78.0583 52.2831 77.8137 52.5131 77.5169 52.6892C77.2234 52.8653 76.8907 52.9534 76.5189 52.9534C76.1602 52.9534 75.8324 52.8865 75.5356 52.7528C75.2421 52.6158 74.9926 52.4283 74.7871 52.1902C74.5816 51.9489 74.4332 51.6716 74.3419 51.3585C74.2539 51.0454 74.2359 50.7079 74.2881 50.3459C74.337 49.9969 74.4479 49.6675 74.6208 49.3577C74.7969 49.0478 75.017 48.7771 75.2812 48.5456C75.5486 48.3107 75.8438 48.1281 76.1667 47.9976C76.4928 47.8639 76.832 47.7971 77.1842 47.7971C77.5691 47.7971 77.8936 47.8884 78.1578 48.071C78.4252 48.2504 78.629 48.4836 78.7693 48.7706L78.8525 47.934ZM76.6119 52.156C76.9347 52.156 77.225 52.0777 77.4827 51.9211C77.7436 51.7613 77.9572 51.5461 78.1235 51.2754C78.2931 51.0047 78.4007 50.7063 78.4464 50.3801C78.4921 50.0474 78.4676 49.7474 78.373 49.48C78.2817 49.2093 78.1284 48.9956 77.9132 48.8391C77.7012 48.6793 77.4354 48.5994 77.1158 48.5994C76.7929 48.5994 76.4879 48.6793 76.2009 48.8391C75.9139 48.9989 75.6742 49.2142 75.4818 49.4849C75.2894 49.7523 75.1703 50.0507 75.1247 50.3801C75.079 50.7095 75.1165 51.0096 75.2372 51.2803C75.3578 51.5477 75.5389 51.7613 75.7802 51.9211C76.0248 52.0777 76.302 52.156 76.6119 52.156ZM84.7126 49.7833L84.2919 52.8262H83.47L83.8663 49.9643C83.9022 49.7164 83.8744 49.4914 83.7831 49.2892C83.6918 49.087 83.5532 48.9271 83.3673 48.8097C83.1814 48.6891 82.9645 48.6287 82.7166 48.6287C82.4688 48.6287 82.2356 48.6891 82.0171 48.8097C81.7985 48.9271 81.6143 49.087 81.4642 49.2892C81.3175 49.4914 81.2262 49.7164 81.1903 49.9643L80.7891 52.8262H79.9673L80.6522 47.934H81.474L81.3909 48.5456C81.5963 48.3173 81.8393 48.1363 82.1198 48.0025C82.4035 47.8656 82.7003 47.7971 83.0102 47.7971C83.3754 47.7971 83.6951 47.8868 83.969 48.0661C84.2462 48.2423 84.4517 48.4803 84.5854 48.7804C84.7224 49.0804 84.7648 49.4147 84.7126 49.7833ZM88.7264 51.5347L89.4015 51.9309C89.134 52.2407 88.8177 52.4886 88.4524 52.6745C88.0871 52.8604 87.7055 52.9534 87.3077 52.9534C86.8576 52.9534 86.4629 52.8376 86.1238 52.606C85.7878 52.3745 85.5367 52.0646 85.3704 51.6765C85.2073 51.2852 85.1584 50.853 85.2236 50.3801C85.2725 50.0214 85.3818 49.6871 85.5514 49.3772C85.7242 49.0641 85.9395 48.7902 86.1971 48.5553C86.4548 48.3173 86.7402 48.1314 87.0533 47.9976C87.3696 47.8639 87.6958 47.7971 88.0317 47.7971C88.4296 47.7971 88.7851 47.89 89.0982 48.0759C89.4145 48.2618 89.6624 48.5113 89.8418 48.8244L89.0493 49.2207C88.9188 49.0283 88.7541 48.8799 88.5551 48.7755C88.3562 48.6711 88.1442 48.6189 87.9192 48.6189C87.6126 48.6189 87.3256 48.7005 87.0582 48.8636C86.7907 49.0234 86.5657 49.237 86.383 49.5044C86.2037 49.7719 86.0911 50.0638 86.0455 50.3801C85.9998 50.6965 86.0308 50.9884 86.1384 51.2558C86.2461 51.52 86.4108 51.732 86.6325 51.8918C86.8576 52.0516 87.1201 52.1315 87.4202 52.1315C87.6648 52.1315 87.9012 52.076 88.1295 51.9652C88.3578 51.8543 88.5568 51.7108 88.7264 51.5347ZM92.2093 52.9534C91.7593 52.9534 91.3646 52.8376 91.0254 52.606C90.6895 52.3745 90.4384 52.0646 90.2721 51.6765C90.109 51.2852 90.0601 50.853 90.1253 50.3801C90.1742 50.0214 90.2835 49.6871 90.4531 49.3772C90.6259 49.0641 90.8412 48.7902 91.0988 48.5553C91.3565 48.3173 91.6418 48.1314 91.9549 47.9976C92.2713 47.8639 92.5974 47.7971 92.9334 47.7971C93.3019 47.7971 93.6297 47.8721 93.9167 48.0221C94.2037 48.1689 94.4385 48.3743 94.6212 48.6385C94.8038 48.9027 94.9261 49.2093 94.9881 49.5582C95.05 49.9072 95.037 50.2806 94.9489 50.6785H90.9618C90.9586 50.9557 91.014 51.2036 91.1282 51.4221C91.2423 51.6374 91.4005 51.8086 91.6027 51.9358C91.8082 52.063 92.0479 52.1282 92.3219 52.1315C92.6154 52.1315 92.8926 52.0565 93.1535 51.9065C93.4144 51.7532 93.6362 51.5444 93.8188 51.2803L94.626 51.4759C94.3684 51.9097 94.0227 52.2652 93.5889 52.5424C93.1584 52.8164 92.6985 52.9534 92.2093 52.9534ZM91.0254 50.0328H94.2102C94.2233 49.7588 94.1711 49.5093 94.0537 49.2843C93.9363 49.056 93.7716 48.8733 93.5596 48.7364C93.3508 48.5994 93.1095 48.5309 92.8355 48.5309C92.5583 48.5309 92.2958 48.5977 92.0479 48.7315C91.8033 48.8652 91.5897 49.0462 91.407 49.2745C91.2276 49.4995 91.1005 49.7523 91.0254 50.0328ZM99.8589 46.7257L99.6877 47.934H101.121L101.009 48.7559H99.5752L99.0028 52.8262H98.1809L98.7533 48.7559H98.1222L98.2348 47.934H98.8658L99.0371 46.7257C99.0729 46.4746 99.1659 46.2479 99.3159 46.0457C99.4692 45.8402 99.6567 45.6771 99.8785 45.5565C100.104 45.4325 100.34 45.3706 100.588 45.3706C100.771 45.3706 100.942 45.4081 101.102 45.4831C101.265 45.5548 101.403 45.6625 101.517 45.806L100.847 46.3881C100.811 46.3262 100.759 46.2789 100.691 46.2463C100.622 46.2104 100.55 46.1924 100.475 46.1924C100.325 46.1924 100.19 46.2446 100.069 46.349C99.9519 46.4534 99.8818 46.5789 99.8589 46.7257ZM103.245 52.9534C102.795 52.9534 102.401 52.8376 102.061 52.606C101.725 52.3745 101.474 52.0646 101.308 51.6765C101.145 51.2852 101.096 50.853 101.161 50.3801C101.21 50.0214 101.319 49.6871 101.489 49.3772C101.662 49.0641 101.877 48.7902 102.135 48.5553C102.392 48.3173 102.678 48.1314 102.991 47.9976C103.307 47.8639 103.633 47.7971 103.969 47.7971C104.419 47.7971 104.812 47.9128 105.148 48.1444C105.488 48.376 105.74 48.6874 105.907 49.0788C106.073 49.4702 106.122 49.9039 106.053 50.3801C106.004 50.7356 105.894 51.0683 105.721 51.3781C105.551 51.6879 105.337 51.9619 105.08 52.2C104.822 52.4348 104.537 52.6191 104.224 52.7528C103.911 52.8865 103.584 52.9534 103.245 52.9534ZM103.358 52.1315C103.664 52.1315 103.951 52.0516 104.219 51.8918C104.486 51.7287 104.711 51.5151 104.894 51.2509C105.077 50.9835 105.189 50.6932 105.231 50.3801C105.277 50.0605 105.246 49.767 105.139 49.4995C105.031 49.2321 104.866 49.0185 104.644 48.8587C104.423 48.6988 104.16 48.6189 103.857 48.6189C103.55 48.6189 103.263 48.7005 102.996 48.8636C102.728 49.0234 102.503 49.237 102.321 49.5044C102.141 49.7719 102.029 50.0638 101.983 50.3801C101.937 50.7063 101.968 51.003 102.076 51.2705C102.187 51.5347 102.355 51.745 102.58 51.9016C102.805 52.0548 103.064 52.1315 103.358 52.1315ZM106.52 52.8262L107.205 47.934H108.027L107.944 48.5456C108.149 48.3173 108.392 48.1363 108.673 48.0025C108.957 47.8656 109.253 47.7971 109.563 47.7971C109.752 47.7971 109.932 47.8215 110.101 47.8704L109.651 48.6923C109.527 48.6499 109.4 48.6287 109.27 48.6287C109.022 48.6287 108.789 48.6891 108.57 48.8097C108.352 48.9271 108.167 49.087 108.017 49.2892C107.871 49.4914 107.779 49.7164 107.743 49.9643L107.342 52.8262H106.52ZM116.48 47.934H117.351L113.643 55.2722H112.772L114.005 52.8262L112.934 47.934H113.834L114.573 51.6961L116.48 47.934ZM119.431 52.9534C118.981 52.9534 118.587 52.8376 118.247 52.606C117.912 52.3745 117.66 52.0646 117.494 51.6765C117.331 51.2852 117.282 50.853 117.347 50.3801C117.396 50.0214 117.505 49.6871 117.675 49.3772C117.848 49.0641 118.063 48.7902 118.321 48.5553C118.578 48.3173 118.864 48.1314 119.177 47.9976C119.493 47.8639 119.819 47.7971 120.155 47.7971C120.605 47.7971 120.998 47.9128 121.334 48.1444C121.674 48.376 121.926 48.6874 122.093 49.0788C122.259 49.4702 122.308 49.9039 122.239 50.3801C122.19 50.7356 122.08 51.0683 121.907 51.3781C121.737 51.6879 121.524 51.9619 121.266 52.2C121.008 52.4348 120.723 52.6191 120.41 52.7528C120.097 52.8865 119.771 52.9534 119.431 52.9534ZM119.544 52.1315C119.85 52.1315 120.137 52.0516 120.405 51.8918C120.672 51.7287 120.897 51.5151 121.08 51.2509C121.263 50.9835 121.375 50.6932 121.418 50.3801C121.463 50.0605 121.432 49.767 121.325 49.4995C121.217 49.2321 121.052 49.0185 120.83 48.8587C120.609 48.6988 120.346 48.6189 120.043 48.6189C119.736 48.6189 119.449 48.7005 119.182 48.8636C118.914 49.0234 118.689 49.237 118.507 49.5044C118.327 49.7719 118.215 50.0638 118.169 50.3801C118.124 50.7063 118.154 51.003 118.262 51.2705C118.373 51.5347 118.541 51.745 118.766 51.9016C118.991 52.0548 119.25 52.1315 119.544 52.1315ZM122.703 50.9672L123.129 47.934H123.951L123.55 50.7862C123.517 51.034 123.546 51.2591 123.638 51.4613C123.729 51.6635 123.868 51.8249 124.053 51.9456C124.239 52.063 124.455 52.1217 124.699 52.1217C124.947 52.1217 125.18 52.063 125.399 51.9456C125.621 51.8249 125.805 51.6635 125.952 51.4613C126.102 51.2591 126.193 51.034 126.226 50.7862L126.627 47.934H127.449L126.769 52.8262H125.947L126.025 52.2049C125.819 52.4332 125.575 52.6158 125.291 52.7528C125.011 52.8865 124.717 52.9534 124.411 52.9534C124.045 52.9534 123.724 52.8653 123.447 52.6892C123.173 52.5098 122.967 52.2701 122.83 51.97C122.697 51.67 122.654 51.3357 122.703 50.9672Z" fill="#141414"/>
</svg>
