<svg width="32" height="31" viewBox="0 0 32 31" fill="none" xmlns="http://www.w3.org/2000/svg">
<g clip-path="url(#clip0_56_7919)">
<path d="M23.4208 2.15751C23.9272 2.15751 24.4129 2.35868 24.771 2.71677C25.129 3.07487 25.3302 3.56055 25.3302 4.06697V26.9805C25.3302 27.4869 25.129 27.9726 24.771 28.3307C24.4129 28.6888 23.9272 28.8899 23.4208 28.8899H8.14509C7.63867 28.8899 7.15299 28.6888 6.7949 28.3307C6.43681 27.9726 6.23563 27.4869 6.23563 26.9805V4.06697C6.23563 3.56055 6.43681 3.07487 6.7949 2.71677C7.15299 2.35868 7.63867 2.15751 8.14509 2.15751H23.4208ZM8.14509 0.248047C7.13225 0.248047 6.16089 0.650396 5.44471 1.36658C4.72852 2.08277 4.32617 3.05413 4.32617 4.06697V26.9805C4.32617 27.9933 4.72852 28.9647 5.44471 29.6809C6.16089 30.397 7.13225 30.7994 8.14509 30.7994H23.4208C24.4336 30.7994 25.405 30.397 26.1211 29.6809C26.8373 28.9647 27.2397 27.9933 27.2397 26.9805V4.06697C27.2397 3.05413 26.8373 2.08277 26.1211 1.36658C25.405 0.650396 24.4336 0.248047 23.4208 0.248047H8.14509Z" fill="#2A2A2A"/>
<path d="M8.14509 5.02169C8.14509 4.76848 8.24568 4.52565 8.42472 4.3466C8.60377 4.16755 8.84661 4.06697 9.09982 4.06697H22.466C22.7192 4.06697 22.9621 4.16755 23.1411 4.3466C23.3202 4.52565 23.4208 4.76848 23.4208 5.02169V8.84061C23.4208 9.09382 23.3202 9.33666 23.1411 9.51571C22.9621 9.69476 22.7192 9.79534 22.466 9.79534H9.09982C8.84661 9.79534 8.60377 9.69476 8.42472 9.51571C8.24568 9.33666 8.14509 9.09382 8.14509 8.84061V5.02169ZM8.14509 12.6595C8.14509 12.4063 8.24568 12.1635 8.42472 11.9844C8.60377 11.8054 8.84661 11.7048 9.09982 11.7048H11.0093C11.2625 11.7048 11.5053 11.8054 11.6844 11.9844C11.8634 12.1635 11.964 12.4063 11.964 12.6595V14.569C11.964 14.8222 11.8634 15.065 11.6844 15.2441C11.5053 15.4231 11.2625 15.5237 11.0093 15.5237H9.09982C8.84661 15.5237 8.60377 15.4231 8.42472 15.2441C8.24568 15.065 8.14509 14.8222 8.14509 14.569V12.6595ZM8.14509 18.3879C8.14509 18.1347 8.24568 17.8919 8.42472 17.7128C8.60377 17.5338 8.84661 17.4332 9.09982 17.4332H11.0093C11.2625 17.4332 11.5053 17.5338 11.6844 17.7128C11.8634 17.8919 11.964 18.1347 11.964 18.3879V20.2974C11.964 20.5506 11.8634 20.7934 11.6844 20.9725C11.5053 21.1515 11.2625 21.2521 11.0093 21.2521H9.09982C8.84661 21.2521 8.60377 21.1515 8.42472 20.9725C8.24568 20.7934 8.14509 20.5506 8.14509 20.2974V18.3879ZM8.14509 24.1163C8.14509 23.8631 8.24568 23.6202 8.42472 23.4412C8.60377 23.2621 8.84661 23.1616 9.09982 23.1616H11.0093C11.2625 23.1616 11.5053 23.2621 11.6844 23.4412C11.8634 23.6202 11.964 23.8631 11.964 24.1163V26.0257C11.964 26.279 11.8634 26.5218 11.6844 26.7008C11.5053 26.8799 11.2625 26.9805 11.0093 26.9805H9.09982C8.84661 26.9805 8.60377 26.8799 8.42472 26.7008C8.24568 26.5218 8.14509 26.279 8.14509 26.0257V24.1163ZM13.8735 12.6595C13.8735 12.4063 13.9741 12.1635 14.1531 11.9844C14.3321 11.8054 14.575 11.7048 14.8282 11.7048H16.7377C16.9909 11.7048 17.2337 11.8054 17.4128 11.9844C17.5918 12.1635 17.6924 12.4063 17.6924 12.6595V14.569C17.6924 14.8222 17.5918 15.065 17.4128 15.2441C17.2337 15.4231 16.9909 15.5237 16.7377 15.5237H14.8282C14.575 15.5237 14.3321 15.4231 14.1531 15.2441C13.9741 15.065 13.8735 14.8222 13.8735 14.569V12.6595ZM13.8735 18.3879C13.8735 18.1347 13.9741 17.8919 14.1531 17.7128C14.3321 17.5338 14.575 17.4332 14.8282 17.4332H16.7377C16.9909 17.4332 17.2337 17.5338 17.4128 17.7128C17.5918 17.8919 17.6924 18.1347 17.6924 18.3879V20.2974C17.6924 20.5506 17.5918 20.7934 17.4128 20.9725C17.2337 21.1515 16.9909 21.2521 16.7377 21.2521H14.8282C14.575 21.2521 14.3321 21.1515 14.1531 20.9725C13.9741 20.7934 13.8735 20.5506 13.8735 20.2974V18.3879ZM13.8735 24.1163C13.8735 23.8631 13.9741 23.6202 14.1531 23.4412C14.3321 23.2621 14.575 23.1616 14.8282 23.1616H16.7377C16.9909 23.1616 17.2337 23.2621 17.4128 23.4412C17.5918 23.6202 17.6924 23.8631 17.6924 24.1163V26.0257C17.6924 26.279 17.5918 26.5218 17.4128 26.7008C17.2337 26.8799 16.9909 26.9805 16.7377 26.9805H14.8282C14.575 26.9805 14.3321 26.8799 14.1531 26.7008C13.9741 26.5218 13.8735 26.279 13.8735 26.0257V24.1163ZM19.6018 12.6595C19.6018 12.4063 19.7024 12.1635 19.8815 11.9844C20.0605 11.8054 20.3034 11.7048 20.5566 11.7048H22.466C22.7192 11.7048 22.9621 11.8054 23.1411 11.9844C23.3202 12.1635 23.4208 12.4063 23.4208 12.6595V14.569C23.4208 14.8222 23.3202 15.065 23.1411 15.2441C22.9621 15.4231 22.7192 15.5237 22.466 15.5237H20.5566C20.3034 15.5237 20.0605 15.4231 19.8815 15.2441C19.7024 15.065 19.6018 14.8222 19.6018 14.569V12.6595ZM19.6018 18.3879C19.6018 18.1347 19.7024 17.8919 19.8815 17.7128C20.0605 17.5338 20.3034 17.4332 20.5566 17.4332H22.466C22.7192 17.4332 22.9621 17.5338 23.1411 17.7128C23.3202 17.8919 23.4208 18.1347 23.4208 18.3879V26.0257C23.4208 26.279 23.3202 26.5218 23.1411 26.7008C22.9621 26.8799 22.7192 26.9805 22.466 26.9805H20.5566C20.3034 26.9805 20.0605 26.8799 19.8815 26.7008C19.7024 26.5218 19.6018 26.279 19.6018 26.0257V18.3879Z" fill="#2A2A2A"/>
</g>
<defs>
<clipPath id="clip0_56_7919">
<rect width="30.5513" height="30.5513" fill="white" transform="translate(0.505859 0.248047)"/>
</clipPath>
</defs>
</svg>
