<svg width="34" height="34" viewBox="0 0 34 34" fill="none" xmlns="http://www.w3.org/2000/svg">
<g clip-path="url(#clip0_168_2198)">
<path d="M21.0508 28.6672C21.0508 28.9428 21.1603 29.2072 21.3553 29.4022C21.5502 29.5971 21.8146 29.7066 22.0902 29.7066H24.1691C24.4448 29.7066 24.7092 29.5971 24.9041 29.4022C25.099 29.2072 25.2085 28.9428 25.2085 28.6672V16.194C25.2085 15.9183 25.099 15.6539 24.9041 15.459C24.7092 15.2641 24.4448 15.1546 24.1691 15.1546H22.0902C21.8146 15.1546 21.5502 15.2641 21.3553 15.459C21.1603 15.6539 21.0508 15.9183 21.0508 16.194V28.6672ZM15.8537 29.7066C15.578 29.7066 15.3136 29.5971 15.1187 29.4022C14.9237 29.2072 14.8142 28.9428 14.8142 28.6672V20.3517C14.8142 20.076 14.9237 19.8117 15.1187 19.6167C15.3136 19.4218 15.578 19.3123 15.8537 19.3123H17.9325C18.2082 19.3123 18.4726 19.4218 18.6675 19.6167C18.8624 19.8117 18.972 20.076 18.972 20.3517V28.6672C18.972 28.9428 18.8624 29.2072 18.6675 29.4022C18.4726 29.5971 18.2082 29.7066 17.9325 29.7066H15.8537ZM9.61708 29.7066C9.3414 29.7066 9.07702 29.5971 8.88209 29.4022C8.68716 29.2072 8.57764 28.9428 8.57764 28.6672V24.5094C8.57764 24.2338 8.68716 23.9694 8.88209 23.7745C9.07702 23.5795 9.3414 23.47 9.61708 23.47H11.6959C11.9716 23.47 12.236 23.5795 12.4309 23.7745C12.6259 23.9694 12.7354 24.2338 12.7354 24.5094V28.6672C12.7354 28.9428 12.6259 29.2072 12.4309 29.4022C12.236 29.5971 11.9716 29.7066 11.6959 29.7066H9.61708Z" fill="#757575"/>
<path d="M29.3663 29.7066V9.95742L20.0114 0.602539H8.57764C7.47495 0.602539 6.41741 1.04058 5.63769 1.82031C4.85797 2.60003 4.41992 3.65757 4.41992 4.76026V29.7066C4.41992 30.8093 4.85797 31.8668 5.63769 32.6466C6.41741 33.4263 7.47495 33.8643 8.57764 33.8643H25.2085C26.3112 33.8643 27.3688 33.4263 28.1485 32.6466C28.9282 31.8668 29.3663 30.8093 29.3663 29.7066ZM20.0114 6.83912C20.0114 7.66615 20.3399 8.4593 20.9247 9.04409C21.5095 9.62888 22.3027 9.95742 23.1297 9.95742H27.2874V29.7066C27.2874 30.2579 27.0684 30.7867 26.6785 31.1766C26.2887 31.5664 25.7599 31.7855 25.2085 31.7855H8.57764C8.0263 31.7855 7.49753 31.5664 7.10767 31.1766C6.71781 30.7867 6.49878 30.2579 6.49878 29.7066V4.76026C6.49878 4.20891 6.71781 3.68015 7.10767 3.29028C7.49753 2.90042 8.0263 2.6814 8.57764 2.6814H20.0114V6.83912Z" fill="#757575"/>
</g>
<defs>
<clipPath id="clip0_168_2198">
<rect width="33.2618" height="33.2618" fill="white" transform="translate(0.261719 0.601562)"/>
</clipPath>
</defs>
</svg>
