<svg width="34" height="34" viewBox="0 0 34 34" fill="none" xmlns="http://www.w3.org/2000/svg">
<g clip-path="url(#clip0_168_6160)">
<path d="M29.3764 21.711C28.3767 21.0512 27.1799 20.7568 25.9882 20.8776C24.7965 20.9984 23.6831 21.527 22.8361 22.3739C21.9892 23.2209 21.4606 24.3343 21.3398 25.526C21.219 26.7177 21.5134 27.9145 22.1732 28.9142L29.3764 21.711ZM30.8462 23.1807L23.6429 30.384C24.6426 31.0437 25.8395 31.3381 27.0311 31.2173C28.2228 31.0965 29.3362 30.568 30.1832 29.721C31.0302 28.874 31.5587 27.7606 31.6795 26.5689C31.8003 25.3773 31.506 24.1804 30.8462 23.1807ZM21.3666 20.9023C22.0398 20.2156 22.8424 19.6692 23.7281 19.2947C24.6138 18.9201 25.5649 18.7248 26.5265 18.7201C27.4881 18.7154 28.4411 18.9013 29.3304 19.2672C30.2197 19.6331 31.0277 20.1716 31.7076 20.8516C32.3875 21.5317 32.9259 22.3397 33.2915 23.2291C33.6572 24.1185 33.843 25.0715 33.8381 26.0331C33.8332 26.9948 33.6377 27.9459 33.263 28.8315C32.8882 29.7171 32.3417 30.5196 31.6549 31.1927C30.2903 32.5572 28.4395 33.3239 26.5097 33.3239C24.5799 33.3239 22.7291 32.5572 21.3645 31.1927C19.9999 29.8281 19.2333 27.9773 19.2333 26.0475C19.2333 24.1177 19.9999 22.2669 21.3645 20.9023H21.3666Z" fill="#757575"/>
<path d="M4.68164 2.14038C4.68164 1.58904 4.90066 1.06027 5.29052 0.670408C5.68039 0.280546 6.20915 0.0615234 6.7605 0.0615234H27.5491C28.1005 0.0615234 28.6292 0.280546 29.0191 0.670408C29.409 1.06027 29.628 1.58904 29.628 2.14038V15.653C29.628 15.9287 29.5185 16.193 29.3235 16.388C29.1286 16.5829 28.8642 16.6924 28.5885 16.6924C28.3129 16.6924 28.0485 16.5829 27.8536 16.388C27.6586 16.193 27.5491 15.9287 27.5491 15.653V2.14038H6.7605V31.2444H12.9971V26.0473C12.9971 25.7716 13.1066 25.5072 13.3015 25.3123C13.4965 25.1174 13.7608 25.0079 14.0365 25.0079H17.1548V33.3233H6.7605C6.20915 33.3233 5.68039 33.1043 5.29052 32.7144C4.90066 32.3246 4.68164 31.7958 4.68164 31.2444V2.14038Z" fill="#757575"/>
<path d="M9.87879 4.21925C9.60312 4.21925 9.33874 4.32876 9.14381 4.52369C8.94887 4.71862 8.83936 4.983 8.83936 5.25868V7.33754C8.83936 7.61321 8.94887 7.8776 9.14381 8.07253C9.33874 8.26746 9.60312 8.37697 9.87879 8.37697H11.9577C12.2333 8.37697 12.4977 8.26746 12.6926 8.07253C12.8876 7.8776 12.9971 7.61321 12.9971 7.33754V5.25868C12.9971 4.983 12.8876 4.71862 12.6926 4.52369C12.4977 4.32876 12.2333 4.21925 11.9577 4.21925H9.87879ZM16.1154 4.21925C15.8397 4.21925 15.5753 4.32876 15.3804 4.52369C15.1855 4.71862 15.0759 4.983 15.0759 5.25868V7.33754C15.0759 7.61321 15.1855 7.8776 15.3804 8.07253C15.5753 8.26746 15.8397 8.37697 16.1154 8.37697H18.1942C18.4699 8.37697 18.7343 8.26746 18.9292 8.07253C19.1242 7.8776 19.2337 7.61321 19.2337 7.33754V5.25868C19.2337 4.983 19.1242 4.71862 18.9292 4.52369C18.7343 4.32876 18.4699 4.21925 18.1942 4.21925H16.1154ZM22.352 4.21925C22.0763 4.21925 21.8119 4.32876 21.617 4.52369C21.422 4.71862 21.3125 4.983 21.3125 5.25868V7.33754C21.3125 7.61321 21.422 7.8776 21.617 8.07253C21.8119 8.26746 22.0763 8.37697 22.352 8.37697H24.4308C24.7065 8.37697 24.9709 8.26746 25.1658 8.07253C25.3607 7.8776 25.4703 7.61321 25.4703 7.33754V5.25868C25.4703 4.983 25.3607 4.71862 25.1658 4.52369C24.9709 4.32876 24.7065 4.21925 24.4308 4.21925H22.352ZM9.87879 10.4558C9.60312 10.4558 9.33874 10.5653 9.14381 10.7603C8.94887 10.9552 8.83936 11.2196 8.83936 11.4953V13.5741C8.83936 13.8498 8.94887 14.1142 9.14381 14.3091C9.33874 14.504 9.60312 14.6136 9.87879 14.6136H11.9577C12.2333 14.6136 12.4977 14.504 12.6926 14.3091C12.8876 14.1142 12.9971 13.8498 12.9971 13.5741V11.4953C12.9971 11.2196 12.8876 10.9552 12.6926 10.7603C12.4977 10.5653 12.2333 10.4558 11.9577 10.4558H9.87879ZM16.1154 10.4558C15.8397 10.4558 15.5753 10.5653 15.3804 10.7603C15.1855 10.9552 15.0759 11.2196 15.0759 11.4953V13.5741C15.0759 13.8498 15.1855 14.1142 15.3804 14.3091C15.5753 14.504 15.8397 14.6136 16.1154 14.6136H18.1942C18.4699 14.6136 18.7343 14.504 18.9292 14.3091C19.1242 14.1142 19.2337 13.8498 19.2337 13.5741V11.4953C19.2337 11.2196 19.1242 10.9552 18.9292 10.7603C18.7343 10.5653 18.4699 10.4558 18.1942 10.4558H16.1154ZM22.352 10.4558C22.0763 10.4558 21.8119 10.5653 21.617 10.7603C21.422 10.9552 21.3125 11.2196 21.3125 11.4953V13.5741C21.3125 13.8498 21.422 14.1142 21.617 14.3091C21.8119 14.504 22.0763 14.6136 22.352 14.6136H24.4308C24.7065 14.6136 24.9709 14.504 25.1658 14.3091C25.3607 14.1142 25.4703 13.8498 25.4703 13.5741V11.4953C25.4703 11.2196 25.3607 10.9552 25.1658 10.7603C24.9709 10.5653 24.7065 10.4558 24.4308 10.4558H22.352ZM9.87879 16.6924C9.60312 16.6924 9.33874 16.8019 9.14381 16.9969C8.94887 17.1918 8.83936 17.4562 8.83936 17.7318V19.8107C8.83936 20.0864 8.94887 20.3508 9.14381 20.5457C9.33874 20.7406 9.60312 20.8501 9.87879 20.8501H11.9577C12.2333 20.8501 12.4977 20.7406 12.6926 20.5457C12.8876 20.3508 12.9971 20.0864 12.9971 19.8107V17.7318C12.9971 17.4562 12.8876 17.1918 12.6926 16.9969C12.4977 16.8019 12.2333 16.6924 11.9577 16.6924H9.87879ZM16.1154 16.6924C15.8397 16.6924 15.5753 16.8019 15.3804 16.9969C15.1855 17.1918 15.0759 17.4562 15.0759 17.7318V19.8107C15.0759 20.0864 15.1855 20.3508 15.3804 20.5457C15.5753 20.7406 15.8397 20.8501 16.1154 20.8501H18.1942C18.4699 20.8501 18.7343 20.7406 18.9292 20.5457C19.1242 20.3508 19.2337 20.0864 19.2337 19.8107V17.7318C19.2337 17.4562 19.1242 17.1918 18.9292 16.9969C18.7343 16.8019 18.4699 16.6924 18.1942 16.6924H16.1154Z" fill="#757575"/>
</g>
<defs>
<clipPath id="clip0_168_6160">
<rect width="33.2618" height="33.2618" fill="white" transform="translate(0.523438 0.0605469)"/>
</clipPath>
</defs>
</svg>
