<svg width="35" height="34" viewBox="0 0 35 34" fill="none" xmlns="http://www.w3.org/2000/svg">
<path d="M9.09791 22.9292H4.94019V29.1658H9.09791V22.9292ZM19.4922 14.6138H15.3345V29.1658H19.4922V14.6138ZM29.8865 4.21949V29.1658H25.7288V4.21949H29.8865ZM25.7288 2.14062C25.1775 2.14063 24.6487 2.35965 24.2588 2.74951C23.869 3.13937 23.6499 3.66814 23.6499 4.21949V29.1658C23.6499 29.7172 23.869 30.2459 24.2588 30.6358C24.6487 31.0257 25.1775 31.2447 25.7288 31.2447H29.8865C30.4379 31.2447 30.9666 31.0257 31.3565 30.6358C31.7464 30.2459 31.9654 29.7172 31.9654 29.1658V4.21949C31.9654 3.66814 31.7464 3.13937 31.3565 2.74951C30.9666 2.35965 30.4379 2.14063 29.8865 2.14062H25.7288ZM13.2556 14.6138C13.2556 14.0624 13.4747 13.5337 13.8645 13.1438C14.2544 12.754 14.7831 12.5349 15.3345 12.5349H19.4922C20.0436 12.5349 20.5723 12.754 20.9622 13.1438C21.3521 13.5337 21.5711 14.0624 21.5711 14.6138V29.1658C21.5711 29.7172 21.3521 30.2459 20.9622 30.6358C20.5723 31.0257 20.0436 31.2447 19.4922 31.2447H15.3345C14.7831 31.2447 14.2544 31.0257 13.8645 30.6358C13.4747 30.2459 13.2556 29.7172 13.2556 29.1658V14.6138ZM2.86133 22.9292C2.86133 22.3779 3.08035 21.8491 3.47021 21.4593C3.86007 21.0694 4.38884 20.8504 4.94019 20.8504H9.09791C9.64926 20.8504 10.178 21.0694 10.5679 21.4593C10.9578 21.8491 11.1768 22.3779 11.1768 22.9292V29.1658C11.1768 29.7172 10.9578 30.2459 10.5679 30.6358C10.178 31.0257 9.64926 31.2447 9.09791 31.2447H4.94019C4.38884 31.2447 3.86007 31.0257 3.47021 30.6358C3.08035 30.2459 2.86133 29.7172 2.86133 29.1658V22.9292Z" fill="#757575"/>
</svg>
