<svg width="34" height="34" viewBox="0 0 34 34" fill="none" xmlns="http://www.w3.org/2000/svg">
<g clip-path="url(#clip0_168_2441)">
<path d="M17.9326 23.9683C17.9326 24.2439 17.8231 24.5083 17.6281 24.7032C17.4332 24.8982 17.1688 25.0077 16.8931 25.0077C16.6175 25.0077 16.3531 24.8982 16.1581 24.7032C15.9632 24.5083 15.8537 24.2439 15.8537 23.9683V16.0831L13.4713 18.4676C13.2762 18.6628 13.0114 18.7724 12.7354 18.7724C12.4594 18.7724 12.1947 18.6628 11.9995 18.4676C11.8043 18.2724 11.6947 18.0077 11.6947 17.7317C11.6947 17.4557 11.8043 17.1909 11.9995 16.9958L16.1572 12.838C16.2538 12.7412 16.3685 12.6644 16.4948 12.612C16.621 12.5596 16.7564 12.5327 16.8931 12.5327C17.0299 12.5327 17.1652 12.5596 17.2915 12.612C17.4178 12.6644 17.5325 12.7412 17.6291 12.838L21.7868 16.9958C21.982 17.1909 22.0916 17.4557 22.0916 17.7317C22.0916 18.0077 21.982 18.2724 21.7868 18.4676C21.5916 18.6628 21.3269 18.7724 21.0509 18.7724C20.7748 18.7724 20.5101 18.6628 20.3149 18.4676L17.9326 16.0831V23.9683Z" fill="#757575"/>
<path d="M29.3663 29.1656V9.4164L20.0114 0.0615234H8.57764C7.47495 0.0615234 6.41741 0.499568 5.63769 1.27929C4.85797 2.05902 4.41992 3.11655 4.41992 4.21925V29.1656C4.41992 30.2683 4.85797 31.3258 5.63769 32.1055C6.41741 32.8853 7.47495 33.3233 8.57764 33.3233H25.2085C26.3112 33.3233 27.3688 32.8853 28.1485 32.1055C28.9282 31.3258 29.3663 30.2683 29.3663 29.1656ZM20.0114 6.29811C20.0114 7.12513 20.3399 7.91828 20.9247 8.50307C21.5095 9.08787 22.3027 9.4164 23.1297 9.4164H27.2874V29.1656C27.2874 29.7169 27.0684 30.2457 26.6785 30.6356C26.2887 31.0254 25.7599 31.2444 25.2085 31.2444H8.57764C8.0263 31.2444 7.49753 31.0254 7.10767 30.6356C6.71781 30.2457 6.49878 29.7169 6.49878 29.1656V4.21925C6.49878 3.6679 6.71781 3.13913 7.10767 2.74927C7.49753 2.35941 8.0263 2.14038 8.57764 2.14038H20.0114V6.29811Z" fill="#757575"/>
</g>
<defs>
<clipPath id="clip0_168_2441">
<rect width="33.2618" height="33.2618" fill="white" transform="translate(0.261719 0.0605469)"/>
</clipPath>
</defs>
</svg>
