<svg width="34" height="34" viewBox="0 0 34 34" fill="none" xmlns="http://www.w3.org/2000/svg">
<g clip-path="url(#clip0_168_4151)">
<path d="M4.68164 2.6814C4.68164 2.13005 4.90066 1.60129 5.29052 1.21142C5.68039 0.821561 6.20915 0.602539 6.7605 0.602539H27.5491C28.1005 0.602539 28.6292 0.821561 29.0191 1.21142C29.409 1.60129 29.628 2.13005 29.628 2.6814V16.194C29.628 16.4697 29.5185 16.7341 29.3235 16.929C29.1286 17.1239 28.8642 17.2334 28.5885 17.2334C28.3129 17.2334 28.0485 17.1239 27.8536 16.929C27.6586 16.7341 27.5491 16.4697 27.5491 16.194V2.6814H6.7605V31.7855H12.9971V26.5883C12.9971 26.3126 13.1066 26.0482 13.3015 25.8533C13.4965 25.6584 13.7608 25.5489 14.0365 25.5489H17.1548V33.8643H6.7605C6.20915 33.8643 5.68039 33.6453 5.29052 33.2554C4.90066 32.8656 4.68164 32.3368 4.68164 31.7855V2.6814Z" fill="#757575"/>
<path d="M9.87879 4.76026C9.60312 4.76026 9.33874 4.86977 9.14381 5.0647C8.94887 5.25964 8.83936 5.52402 8.83936 5.79969V7.87855C8.83936 8.15423 8.94887 8.41861 9.14381 8.61354C9.33874 8.80847 9.60312 8.91798 9.87879 8.91798H11.9577C12.2333 8.91798 12.4977 8.80847 12.6926 8.61354C12.8876 8.41861 12.9971 8.15423 12.9971 7.87855V5.79969C12.9971 5.52402 12.8876 5.25964 12.6926 5.0647C12.4977 4.86977 12.2333 4.76026 11.9577 4.76026H9.87879ZM16.1154 4.76026C15.8397 4.76026 15.5753 4.86977 15.3804 5.0647C15.1855 5.25964 15.0759 5.52402 15.0759 5.79969V7.87855C15.0759 8.15423 15.1855 8.41861 15.3804 8.61354C15.5753 8.80847 15.8397 8.91798 16.1154 8.91798H18.1942C18.4699 8.91798 18.7343 8.80847 18.9292 8.61354C19.1242 8.41861 19.2337 8.15423 19.2337 7.87855V5.79969C19.2337 5.52402 19.1242 5.25964 18.9292 5.0647C18.7343 4.86977 18.4699 4.76026 18.1942 4.76026H16.1154ZM22.352 4.76026C22.0763 4.76026 21.8119 4.86977 21.617 5.0647C21.422 5.25964 21.3125 5.52402 21.3125 5.79969V7.87855C21.3125 8.15423 21.422 8.41861 21.617 8.61354C21.8119 8.80847 22.0763 8.91798 22.352 8.91798H24.4308C24.7065 8.91798 24.9709 8.80847 25.1658 8.61354C25.3607 8.41861 25.4703 8.15423 25.4703 7.87855V5.79969C25.4703 5.52402 25.3607 5.25964 25.1658 5.0647C24.9709 4.86977 24.7065 4.76026 24.4308 4.76026H22.352ZM9.87879 10.9968C9.60312 10.9968 9.33874 11.1064 9.14381 11.3013C8.94887 11.4962 8.83936 11.7606 8.83936 12.0363V14.1151C8.83936 14.3908 8.94887 14.6552 9.14381 14.8501C9.33874 15.0451 9.60312 15.1546 9.87879 15.1546H11.9577C12.2333 15.1546 12.4977 15.0451 12.6926 14.8501C12.8876 14.6552 12.9971 14.3908 12.9971 14.1151V12.0363C12.9971 11.7606 12.8876 11.4962 12.6926 11.3013C12.4977 11.1064 12.2333 10.9968 11.9577 10.9968H9.87879ZM16.1154 10.9968C15.8397 10.9968 15.5753 11.1064 15.3804 11.3013C15.1855 11.4962 15.0759 11.7606 15.0759 12.0363V14.1151C15.0759 14.3908 15.1855 14.6552 15.3804 14.8501C15.5753 15.0451 15.8397 15.1546 16.1154 15.1546H18.1942C18.4699 15.1546 18.7343 15.0451 18.9292 14.8501C19.1242 14.6552 19.2337 14.3908 19.2337 14.1151V12.0363C19.2337 11.7606 19.1242 11.4962 18.9292 11.3013C18.7343 11.1064 18.4699 10.9968 18.1942 10.9968H16.1154ZM22.352 10.9968C22.0763 10.9968 21.8119 11.1064 21.617 11.3013C21.422 11.4962 21.3125 11.7606 21.3125 12.0363V14.1151C21.3125 14.3908 21.422 14.6552 21.617 14.8501C21.8119 15.0451 22.0763 15.1546 22.352 15.1546H24.4308C24.7065 15.1546 24.9709 15.0451 25.1658 14.8501C25.3607 14.6552 25.4703 14.3908 25.4703 14.1151V12.0363C25.4703 11.7606 25.3607 11.4962 25.1658 11.3013C24.9709 11.1064 24.7065 10.9968 24.4308 10.9968H22.352ZM9.87879 17.2334C9.60312 17.2334 9.33874 17.3429 9.14381 17.5379C8.94887 17.7328 8.83936 17.9972 8.83936 18.2729V20.3517C8.83936 20.6274 8.94887 20.8918 9.14381 21.0867C9.33874 21.2816 9.60312 21.3912 9.87879 21.3912H11.9577C12.2333 21.3912 12.4977 21.2816 12.6926 21.0867C12.8876 20.8918 12.9971 20.6274 12.9971 20.3517V18.2729C12.9971 17.9972 12.8876 17.7328 12.6926 17.5379C12.4977 17.3429 12.2333 17.2334 11.9577 17.2334H9.87879ZM16.1154 17.2334C15.8397 17.2334 15.5753 17.3429 15.3804 17.5379C15.1855 17.7328 15.0759 17.9972 15.0759 18.2729V20.3517C15.0759 20.6274 15.1855 20.8918 15.3804 21.0867C15.5753 21.2816 15.8397 21.3912 16.1154 21.3912H18.1942C18.4699 21.3912 18.7343 21.2816 18.9292 21.0867C19.1242 20.8918 19.2337 20.6274 19.2337 20.3517V18.2729C19.2337 17.9972 19.1242 17.7328 18.9292 17.5379C18.7343 17.3429 18.4699 17.2334 18.1942 17.2334H16.1154ZM25.2333 20.2686C25.6075 18.9942 27.4119 18.9942 27.7882 20.2686L27.8776 20.5762C27.9334 20.7671 28.0313 20.943 28.1641 21.091C28.2969 21.2391 28.4611 21.3554 28.6448 21.4316C28.8285 21.5078 29.0269 21.5418 29.2255 21.5312C29.424 21.5206 29.6177 21.4657 29.7922 21.3704L30.0749 21.2165C31.2412 20.5804 32.5176 21.8568 31.8835 23.0231L31.7276 23.3058C31.6327 23.4802 31.5781 23.6737 31.5677 23.872C31.5573 24.0703 31.5914 24.2685 31.6675 24.4519C31.7437 24.6353 31.8599 24.7993 32.0078 24.9319C32.1556 25.0646 32.3312 25.1624 32.5218 25.2183L32.8315 25.3119C34.1038 25.6861 34.1038 27.4905 32.8315 27.8668L32.5197 27.9562C32.3292 28.0125 32.1537 28.1108 32.0062 28.2437C31.8586 28.3767 31.7427 28.541 31.6669 28.7246C31.5912 28.9083 31.5575 29.1065 31.5683 29.3049C31.5792 29.5032 31.6343 29.6966 31.7297 29.8708L31.8835 30.1536C32.5176 31.3198 31.2412 32.5962 30.0749 31.9622L29.7922 31.8063C29.6178 31.7113 29.4243 31.6567 29.226 31.6463C29.0277 31.6359 28.8295 31.67 28.6461 31.7462C28.4627 31.8223 28.2987 31.9386 28.166 32.0864C28.0334 32.2342 27.9356 32.4098 27.8797 32.6004L27.7861 32.9101C27.4119 34.1824 25.6075 34.1824 25.2312 32.9101L25.1418 32.5983C25.0855 32.4078 24.9872 32.2323 24.8543 32.0848C24.7213 31.9372 24.557 31.8213 24.3734 31.7456C24.1897 31.6698 23.9915 31.6361 23.7931 31.647C23.5948 31.6578 23.4014 31.713 23.2272 31.8083L22.9444 31.9622C21.7782 32.5962 20.5018 31.3198 21.1358 30.1536L21.2917 29.8708C21.3867 29.6964 21.4413 29.5029 21.4517 29.3046C21.4621 29.1063 21.428 28.9081 21.3518 28.7247C21.2757 28.5413 21.1594 28.3773 21.0116 28.2447C20.8638 28.112 20.6882 28.0142 20.4976 27.9583L20.1899 27.8647C18.9156 27.4905 18.9156 25.6861 20.1899 25.3098L20.4976 25.2204C20.6885 25.1646 20.8644 25.0667 21.0124 24.9339C21.1604 24.8011 21.2768 24.6369 21.353 24.4532C21.4292 24.2695 21.4632 24.0711 21.4526 23.8725C21.442 23.674 21.387 23.4803 21.2917 23.3058L21.1379 23.0231C20.5018 21.8568 21.7782 20.5804 22.9444 21.2145L23.2272 21.3704C23.4016 21.4653 23.5951 21.5199 23.7934 21.5303C23.9917 21.5407 24.1898 21.5066 24.3733 21.4305C24.5567 21.3543 24.7207 21.238 24.8533 21.0902C24.986 20.9424 25.0838 20.7668 25.1397 20.5762L25.2333 20.2686ZM29.628 26.5883C29.628 26.1788 29.5473 25.7733 29.3906 25.395C29.2339 25.0167 29.0042 24.6729 28.7147 24.3833C28.4251 24.0938 28.0813 23.8641 27.703 23.7074C27.3247 23.5507 26.9192 23.47 26.5097 23.47C26.1002 23.47 25.6947 23.5507 25.3164 23.7074C24.938 23.8641 24.5943 24.0938 24.3047 24.3833C24.0152 24.6729 23.7855 25.0167 23.6288 25.395C23.4721 25.7733 23.3914 26.1788 23.3914 26.5883C23.3914 27.4153 23.7199 28.2085 24.3047 28.7933C24.8895 29.3781 25.6827 29.7066 26.5097 29.7066C27.3367 29.7066 28.1299 29.3781 28.7147 28.7933C29.2994 28.2085 29.628 27.4153 29.628 26.5883Z" fill="#757575"/>
</g>
<defs>
<clipPath id="clip0_168_4151">
<rect width="33.2618" height="33.2618" fill="white" transform="translate(0.523438 0.601562)"/>
</clipPath>
</defs>
</svg>
