<svg width="35" height="34" viewBox="0 0 35 34" fill="none" xmlns="http://www.w3.org/2000/svg">
<g clip-path="url(#clip0_168_5622)">
<path d="M29.8853 2.6814C30.4367 2.6814 30.9654 2.90042 31.3553 3.29028C31.7451 3.68015 31.9642 4.20891 31.9642 4.76026V29.7066C31.9642 30.2579 31.7451 30.7867 31.3553 31.1766C30.9654 31.5664 30.4367 31.7855 29.8853 31.7855H4.93897C4.38762 31.7855 3.85886 31.5664 3.469 31.1766C3.07913 30.7867 2.86011 30.2579 2.86011 29.7066V4.76026C2.86011 4.20891 3.07913 3.68015 3.469 3.29028C3.85886 2.90042 4.38762 2.6814 4.93897 2.6814H29.8853ZM4.93897 0.602539C3.83628 0.602539 2.77874 1.04058 1.99902 1.82031C1.21929 2.60003 0.78125 3.65757 0.78125 4.76026V29.7066C0.78125 30.8093 1.21929 31.8668 1.99902 32.6466C2.77874 33.4263 3.83628 33.8643 4.93897 33.8643H29.8853C30.988 33.8643 32.0455 33.4263 32.8253 32.6466C33.605 31.8668 34.043 30.8093 34.043 29.7066V4.76026C34.043 3.65757 33.605 2.60003 32.8253 1.82031C32.0455 1.04058 30.988 0.602539 29.8853 0.602539H4.93897Z" fill="#757575"/>
<path d="M15.3375 23.4703C15.3375 23.1973 15.3912 22.9269 15.4957 22.6747C15.6002 22.4225 15.7533 22.1933 15.9464 22.0003C16.1394 21.8072 16.3686 21.6541 16.6208 21.5496C16.873 21.4452 17.1433 21.3914 17.4163 21.3914C17.6893 21.3914 17.9597 21.4452 18.2119 21.5496C18.4641 21.6541 18.6933 21.8072 18.8863 22.0003C19.0793 22.1933 19.2325 22.4225 19.3369 22.6747C19.4414 22.9269 19.4952 23.1973 19.4952 23.4703C19.4952 24.0216 19.2762 24.5504 18.8863 24.9402C18.4964 25.3301 17.9677 25.5491 17.4163 25.5491C16.865 25.5491 16.3362 25.3301 15.9464 24.9402C15.5565 24.5504 15.3375 24.0216 15.3375 23.4703ZM15.5412 10.9867C15.5135 10.7244 15.5413 10.4593 15.6227 10.2084C15.7041 9.95758 15.8373 9.72666 16.0138 9.53063C16.1902 9.33461 16.4058 9.17787 16.6468 9.07057C16.8877 8.96328 17.1484 8.90783 17.4122 8.90783C17.6759 8.90783 17.9367 8.96328 18.1776 9.07057C18.4185 9.17787 18.6342 9.33461 18.8106 9.53063C18.987 9.72666 19.1202 9.95758 19.2017 10.2084C19.2831 10.4593 19.3108 10.7244 19.2831 10.9867L18.5555 18.2773C18.5311 18.5637 18.4001 18.8305 18.1883 19.0249C17.9766 19.2193 17.6996 19.3272 17.4122 19.3272C17.1247 19.3272 16.8477 19.2193 16.636 19.0249C16.4243 18.8305 16.2932 18.5637 16.2688 18.2773L15.5412 10.9867Z" fill="#757575"/>
</g>
<defs>
<clipPath id="clip0_168_5622">
<rect width="33.2618" height="33.2618" fill="white" transform="translate(0.783203 0.601562)"/>
</clipPath>
</defs>
</svg>
