<svg width="24" height="24" viewBox="0 0 24 24" fill="none" xmlns="http://www.w3.org/2000/svg">
<path d="M5 5.5C5 5.36739 5.05268 5.24021 5.14645 5.14645C5.24021 5.05268 5.36739 5 5.5 5H16.5C16.6326 5 16.7598 5.05268 16.8536 5.14645C16.9473 5.24021 17 5.36739 17 5.5C17 5.63261 16.9473 5.75979 16.8536 5.85355C16.7598 5.94732 16.6326 6 16.5 6H15.5V7C15.5002 7.84903 15.2602 8.6808 14.8078 9.39922C14.3553 10.1176 13.7088 10.6934 12.943 11.06C12.653 11.199 12.5 11.437 12.5 11.65V12.35C12.5 12.563 12.654 12.801 12.943 12.94C13.7088 13.3066 14.3553 13.8824 14.8078 14.6008C15.2602 15.3192 15.5002 16.151 15.5 17V18H16.5C16.6326 18 16.7598 18.0527 16.8536 18.1464C16.9473 18.2402 17 18.3674 17 18.5C17 18.6326 16.9473 18.7598 16.8536 18.8536C16.7598 18.9473 16.6326 19 16.5 19H5.5C5.36739 19 5.24021 18.9473 5.14645 18.8536C5.05268 18.7598 5 18.6326 5 18.5C5 18.3674 5.05268 18.2402 5.14645 18.1464C5.24021 18.0527 5.36739 18 5.5 18H6.5V17C6.49979 16.151 6.73979 15.3192 7.19225 14.6008C7.64471 13.8824 8.29119 13.3066 9.057 12.94C9.347 12.801 9.5 12.563 9.5 12.35V11.65C9.5 11.437 9.346 11.199 9.057 11.06C8.29119 10.6934 7.64471 10.1176 7.19225 9.39922C6.73979 8.6808 6.49979 7.84903 6.5 7V6H5.5C5.36739 6 5.24021 5.94732 5.14645 5.85355C5.05268 5.75979 5 5.63261 5 5.5ZM7.5 6V7C7.49982 7.66042 7.68649 8.30741 8.03845 8.86623C8.39041 9.42505 8.89329 9.87289 9.489 10.158C10.022 10.414 10.5 10.949 10.5 11.649V12.351C10.5 13.051 10.022 13.586 9.489 13.842C8.89329 14.1271 8.39041 14.5749 8.03845 15.1338C7.68649 15.6926 7.49982 16.3396 7.5 17V18H14.5V17C14.5002 16.3396 14.3135 15.6926 13.9615 15.1338C13.6096 14.5749 13.1067 14.1271 12.511 13.842C11.978 13.586 11.5 13.052 11.5 12.351V11.649C11.5 10.949 11.978 10.414 12.511 10.158C13.1067 9.87289 13.6096 9.42505 13.9615 8.86623C14.3135 8.30741 14.5002 7.66042 14.5 7V6H7.5Z" fill="#757575"/>
</svg>
