<svg width="24" height="24" viewBox="0 0 24 24" fill="none" xmlns="http://www.w3.org/2000/svg">
<g clip-path="url(#clip0_168_3402)">
<path fill-rule="evenodd" clip-rule="evenodd" d="M9.00092 16.5C9.00092 16.6326 9.05359 16.7598 9.14736 16.8536C9.24113 16.9473 9.36831 17 9.50092 17H17.5009C17.6335 17 17.7607 16.9473 17.8545 16.8536C17.9482 16.7598 18.0009 16.6326 18.0009 16.5V7.5C18.0009 7.36739 17.9482 7.24021 17.8545 7.14645C17.7607 7.05268 17.6335 7 17.5009 7H9.50092C9.36831 7 9.24113 7.05268 9.14736 7.14645C9.05359 7.24021 9.00092 7.36739 9.00092 7.5V9.5C9.00092 9.63261 8.94824 9.75979 8.85447 9.85355C8.7607 9.94732 8.63352 10 8.50092 10C8.36831 10 8.24113 9.94732 8.14736 9.85355C8.05359 9.75979 8.00092 9.63261 8.00092 9.5V7.5C8.00092 7.10218 8.15895 6.72064 8.44026 6.43934C8.72156 6.15804 9.10309 6 9.50092 6H17.5009C17.8987 6 18.2803 6.15804 18.5616 6.43934C18.8429 6.72064 19.0009 7.10218 19.0009 7.5V16.5C19.0009 16.8978 18.8429 17.2794 18.5616 17.5607C18.2803 17.842 17.8987 18 17.5009 18H9.50092C9.10309 18 8.72156 17.842 8.44026 17.5607C8.15895 17.2794 8.00092 16.8978 8.00092 16.5V14.5C8.00092 14.3674 8.05359 14.2402 8.14736 14.1464C8.24113 14.0527 8.36831 14 8.50092 14C8.63352 14 8.7607 14.0527 8.85447 14.1464C8.94824 14.2402 9.00092 14.3674 9.00092 14.5V16.5Z" fill="#F9FAFC"/>
<path fill-rule="evenodd" clip-rule="evenodd" d="M3.14689 12.3539C3.10033 12.3075 3.06339 12.2523 3.03818 12.1915C3.01297 12.1308 3 12.0657 3 11.9999C3 11.9341 3.01297 11.869 3.03818 11.8083C3.06339 11.7475 3.10033 11.6923 3.14689 11.6459L6.14689 8.6459C6.19338 8.59941 6.24857 8.56254 6.30931 8.53738C6.37005 8.51222 6.43515 8.49927 6.50089 8.49927C6.56664 8.49927 6.63174 8.51222 6.69248 8.53738C6.75322 8.56254 6.80841 8.59941 6.85489 8.6459C6.90138 8.69239 6.93826 8.74758 6.96342 8.80832C6.98858 8.86906 7.00153 8.93416 7.00153 8.9999C7.00153 9.06564 6.98858 9.13074 6.96342 9.19148C6.93826 9.25222 6.90138 9.30741 6.85489 9.3539L4.70789 11.4999H13.5009C13.6335 11.4999 13.7607 11.5526 13.8544 11.6463C13.9482 11.7401 14.0009 11.8673 14.0009 11.9999C14.0009 12.1325 13.9482 12.2597 13.8544 12.3535C13.7607 12.4472 13.6335 12.4999 13.5009 12.4999H4.70789L6.85489 14.6459C6.90138 14.6924 6.93826 14.7476 6.96342 14.8083C6.98858 14.8691 7.00153 14.9342 7.00153 14.9999C7.00153 15.0656 6.98858 15.1307 6.96342 15.1915C6.93826 15.2522 6.90138 15.3074 6.85489 15.3539C6.80841 15.4004 6.75322 15.4373 6.69248 15.4624C6.63174 15.4876 6.56664 15.5005 6.50089 15.5005C6.43515 15.5005 6.37005 15.4876 6.30931 15.4624C6.24857 15.4373 6.19338 15.4004 6.14689 15.3539L3.14689 12.3539Z" fill="#F9FAFC"/>
</g>
<defs>
<clipPath id="clip0_168_3402">
<rect width="16" height="16" fill="white" transform="translate(3 4)"/>
</clipPath>
</defs>
</svg>
