<svg width="24" height="24" viewBox="0 0 24 24" fill="none" xmlns="http://www.w3.org/2000/svg">
<path d="M11 10.5C11.1326 10.5 11.2598 10.5527 11.3536 10.6464C11.4473 10.7402 11.5 10.8674 11.5 11V12.5H13C13.1326 12.5 13.2598 12.5527 13.3536 12.6464C13.4473 12.7402 13.5 12.8674 13.5 13C13.5 13.1326 13.4473 13.2598 13.3536 13.3536C13.2598 13.4473 13.1326 13.5 13 13.5H11.5V15C11.5 15.1326 11.4473 15.2598 11.3536 15.3536C11.2598 15.4473 11.1326 15.5 11 15.5C10.8674 15.5 10.7402 15.4473 10.6464 15.3536C10.5527 15.2598 10.5 15.1326 10.5 15V13.5H9C8.86739 13.5 8.74021 13.4473 8.64645 13.3536C8.55268 13.2598 8.5 13.1326 8.5 13C8.5 12.8674 8.55268 12.7402 8.64645 12.6464C8.74021 12.5527 8.86739 12.5 9 12.5H10.5V11C10.5 10.8674 10.5527 10.7402 10.6464 10.6464C10.7402 10.5527 10.8674 10.5 11 10.5Z" fill="#757575"/>
<path d="M17 8.5V18C17 18.5304 16.7893 19.0391 16.4142 19.4142C16.0391 19.7893 15.5304 20 15 20H7C6.46957 20 5.96086 19.7893 5.58579 19.4142C5.21071 19.0391 5 18.5304 5 18V6C5 5.46957 5.21071 4.96086 5.58579 4.58579C5.96086 4.21071 6.46957 4 7 4H12.5L17 8.5ZM14 8.5C13.6022 8.5 13.2206 8.34196 12.9393 8.06066C12.658 7.77936 12.5 7.39782 12.5 7V5H7C6.73478 5 6.48043 5.10536 6.29289 5.29289C6.10536 5.48043 6 5.73478 6 6V18C6 18.2652 6.10536 18.5196 6.29289 18.7071C6.48043 18.8946 6.73478 19 7 19H15C15.2652 19 15.5196 18.8946 15.7071 18.7071C15.8946 18.5196 16 18.2652 16 18V8.5H14Z" fill="#757575"/>
</svg>
