<svg width="24" height="25" viewBox="0 0 24 25" fill="none" xmlns="http://www.w3.org/2000/svg">
<g clip-path="url(#clip0_168_767)">
<path d="M9.70165 22.4424H14.2969C13.93 23.3694 13.0318 24 11.9989 24C10.9664 24 10.0685 23.3695 9.70165 22.4424Z" stroke="#C3CED2"/>
<path d="M21.2928 18.2784V19.5427H2.70703V18.2784C2.85777 18.1411 3.01384 18.0112 3.18004 17.8732L3.20826 17.8497C3.69414 17.4464 4.25827 16.9782 4.66806 16.1906C5.08412 15.3909 5.30747 14.337 5.30747 12.7883V10.4355C5.30747 7.32627 7.4954 4.5941 10.5172 3.91027L11.4585 3.69726L11.0197 2.83773C10.9364 2.67471 10.8985 2.51332 10.8985 2.35119C10.8985 1.74472 11.3932 1.25 11.9997 1.25C12.6067 1.25 13.1013 1.74487 13.1013 2.35119C13.1013 2.51293 13.0634 2.67452 12.98 2.83806L12.5418 3.69736L13.4826 3.91027C16.5043 4.5941 18.6924 7.32628 18.6924 10.4355V12.7883C18.6924 14.337 18.9157 15.3909 19.3318 16.1906C19.7416 16.9781 20.3057 17.4464 20.7915 17.8496L20.8198 17.8731C20.8198 17.8732 20.8199 17.8732 20.8199 17.8732C20.9861 18.0112 21.1421 18.1411 21.2928 18.2784Z" stroke="#C3CED2" stroke-width="1.5"/>
</g>
<defs>
<clipPath id="clip0_168_767">
<rect width="24" height="24" fill="white" transform="translate(0 0.5)"/>
</clipPath>
</defs>
</svg>
