<svg width="25" height="25" viewBox="0 0 25 25" fill="none" xmlns="http://www.w3.org/2000/svg">
<g clip-path="url(#clip0_168_11603)">
<path d="M9.46484 5.70703V8.70703H4.46484V5.70703H9.46484ZM4.46484 4.70703C4.19963 4.70703 3.94527 4.81239 3.75774 4.99992C3.5702 5.18746 3.46484 5.44181 3.46484 5.70703V8.70703C3.46484 8.97225 3.5702 9.2266 3.75774 9.41414C3.94527 9.60167 4.19963 9.70703 4.46484 9.70703H9.46484C9.73006 9.70703 9.98441 9.60167 10.172 9.41414C10.3595 9.2266 10.4648 8.97225 10.4648 8.70703V5.70703C10.4648 5.44181 10.3595 5.18746 10.172 4.99992C9.98441 4.81239 9.73006 4.70703 9.46484 4.70703H4.46484ZM18.4648 16.707V19.707H13.4648V16.707H18.4648ZM13.4648 15.707C13.1996 15.707 12.9453 15.8124 12.7577 15.9999C12.5702 16.1875 12.4648 16.4418 12.4648 16.707V19.707C12.4648 19.9722 12.5702 20.2266 12.7577 20.4141C12.9453 20.6017 13.1996 20.707 13.4648 20.707H18.4648C18.7301 20.707 18.9844 20.6017 19.172 20.4141C19.3595 20.2266 19.4648 19.9722 19.4648 19.707V16.707C19.4648 16.4418 19.3595 16.1875 19.172 15.9999C18.9844 15.8124 18.7301 15.707 18.4648 15.707H13.4648ZM9.46484 12.707V19.707H4.46484V12.707H9.46484ZM4.46484 11.707C4.19963 11.707 3.94527 11.8124 3.75774 11.9999C3.5702 12.1875 3.46484 12.4418 3.46484 12.707V19.707C3.46484 19.9722 3.5702 20.2266 3.75774 20.4141C3.94527 20.6017 4.19963 20.707 4.46484 20.707H9.46484C9.73006 20.707 9.98441 20.6017 10.172 20.4141C10.3595 20.2266 10.4648 19.9722 10.4648 19.707V12.707C10.4648 12.4418 10.3595 12.1875 10.172 11.9999C9.98441 11.8124 9.73006 11.707 9.46484 11.707H4.46484ZM18.4648 5.70703V12.707H13.4648V5.70703H18.4648ZM13.4648 4.70703C13.1996 4.70703 12.9453 4.81239 12.7577 4.99992C12.5702 5.18746 12.4648 5.44181 12.4648 5.70703V12.707C12.4648 12.9722 12.5702 13.2266 12.7577 13.4141C12.9453 13.6017 13.1996 13.707 13.4648 13.707H18.4648C18.7301 13.707 18.9844 13.6017 19.172 13.4141C19.3595 13.2266 19.4648 12.9722 19.4648 12.707V5.70703C19.4648 5.44181 19.3595 5.18746 19.172 4.99992C18.9844 4.81239 18.7301 4.70703 18.4648 4.70703H13.4648Z" fill="#757575"/>
</g>
<defs>
<clipPath id="clip0_168_11603">
<rect width="16" height="16" fill="white" transform="translate(3.46484 4.70703)"/>
</clipPath>
</defs>
</svg>
