<svg width="348" height="49" viewBox="0 0 348 49" fill="none" xmlns="http://www.w3.org/2000/svg">
<path d="M101.596 29.493C97.7782 29.5644 95.29 26.428 95.2735 22.9565C95.257 19.5895 97.5256 16.497 101.717 16.2773C103.408 16.1894 105.106 16.2608 107.061 16.2608C107.061 14.5086 106.968 12.8828 107.083 11.2679C107.308 8.07109 108.879 5.64877 111.45 4.79739C116.157 3.23194 120.134 5.96186 120.601 11.0427L120.507 10.9713L120.398 11.0152C119.678 11.1635 118.909 11.1965 118.244 11.4766C114.795 12.9212 113.779 15.7006 113.883 19.2489C113.993 23.0719 114.29 22.4512 110.697 22.6435C108.044 22.7863 105.276 23.1323 103.518 25.4722C102.639 26.6312 102.222 28.1362 101.596 29.493Z" fill="#16559E"/>
<path d="M131.5 26.4292V8.12814H135.474L141.305 19.7362L147.056 8.12814H151.03V26.4292H147.684V13.8015L142.586 23.8148H139.945L134.847 13.8015V26.4292H131.5ZM158.683 26.7429C157.567 26.7429 156.652 26.5686 155.938 26.22C155.223 25.854 154.691 25.3747 154.343 24.7821C153.994 24.1895 153.82 23.5359 153.82 22.8213C153.82 21.6186 154.291 20.6426 155.232 19.8931C156.173 19.1436 157.585 18.7689 159.467 18.7689H162.761V18.4552C162.761 17.5663 162.509 16.9126 162.003 16.4943C161.498 16.076 160.87 15.8669 160.121 15.8669C159.441 15.8669 158.848 16.0325 158.343 16.3636C157.837 16.6773 157.524 17.1479 157.402 17.7754H154.134C154.221 16.8342 154.535 16.015 155.075 15.3178C155.633 14.6207 156.347 14.0891 157.219 13.723C158.09 13.3396 159.066 13.1479 160.147 13.1479C161.994 13.1479 163.45 13.6097 164.513 14.5335C165.576 15.4573 166.108 16.7645 166.108 18.4552V26.4292H163.258L162.944 24.3376C162.561 25.0348 162.021 25.61 161.323 26.0632C160.644 26.5163 159.763 26.7429 158.683 26.7429ZM159.441 24.1285C160.4 24.1285 161.14 23.8148 161.663 23.1873C162.204 22.5598 162.543 21.7842 162.683 20.8604H159.833C158.944 20.8604 158.308 21.026 157.925 21.3572C157.541 21.6709 157.349 22.0631 157.349 22.5337C157.349 23.0391 157.541 23.4313 157.925 23.7102C158.308 23.9891 158.814 24.1285 159.441 24.1285ZM174.37 26.7429C173.22 26.7429 172.209 26.5599 171.338 26.1939C170.466 25.8104 169.769 25.2876 169.246 24.6252C168.723 23.9629 168.409 23.196 168.305 22.3245H171.678C171.782 22.83 172.061 23.2657 172.514 23.6318C172.985 23.9803 173.586 24.1546 174.318 24.1546C175.05 24.1546 175.582 24.0065 175.913 23.7102C176.262 23.4139 176.436 23.074 176.436 22.6906C176.436 22.1328 176.192 21.7581 175.704 21.5663C175.216 21.3572 174.536 21.1568 173.665 20.965C173.107 20.843 172.54 20.6949 171.965 20.5206C171.39 20.3463 170.858 20.1284 170.37 19.867C169.9 19.5881 169.516 19.2395 169.22 18.8212C168.924 18.3854 168.776 17.8538 168.776 17.2264C168.776 16.076 169.229 15.1087 170.135 14.3244C171.059 13.54 172.349 13.1479 174.004 13.1479C175.538 13.1479 176.758 13.5052 177.665 14.2198C178.588 14.9344 179.137 15.9192 179.312 17.1741H176.148C175.956 16.2155 175.233 15.7362 173.978 15.7362C173.351 15.7362 172.863 15.8582 172.514 16.1022C172.183 16.3462 172.017 16.6512 172.017 17.0172C172.017 17.4007 172.27 17.7057 172.776 17.9323C173.281 18.1589 173.952 18.368 174.789 18.5597C175.695 18.7689 176.523 19.0042 177.272 19.2656C178.039 19.5097 178.649 19.8844 179.103 20.3899C179.556 20.8779 179.782 21.5838 179.782 22.5075C179.8 23.3093 179.591 24.0326 179.155 24.6775C178.719 25.3224 178.092 25.8279 177.272 26.1939C176.453 26.5599 175.486 26.7429 174.37 26.7429ZM187.816 26.7429C186.666 26.7429 185.655 26.5599 184.783 26.1939C183.912 25.8104 183.215 25.2876 182.692 24.6252C182.169 23.9629 181.855 23.196 181.75 22.3245H185.123C185.228 22.83 185.506 23.2657 185.96 23.6318C186.43 23.9803 187.032 24.1546 187.764 24.1546C188.496 24.1546 189.027 24.0065 189.358 23.7102C189.707 23.4139 189.881 23.074 189.881 22.6906C189.881 22.1328 189.637 21.7581 189.149 21.5663C188.661 21.3572 187.981 21.1568 187.11 20.965C186.552 20.843 185.986 20.6949 185.411 20.5206C184.835 20.3463 184.304 20.1284 183.816 19.867C183.345 19.5881 182.962 19.2395 182.665 18.8212C182.369 18.3854 182.221 17.8538 182.221 17.2264C182.221 16.076 182.674 15.1087 183.581 14.3244C184.504 13.54 185.794 13.1479 187.45 13.1479C188.984 13.1479 190.204 13.5052 191.11 14.2198C192.034 14.9344 192.583 15.9192 192.757 17.1741H189.594C189.402 16.2155 188.679 15.7362 187.424 15.7362C186.796 15.7362 186.308 15.8582 185.96 16.1022C185.629 16.3462 185.463 16.6512 185.463 17.0172C185.463 17.4007 185.716 17.7057 186.221 17.9323C186.727 18.1589 187.398 18.368 188.234 18.5597C189.141 18.7689 189.968 19.0042 190.718 19.2656C191.485 19.5097 192.095 19.8844 192.548 20.3899C193.001 20.8779 193.228 21.5838 193.228 22.5075C193.245 23.3093 193.036 24.0326 192.6 24.6775C192.165 25.3224 191.537 25.8279 190.718 26.1939C189.899 26.5599 188.931 26.7429 187.816 26.7429ZM200.765 26.7429C199.144 26.7429 197.889 26.2375 197 25.2266C196.128 24.2156 195.693 22.7341 195.693 20.782V13.4616H199.013V20.4683C199.013 21.5838 199.24 22.4378 199.693 23.0304C200.146 23.623 200.861 23.9193 201.837 23.9193C202.76 23.9193 203.519 23.5882 204.111 22.9259C204.721 22.2635 205.026 21.3398 205.026 20.1546V13.4616H208.373V26.4292H205.418L205.157 24.2331C204.756 25 204.172 25.61 203.405 26.0632C202.656 26.5163 201.776 26.7429 200.765 26.7429ZM211.518 26.4292V13.4616H214.498L214.812 15.893C215.282 15.0564 215.918 14.3941 216.72 13.906C217.539 13.4006 218.498 13.1479 219.596 13.1479V16.6773H218.655C217.923 16.6773 217.269 16.7906 216.694 17.0172C216.119 17.2438 215.666 17.636 215.335 18.1937C215.021 18.7515 214.864 19.5271 214.864 20.5206V26.4292H211.518ZM227.664 26.7429C226.357 26.7429 225.198 26.4641 224.187 25.9063C223.176 25.3486 222.383 24.5642 221.808 23.5533C221.232 22.5424 220.945 21.3746 220.945 20.05C220.945 18.7079 221.224 17.514 221.781 16.4682C222.357 15.4224 223.141 14.6119 224.134 14.0368C225.145 13.4442 226.331 13.1479 227.69 13.1479C228.962 13.1479 230.087 13.4267 231.063 13.9845C232.039 14.5422 232.797 15.3091 233.337 16.2852C233.895 17.2438 234.174 18.3157 234.174 19.5009C234.174 19.6927 234.165 19.8931 234.148 20.1023C234.148 20.3114 234.139 20.5293 234.122 20.7559H224.265C224.335 21.7668 224.683 22.5598 225.311 23.135C225.956 23.7102 226.731 23.9978 227.638 23.9978C228.317 23.9978 228.884 23.8496 229.337 23.5533C229.808 23.2396 230.156 22.8387 230.383 22.3507H233.782C233.538 23.1699 233.128 23.9193 232.553 24.5991C231.995 25.2614 231.298 25.7843 230.461 26.1678C229.642 26.5512 228.71 26.7429 227.664 26.7429ZM227.69 15.8669C226.871 15.8669 226.148 16.1022 225.52 16.5728C224.893 17.0259 224.492 17.7231 224.317 18.6643H230.775C230.723 17.8103 230.409 17.1305 229.834 16.6251C229.259 16.1196 228.544 15.8669 227.69 15.8669ZM242.659 26.7429C241.439 26.7429 240.349 26.4466 239.391 25.854C238.432 25.2614 237.674 24.4509 237.116 23.4226C236.559 22.3943 236.28 21.2265 236.28 19.9193C236.28 18.612 236.559 17.453 237.116 16.4421C237.674 15.4137 238.432 14.6119 239.391 14.0368C240.349 13.4442 241.439 13.1479 242.659 13.1479C243.635 13.1479 244.489 13.3309 245.221 13.6969C245.953 14.0629 246.546 14.5771 246.999 15.2394V7.60525H250.345V26.4292H247.365L246.999 24.5729C246.581 25.1481 246.023 25.6536 245.326 26.0893C244.646 26.5251 243.757 26.7429 242.659 26.7429ZM243.365 23.8148C244.445 23.8148 245.326 23.4575 246.005 22.7428C246.703 22.0108 247.051 21.0783 247.051 19.9454C247.051 18.8125 246.703 17.8887 246.005 17.1741C245.326 16.4421 244.445 16.076 243.365 16.076C242.302 16.076 241.421 16.4333 240.724 17.1479C240.027 17.8626 239.678 18.7863 239.678 19.9193C239.678 21.0522 240.027 21.9847 240.724 22.7167C241.421 23.4487 242.302 23.8148 243.365 23.8148Z" fill="#13559E"/>
<path d="M60.707 46.049C60.707 44.4446 62.0076 43.144 63.612 43.144H284.387C285.991 43.144 287.292 44.4446 287.292 46.049C287.292 47.6533 285.991 48.9539 284.387 48.9539H63.612C62.0076 48.9539 60.707 47.6533 60.707 46.049Z" fill="#13559E"/>
<path d="M139.14 46.049C139.14 44.4446 140.441 43.144 142.045 43.144H207.406C209.01 43.144 210.311 44.4446 210.311 46.049C210.311 47.6533 209.01 48.9539 207.406 48.9539H142.045C140.441 48.9539 139.14 47.6533 139.14 46.049Z" fill="#3DA8DE"/>
</svg>
